<?xml version="1.0" encoding="UTF-8"?>
<svg xmlns="http://www.w3.org/2000/svg" xmlns:xlink="http://www.w3.org/1999/xlink" version="1.2" >
<font id="Sweet Blooms">
<font-face  font-family="Sweet Blooms" units-per-em="1000" ascent="750" descent="-250" font-style="normal" font-weight="400" font-stretch="normal" cap-height="633" x-height="336" underline-position="-75" underline-thickness="50" />
<missing-glyph  horiz-adv-x="202" d="" />
<glyph glyph-name="&amp;#x20;" unicode="&#x20;" horiz-adv-x="250" d="" />
<glyph glyph-name="&amp;#xa0;" unicode="&#xa0;" horiz-adv-x="250" d="" />
<glyph glyph-name="e" unicode="e" horiz-adv-x="220" d="M247 224 Q247 222 245 216 Q243 210 241 203 Q239 196 236.5 190 Q234 184 233 182 Q225 164 214.5 139.5 Q204 115 190.5 92.5 Q177 70 159 53 Q141 36 117 33 Q80 29 55 39 Q30 49 15.5 68.5 Q1 88 -4 114 Q-9 140 -6 167 Q0 213 18 251 Q26 269 44.5 287 Q63 305 86 316 Q109 327 133 326 Q157 325 176 304 Q190 289 189.5 270.5 Q189 252 180 232.5 Q171 213 155.5 194 Q140 175 122.5 160.5 Q105 146 87.5 136.5 Q70 127 58 127 Q60 95 72.5 77 Q85 59 97 55 Q125 46 147.5 65.5 Q170 85 187.5 116 Q205 147 217.5 180 Q230 213 238 233 Q239 235 243 230.5 Q247 226 247 225 L247 224 Z M147 289 Q127 288 110.5 271.5 Q94 255 82.5 232.5 Q71 210 64.5 186 Q58 162 58 146 Q72 145 92 156 Q112 167 129.5 184.5 Q147 202 158.5 224 Q170 246 168 267 Q168 271 162.5 280.5 Q157 290 147 289 Z " />
<glyph glyph-name="f" unicode="f" horiz-adv-x="221" d="M249 605 Q256 605 262.5 600 Q269 595 274.5 587.5 Q280 580 283.5 572 Q287 564 287 558 Q288 531 284.5 519 Q281 507 274.5 504.5 Q268 502 259 505.5 Q250 509 240.5 512.5 Q231 516 221 517 Q211 518 203 510 Q164 472 140 433 Q116 394 103.5 349.5 Q91 305 86 253 Q81 201 80 136 Q82 137 85.5 137 Q89 137 91 137 Q94 137 110.5 139 Q127 141 148 150 Q169 159 191 176.5 Q213 194 228 225 Q243 248 249 252.5 Q255 257 255 250 Q255 243 249.5 228.5 Q244 214 237 201 Q222 174 201.5 156.5 Q181 139 167 133 Q149 125 142.5 122.5 Q136 120 135 118.5 Q134 117 138 115 Q142 113 145 108 Q160 88 167.5 64 Q175 40 177.5 14 Q180 -12 179 -38.5 Q178 -65 176 -90 Q175 -100 174 -114 Q173 -128 172 -143 Q171 -158 170 -172 Q169 -186 168 -196 Q167 -207 163.5 -223 Q160 -239 155 -254 Q150 -269 142.5 -280 Q135 -291 125 -292 Q115 -293 103 -292 Q91 -291 79 -286.5 Q67 -282 57.5 -273.5 Q48 -265 42 -251 Q36 -237 29 -215 Q22 -193 16 -158.5 Q10 -124 5.5 -73.5 Q1 -23 0 48 Q-1 111 2 177 Q5 243 14.5 305 Q24 367 41.5 421.5 Q59 476 87 517 Q115 558 155 581.5 Q195 605 249 605 Z M79 84 Q78 54 79 16.5 Q80 -21 81.5 -59.5 Q83 -98 85.5 -134.5 Q88 -171 91.5 -199.5 Q95 -228 99 -245.5 Q103 -263 108 -263 Q115 -263 120.5 -251.5 Q126 -240 129.5 -222 Q133 -204 135.5 -182.5 Q138 -161 139 -143 Q140 -131 141.5 -109 Q143 -87 144.5 -61.5 Q146 -36 145.5 -8.5 Q145 19 141.5 43.5 Q138 68 131 86 Q124 104 111 111 Q96 119 89 124 Q82 129 80 131 Q79 120 79 108 Q79 96 79 84 Z " />
<glyph glyph-name="g" unicode="g" horiz-adv-x="257" d="M302 223 Q304 220 305 217.5 Q306 215 308 212 Q304 209 303 204 Q302 199 298 195 Q270 135 245 95 Q220 55 212 46 Q213 14 219 -22 Q225 -58 226.5 -94.5 Q228 -131 219.5 -165 Q211 -199 182 -225 Q166 -238 146 -248 Q126 -258 103 -257 Q86 -256 71 -251 Q56 -246 46 -235 Q36 -224 33.5 -206 Q31 -188 39 -161 Q42 -149 53 -127.5 Q64 -106 78.5 -83.5 Q93 -61 109 -41 Q125 -21 137 -12 Q137 5 136.5 22.5 Q136 40 137 60 Q132 58 128 53 Q124 48 119.5 41.5 Q115 35 108 29 Q101 23 90 20 Q64 14 45 28.5 Q26 43 14 69 Q2 95 -3 127 Q-8 159 -5 187 Q1 244 35 289.5 Q69 335 124 355 Q129 357 134.5 359 Q140 361 145 359 Q150 357 154 354 Q158 351 161 347 Q166 342 168 337.5 Q170 333 170 324 Q170 314 158 309 Q146 306 134 297 Q122 288 111.5 276 Q101 264 93 251 Q85 238 80 226 Q69 205 66 174 Q63 143 63 117 Q63 107 64 94 Q65 81 67.5 68.5 Q70 56 74.5 47 Q79 38 86 36 Q93 39 99.5 46.5 Q106 54 111 61 Q118 69 126.5 86 Q135 103 137 115 Q140 124 139.5 138 Q139 152 140 166.5 Q141 181 144.5 193 Q148 205 159 211 Q160 212 167.5 211.5 Q175 211 183.5 208 Q192 205 199 199 Q206 193 207 185 Q207 158 206 129 Q205 100 210 65 Q217 71 230.5 93.5 Q244 116 258 142 Q272 168 284.5 191 Q297 214 302 223 Z M94 -232 Q113 -232 120.5 -209.5 Q128 -187 130 -155.5 Q132 -124 132 -89 Q132 -54 137 -30 Q134 -32 120.5 -52.5 Q107 -73 92.5 -99 Q78 -125 66.5 -150 Q55 -175 56 -187 Q56 -197 57 -202 Q60 -215 68.5 -223.5 Q77 -232 94 -232 Z " />
<glyph glyph-name="h" unicode="h" horiz-adv-x="351" d="M85 314 Q86 316 86.5 318 Q87 320 88 322 Q94 335 99.5 357 Q105 379 109.5 401.5 Q114 424 116.5 442.5 Q119 461 120 468 Q120 475 120.5 486 Q121 497 121 507.5 Q121 518 121 527 Q121 536 121 540 Q118 555 112 555 L111 555 Q103 555 100.5 539.5 Q98 524 96 514 Q96 509 95 488.5 Q94 468 93 441.5 Q92 415 90 387 Q88 359 86 339 Q86 334 85.5 328 Q85 322 85 314 Z M109 585 Q133 585 142 563.5 Q151 542 151.5 512 Q152 482 147 451 Q142 420 138 402 Q134 383 128 364 Q122 345 114.5 327.5 Q107 310 99.5 295 Q92 280 86 270 Q87 260 87 244.5 Q87 229 87.5 212 Q88 195 89.5 179 Q91 163 95 154 Q96 152 100.5 163 Q105 174 110 182 Q113 187 122 195.5 Q131 204 142.5 212 Q154 220 166.5 226 Q179 232 188 232 L189 232 Q208 230 222.5 218.5 Q237 207 245 185 Q249 174 252.5 159 Q256 144 259 128 Q262 112 265.5 97 Q269 82 272 70 Q278 48 284 40.5 Q290 33 296 33 L298 33 Q305 33 312.5 42.5 Q320 52 327.5 67 Q335 82 341 99.5 Q347 117 351 134 Q359 167 366.5 194 Q374 221 379 226 Q380 227 381 227 Q386 227 386.5 214.5 Q387 202 379 181 Q374 169 367 147 Q360 125 351.5 101.5 Q343 78 334 57 Q325 36 317 26 Q309 17 303 11 Q297 5 292 1 Q287 -3 281 -5.5 Q275 -8 267 -11 Q258 -14 248 -14 Q234 -14 221.5 -6.5 Q209 1 198 20 Q184 46 180 64.5 Q176 83 176 110 Q176 123 175 139.5 Q174 156 172 170 Q170 184 166.5 194 Q163 204 157 204 L155 204 Q149 202 143 195.5 Q137 189 132.5 181.5 Q128 174 124.5 166 Q121 158 120 153 Q119 148 116 134.5 Q113 121 109.5 103.5 Q106 86 103.5 69 Q101 52 100 41 Q99 19 99 -5 Q99 -29 90 -38 Q87 -42 81.5 -50.5 Q76 -59 70.5 -67 Q65 -75 59 -81.5 Q53 -88 48 -88 Q43 -88 40 -81 Q30 -62 18.5 -12.5 Q7 37 2 97 Q0 119 -1.5 163.5 Q-3 208 -1.5 262 Q0 316 5.5 373.5 Q11 431 23.5 478 Q36 525 56.5 555 Q77 585 109 585 Z " />
<glyph glyph-name="i" unicode="i" horiz-adv-x="164" d="M191 207 Q197 221 201 225 Q205 229 206.5 225.5 Q208 222 207 212.5 Q206 203 200 189 Q194 175 187 155.5 Q180 136 171.5 116 Q163 96 153.5 78 Q144 60 133 49 Q127 43 114.5 40.5 Q102 38 87.5 39.5 Q73 41 60 45 Q47 49 40 56 Q26 70 14.5 103.5 Q3 137 1 192 Q0 220 3 238 Q6 256 10 266.5 Q14 277 18 282 Q22 287 24 288 Q27 290 35 290 Q43 290 51.5 288.5 Q60 287 67.5 283.5 Q75 280 78 274 Q83 262 81.5 242 Q80 222 78 202 Q77 182 80 162.5 Q83 143 86 116 Q88 100 94 87.5 Q100 75 108 69 Q116 63 124.5 65 Q133 67 141 80 Q156 106 168 142.5 Q180 179 191 207 Z M15 359 Q4 367 3 372 Q2 377 12 389 Q21 401 32 407.5 Q43 414 52.5 415.5 Q62 417 69 415.5 Q76 414 79 411 Q85 405 81 389 Q77 373 68 359 Q59 345 42.5 348 Q26 351 15 359 Z " />
<glyph glyph-name="j" unicode="j" horiz-adv-x="156" d="M66 418 Q58 406 51.5 399 Q45 392 36 386 Q32 383 22 383.5 Q12 384 0 387 Q-12 390 -22.5 394.5 Q-33 399 -37 404 Q-24 410 -11 426.5 Q2 443 15 456.5 Q28 470 42 473.5 Q56 477 70 458 Q78 453 74.5 438.5 Q71 424 66 418 Z M181 236 Q162 206 146.5 173 Q131 140 104 117 Q99 134 94.5 155 Q90 176 85 197 Q80 218 74 238 Q68 258 61 274 Q56 285 46 290 Q36 295 25 299 Q22 300 16.5 301 Q11 302 5 300 Q13 272 15.5 242 Q18 212 20 182 Q23 145 26 109 Q29 73 27 35 Q-10 2 -32.5 -33.5 Q-55 -69 -69 -100 Q-72 -109 -75.5 -118 Q-79 -127 -81 -136 L-84 -151 Q-87 -176 -85.5 -203 Q-84 -230 -74 -251 Q-64 -272 -44.5 -282.5 Q-25 -293 7 -285 Q15 -283 23 -281 Q31 -279 39 -274 Q73 -252 90.5 -211 Q108 -170 114.5 -123 Q121 -76 119.5 -29.5 Q118 17 114 51 Q114 60 111 74 Q108 88 112 94 Q117 101 126.5 115.5 Q136 130 146.5 146 Q157 162 166 177 Q175 192 180 199 Q184 206 185.5 214 Q187 222 187 228.5 Q187 235 185.5 237.5 Q184 240 181 236 Z M25 -125 Q25 -130 24.5 -134 Q24 -138 24 -143 Q24 -155 24 -169.5 Q24 -184 22.5 -198.5 Q21 -213 17 -226 Q13 -239 6 -247 Q3 -251 -2.5 -256 Q-8 -261 -15 -263 Q-22 -265 -29.5 -262 Q-37 -259 -45 -246 Q-47 -240 -50.5 -232.5 Q-54 -225 -56 -215 Q-62 -188 -61.5 -161 Q-61 -134 -51.5 -106.5 Q-42 -79 -23 -50.5 Q-4 -22 28 8 Q27 -2 27 -12 Q27 -22 27 -32 Q27 -54 27 -80.5 Q27 -107 25 -125 Z " />
<glyph glyph-name="k" unicode="k" horiz-adv-x="322" d="M106 325 Q100 311 96.5 303 Q93 295 89 291 Q91 264 92 250 Q93 241 94 233 Q100 242 111.5 253 Q123 264 136.5 273 Q150 282 165 288 Q180 294 194 293 Q226 291 238 278 Q250 265 251 251 Q253 237 243.5 225 Q234 213 219 203 Q211 198 204.5 195 Q198 192 193.5 190 Q189 188 188 186 Q187 184 191 181 Q196 177 205.5 153 Q215 129 225.5 100 Q236 71 246.5 45 Q257 19 265 11 Q273 3 278 0.5 Q283 -2 287 0 Q291 2 294.5 7.5 Q298 13 303 21 Q308 29 315.5 53.5 Q323 78 330 106.5 Q337 135 342.5 163 Q348 191 350 207 Q353 239 355 231 Q357 223 358 185 Q358 173 355 151 Q352 129 347 104 Q342 79 334.5 53 Q327 27 317 6 Q307 -15 296 -28 Q285 -41 272 -40 Q252 -42 227.5 -35 Q203 -28 184 -2 Q178 6 172.5 29 Q167 52 162 78 Q157 104 152.5 126.5 Q148 149 144 156 Q140 162 134 169.5 Q128 177 123.5 184 Q119 191 119.5 197 Q120 203 129 206 Q148 213 158 220.5 Q168 228 177 245 Q181 254 177 256.5 Q173 259 164.5 256.5 Q156 254 145 247 Q134 240 125 229 Q119 222 115 204 Q111 186 108 162.5 Q105 139 103 113.5 Q101 88 100 64.5 Q99 41 99 23 Q99 5 100 -2 Q101 -13 92 -17.5 Q83 -22 71 -21.5 Q59 -21 47.5 -16 Q36 -11 31 -2 Q25 58 15 128 Q5 198 0.5 270 Q-4 342 1 412.5 Q6 483 30 545 Q35 558 45.5 574 Q56 590 69 601 Q82 612 96.5 616 Q111 620 125 610 Q135 603 138.5 582 Q142 561 141.5 533 Q141 505 137 473 Q133 441 127.5 412 Q122 383 116 359.5 Q110 336 106 325 Z M84 414 Q84 400 84.5 378 Q85 356 87 333 Q107 390 118 450.5 Q129 511 125 565 Q125 569 122.5 574.5 Q120 580 116 583 Q112 586 107.5 584.5 Q103 583 98 573 Q90 558 87 538 Q84 518 83.5 496 Q83 474 83.5 453 Q84 432 84 414 Z " />
<glyph glyph-name="l" unicode="l" horiz-adv-x="171" d="M123 419 Q118 382 103.5 345 Q89 308 78 285 Q77 247 77 200 Q77 153 79 111 Q81 69 87.5 38.5 Q94 8 96 2 Q101 -16 107 -18.5 Q113 -21 124 -15 Q136 -9 146.5 16 Q157 41 166.5 70.5 Q176 100 183 127.5 Q190 155 194 168 Q198 180 203.5 194.5 Q209 209 213 217.5 Q217 226 219 225.5 Q221 225 219 208 Q217 191 208 157 Q199 123 187 87 Q175 51 161.5 20 Q148 -11 137 -22 Q129 -30 118 -36 Q107 -42 94 -43.5 Q81 -45 66.5 -40.5 Q52 -36 38 -22 Q26 -11 18 19.5 Q10 50 4.5 90 Q-1 130 -4 174.5 Q-7 219 -8.5 258 Q-10 297 -10.5 326 Q-11 355 -10 365 Q-9 396 -7.5 437 Q-6 478 3 514 Q12 550 31 575 Q50 600 88 600 Q107 600 116 582 Q125 564 127.5 536.5 Q130 509 128 477.5 Q126 446 123 419 Z M80 353 Q80 350 79.5 346 Q79 342 79 337 Q84 351 88 373 Q92 395 94.5 417.5 Q97 440 98.5 458.5 Q100 477 100 484 Q100 491 99.5 502 Q99 513 98.5 523.5 Q98 534 97.5 543 Q97 552 96 556 Q93 571 85 570 Q77 569 75.5 553.5 Q74 538 73 528 Q73 523 74.5 502.5 Q76 482 77.5 455.5 Q79 429 80 401 Q81 373 80 353 Z " />
<glyph glyph-name="m" unicode="m" horiz-adv-x="480" d="M2 335 Q8 337 22 335.5 Q36 334 50.5 328 Q65 322 75.5 310.5 Q86 299 85 282 Q90 291 97 299 Q103 306 110.5 311.5 Q118 317 128 319 Q147 322 160 318 Q173 314 182 308 Q191 303 198.5 295 Q206 287 207 282 Q212 290 217 298 Q222 305 226 311 Q230 317 235 322 Q243 330 257.5 345.5 Q272 361 289 366 Q305 371 326.5 372 Q348 373 362 366 Q378 358 385 343 Q392 328 394.5 310 Q397 292 396 272 Q395 252 395 235 Q395 228 394.5 206.5 Q394 185 393.5 160 Q393 135 393 112.5 Q393 90 394 80 Q395 71 398 55 Q401 39 407.5 28 Q414 17 424.5 17.5 Q435 18 450 42 Q465 66 475 92.5 Q485 119 491 143.5 Q497 168 500.5 187.5 Q504 207 506 216 Q511 235 520 234 Q529 233 524 210 Q522 198 516 176 Q510 154 502 130 Q494 106 486 84 Q478 62 471 51 Q457 29 441 14.5 Q425 0 407 0 Q398 0 387 3 Q376 6 365.5 12 Q355 18 346.5 26.5 Q338 35 334 47 Q326 70 322 105 Q318 140 320 178 Q321 196 324 222 Q327 248 327.5 272.5 Q328 297 326 315 Q324 333 315 336 Q301 340 287.5 330 Q274 320 262.5 304 Q251 288 243.5 271 Q236 254 234 244 Q232 235 230.5 223.5 Q229 212 228 200 Q227 188 227 177.5 Q227 167 228 160 Q229 153 231.5 142 Q234 131 236.5 119.5 Q239 108 239 99.5 Q239 91 235 88 Q231 85 221.5 84 Q212 83 201.5 85 Q191 87 182 93 Q173 99 170 110 Q163 133 159 159.5 Q155 186 157 218 Q158 233 159.5 249.5 Q161 266 161 279 Q161 292 157.5 300.5 Q154 309 146 309 Q140 307 129 294 Q118 281 114 264 Q113 261 111 248 Q109 235 106 217 Q103 199 100 178.5 Q97 158 94.5 139.5 Q92 121 91 107.5 Q90 94 90 90 Q91 74 91.5 61.5 Q92 49 79 48 Q47 45 32 64 Q17 83 11 110 Q5 137 5.5 165.5 Q6 194 7 211 Q8 217 9 232.5 Q10 248 11 264.5 Q12 281 12.5 294.5 Q13 308 13 311 Q13 317 6 325 Q-1 333 2 335 Z " />
<glyph glyph-name="n" unicode="n" horiz-adv-x="369" d="M0 306 Q-2 307 10 310.5 Q22 314 37 315 Q51 316 56.5 310 Q62 304 67 298 Q69 295 72.5 288.5 Q76 282 79 275 Q83 267 86 258 L90 262 Q92 264 94.5 266.5 Q97 269 100 274 Q121 310 154.5 324 Q188 338 218 338 Q242 338 255 322.5 Q268 307 273.5 282.5 Q279 258 279 227.5 Q279 197 276 168 Q273 139 270 114.5 Q267 90 266 77 Q265 54 267.5 34.5 Q270 15 291 15 Q304 15 318.5 39 Q333 63 346 94.5 Q359 126 369.5 156.5 Q380 187 386 200 Q397 226 401.5 222.5 Q406 219 398 199 Q373 133 357.5 91 Q342 49 328.5 26 Q315 3 300.5 -5.5 Q286 -14 263 -14 Q240 -14 225.5 -3.5 Q211 7 203 22 Q195 37 192 52 Q189 67 188 76 Q186 95 184.5 117 Q183 139 182 157 Q182 166 182.5 183 Q183 200 184 218 Q185 236 185.5 251 Q186 266 186 272 Q185 283 185.5 294.5 Q186 306 175 306 Q150 300 132 279 Q114 258 102.5 227.5 Q91 197 87 160.5 Q83 124 86 89 Q88 66 84 59 Q80 52 61 51 Q42 49 29 60.5 Q16 72 10 86 Q4 100 5 122 Q6 144 9 169 Q12 194 15.5 219 Q19 244 19 265 Q19 281 14.5 288.5 Q10 296 0 306 Z " />
<glyph glyph-name="o" unicode="o" horiz-adv-x="270" d="M137 340 Q135 330 129.5 319 Q124 308 116 296 Q108 284 97 257 Q86 230 78 204 Q74 191 71 170.5 Q68 150 67 129 Q66 108 67 89.5 Q68 71 72 61 Q76 51 81 41.5 Q86 32 92.5 24.5 Q99 17 107.5 13 Q116 9 127 11 Q138 12 149 21 Q160 30 169.5 42.5 Q179 55 187 68.5 Q195 82 199 94 Q204 106 208.5 126.5 Q213 147 216 169 Q183 174 156 199 Q129 224 129 269 Q129 277 131.5 285.5 Q134 294 138.5 301 Q143 308 149 312 Q155 316 162 315 Q175 313 182 313 Q189 313 196 310 Q203 308 208 305 Q213 302 219 289 Q226 275 232.5 253 Q239 231 237 204 Q236 199 236 195.5 Q236 192 236 187 Q254 189 268.5 198 Q283 207 287 221 Q289 228 293 231.5 Q297 235 300.5 234 Q304 233 305 226 Q306 219 302 206 Q295 187 276 177.5 Q257 168 234 168 Q230 134 221.5 99.5 Q213 65 196 39.5 Q179 14 152 3.5 Q125 -7 84 7 Q70 12 56.5 21 Q43 30 31.5 46 Q20 62 12 87 Q4 112 0 149 Q0 171 2 198 Q4 225 10 252.5 Q16 280 26 306 Q36 332 53 352 Q74 371 80.5 373.5 Q87 376 92 374 Q94 372 102 368.5 Q110 365 118 360 Q126 355 132 349.5 Q138 344 137 340 Z M217 237 Q212 264 198.5 277.5 Q185 291 175 289 Q170 288 166.5 283.5 Q163 279 161 273 Q159 267 158.5 261.5 Q158 256 158 253 Q164 221 181 206 Q198 191 218 188 Q219 202 219 214.5 Q219 227 217 237 Z " />
<glyph glyph-name="q" unicode="q" horiz-adv-x="298" d="M257 342 Q222 333 189 301.5 Q156 270 129.5 228 Q103 186 86.5 140 Q70 94 68 55 Q67 37 72 25.5 Q77 14 91 12 Q102 13 114.5 27.5 Q127 42 138 59.5 Q149 77 156.5 93 Q164 109 164 114 Q164 119 165.5 136 Q167 153 170 171.5 Q173 190 178.5 205 Q184 220 193 222 Q202 223 212 222.5 Q222 222 230 218 Q238 214 243 206.5 Q248 199 247 186 Q245 172 242.5 143 Q240 114 238 82 Q243 85 246 90 Q249 94 259 107 Q269 120 281.5 138 Q294 156 306.5 178.5 Q319 201 327 226 Q335 251 339 254 Q343 257 343.5 248.5 Q344 240 341 225 Q338 210 332 198 Q326 186 315 167 Q304 148 291.5 128.5 Q279 109 268 92.5 Q257 76 251 69 Q254 61 260.5 38 Q267 15 274.5 -12.5 Q282 -40 288 -68 Q294 -96 295 -113 Q296 -133 296 -158.5 Q296 -184 294 -207.5 Q292 -231 288 -250 Q284 -269 278 -277 Q272 -285 264 -288.5 Q256 -292 247.5 -292.5 Q239 -293 231.5 -292 Q224 -291 219 -291 Q214 -291 204.5 -286 Q195 -281 185.5 -267.5 Q176 -254 168 -231 Q160 -208 157 -172 Q154 -135 154 -108 Q154 -81 154.5 -61.5 Q155 -42 156 -27.5 Q157 -13 157 -2 Q157 9 157 21.5 Q157 34 158 45 Q158 57 159 70 Q154 59 147.5 47 Q141 35 133.5 24.5 Q126 14 116.5 6.5 Q107 -1 95 -1 Q84 -1 68 0.5 Q52 2 37 11.5 Q22 21 10.5 40.5 Q-1 60 -2 95 Q1 166 25 217.5 Q49 269 79.5 303.5 Q110 338 139.5 355.5 Q169 373 181 376 Q194 379 200.5 380.5 Q207 382 210 381.5 Q213 381 214.5 379 Q216 377 219 374 Q222 371 228.5 366.5 Q235 362 241.5 357.5 Q248 353 252.5 349 Q257 345 257 342 Z M233 -12 Q232 -27 231.5 -50 Q231 -73 231 -98 Q231 -123 231.5 -147 Q232 -171 233 -188 Q234 -205 236.5 -222 Q239 -239 243 -250.5 Q247 -262 251.5 -265.5 Q256 -269 260 -260 Q264 -251 268.5 -234.5 Q273 -218 276 -198.5 Q279 -179 280 -159.5 Q281 -140 279 -124 Q277 -109 274 -86 Q271 -63 266.5 -38 Q262 -13 255 10.5 Q248 34 236 51 Q235 31 234 14.5 Q233 -2 233 -12 Z " />
<glyph glyph-name="r" unicode="r" horiz-adv-x="264" d="M45 336 Q59 334 70.5 325 Q82 316 81 302 Q81 295 80.5 281 Q80 267 80.5 251.5 Q81 236 84 222.5 Q87 209 94 204 Q101 199 112 193 Q123 187 133.5 180.5 Q144 174 153.5 168.5 Q163 163 167 160 Q176 152 177 140 Q178 128 175 114.5 Q172 101 167.5 87 Q163 73 163 60 Q163 52 162 28.5 Q161 5 163 -19 Q165 -43 171 -60 Q177 -77 191 -71 Q200 -68 210 -49 Q220 -30 230.5 -2.5 Q241 25 251 57.5 Q261 90 269.5 120.5 Q278 151 284.5 176.5 Q291 202 294 215 Q298 234 300 234.5 Q302 235 301.5 225.5 Q301 216 299 201 Q297 186 294 175 Q291 164 285 139 Q279 114 272.5 85.5 Q266 57 259 31 Q252 5 247 -8 Q242 -21 237 -36 Q232 -51 226 -65.5 Q220 -80 212 -93.5 Q204 -107 191 -117 Q138 -161 106 -131 Q91 -116 80.5 -85.5 Q70 -55 68 -18 Q67 0 68.5 24 Q70 48 71.5 71.5 Q73 95 75 114 Q77 133 78 141 Q79 148 75 153.5 Q71 159 65 163 Q59 167 52.5 169 Q46 171 43 173 Q40 174 32.5 180.5 Q25 187 17.5 196 Q10 205 4.5 216 Q-1 227 0 238 Q1 249 3 266.5 Q5 284 9.5 300 Q14 316 22.5 327 Q31 338 45 336 Z " />
<glyph glyph-name="s" unicode="s" horiz-adv-x="221" d="M76 353 Q109 349 108.5 329.5 Q108 310 93 288 Q85 276 78 257.5 Q71 239 73 227 Q80 198 100.5 182.5 Q121 167 143 153 Q160 167 177 181 Q194 195 211 209 Q219 216 228.5 220 Q238 224 243.5 225 Q249 226 248.5 223 Q248 220 238 213 Q219 199 197 183 Q175 167 152 147 Q163 140 172 132 Q181 124 188 113 Q197 98 201 73.5 Q205 49 196 19 Q191 4 182.5 -15 Q174 -34 162.5 -51.5 Q151 -69 137.5 -83 Q124 -97 109 -103 Q94 -108 76.5 -108.5 Q59 -109 43 -105 Q27 -101 14 -94 Q1 -87 -6 -78 Q-21 -58 -18.5 -35 Q-16 -12 -1 9 Q21 38 47 64.5 Q73 91 101 117 Q98 124 93 131 Q82 144 65.5 159 Q49 174 35 191 Q21 208 13.5 227 Q6 246 14 267 Q28 311 45 332 Q62 353 76 353 Z M22 -19 Q22 -22 21.5 -30 Q21 -38 23 -45 Q25 -52 31 -57 Q37 -62 49 -59 Q69 -55 83 -36 Q97 -17 104 7.5 Q111 32 111.5 58.5 Q112 85 105 106 Q72 74 48.5 42 Q25 10 22 -19 Z " />
<glyph glyph-name="u" unicode="u" horiz-adv-x="315" d="M2 380 Q-4 383 5.5 384 Q15 385 29 381 Q43 377 56 367 Q69 357 72 338 Q77 301 77 272 Q77 243 78 222 Q79 212 81 192.5 Q83 173 86.5 152.5 Q90 132 95 115.5 Q100 99 107 94 Q121 84 130.5 88.5 Q140 93 145 107 Q148 114 151.5 130 Q155 146 159 164 Q163 182 165.5 197 Q168 212 169 218 Q170 224 170.5 235 Q171 246 171 259.5 Q171 273 170.5 286 Q170 299 169 310 Q168 320 179 328.5 Q190 337 203.5 340 Q217 343 229 340 Q241 337 242 326 Q244 304 247.5 278.5 Q251 253 250 228 Q247 151 257 124.5 Q267 98 279 109 Q284 114 289.5 125 Q295 136 300 149.5 Q305 163 310 178.5 Q315 194 320 209 Q328 235 332 225.5 Q336 216 325 181 Q314 145 301.5 115.5 Q289 86 273 79 Q265 75 253 76.5 Q241 78 229 82.5 Q217 87 206.5 93.5 Q196 100 192 107 Q187 114 185 121.5 Q183 129 182 137 Q181 145 182 154 Q177 136 171.5 118 Q166 100 157 85 Q148 70 133 61.5 Q118 53 94 55 Q85 56 71.5 60.5 Q58 65 44.5 76.5 Q31 88 20.5 109 Q10 130 8 164 Q6 198 6 235 Q6 272 6 303.5 Q6 335 5.5 356.5 Q5 378 2 380 Z " />
<glyph glyph-name="v" unicode="v" horiz-adv-x="280" d="M-10 289 Q-14 296 -7 297.5 Q0 299 10.5 297.5 Q21 296 31.5 292 Q42 288 46 284 Q69 256 80.5 221 Q92 186 104 141 Q106 134 110.5 117.5 Q115 101 121 81 Q127 61 134 39.5 Q141 18 147 2 Q153 -14 157.5 -22.5 Q162 -31 164 -26 Q167 -18 172.5 9.5 Q178 37 185 69 Q192 101 198 129 Q204 157 207 165 Q213 182 213 201.5 Q213 221 217 228 Q219 231 226 235 Q233 239 240.5 239.5 Q248 240 253 236.5 Q258 233 257 221 Q256 209 254 198 Q252 187 256 183 Q260 179 272.5 183.5 Q285 188 313 208 Q325 217 329.5 216 Q334 215 333 210 Q332 205 328 198.5 Q324 192 319 188 Q289 166 273.5 158.5 Q258 151 239 159 Q233 148 226.5 119.5 Q220 91 211.5 56.5 Q203 22 192.5 -14.5 Q182 -51 169 -76.5 Q156 -102 140.5 -112.5 Q125 -123 106 -107 Q95 -98 83.5 -75 Q72 -52 65 -28 Q63 -20 58 -0.5 Q53 19 47.5 44 Q42 69 35.5 96.5 Q29 124 23 148.5 Q17 173 12.5 191.5 Q8 210 6 216 Q3 225 0 237.5 Q-3 250 -5 261 Q-8 274 -10 289 Z " />
<glyph glyph-name="w" unicode="w" horiz-adv-x="422" d="M438 206 Q452 218 456.5 218 Q461 218 460 212 Q459 206 454 198 Q449 190 444 186 Q414 163 397 161.5 Q380 160 364 177 Q357 145 345 106 Q333 67 325 29 Q320 7 310.5 -17.5 Q301 -42 289 -48 Q265 -60 247.5 -55 Q230 -50 218 -34 Q206 -18 198.5 4 Q191 26 187 49 Q187 56 185.5 63 Q184 70 184 81 Q184 85 184 85 Q178 76 172.5 65 Q167 54 160.5 43.5 Q154 33 145 25 Q136 17 123 15 Q112 13 102 15 Q64 18 46 39.5 Q28 61 22.5 93.5 Q17 126 19.5 165 Q22 204 23.5 241 Q25 278 21 310 Q17 342 0 360 Q8 360 15 360.5 Q22 361 29 361 Q37 362 44.5 361.5 Q52 361 59 358 Q67 355 74 347.5 Q81 340 86 330 Q91 320 94 308 Q97 296 99 286 Q103 259 102 232.5 Q101 206 100 180.5 Q99 155 99 129.5 Q99 104 104 77 Q105 69 107.5 63 Q110 57 115 50 Q118 47 121 46 Q126 46 135 58 Q144 70 153 85.5 Q162 101 169 116 Q176 131 177 137 Q180 152 180 171.5 Q180 191 178.5 211.5 Q177 232 175 252.5 Q173 273 171 291 Q170 296 167 302 Q164 308 161.5 313.5 Q159 319 158 323 Q157 327 161 329 Q191 327 209 326 Q227 325 237 318.5 Q247 312 250 297 Q253 282 253 253 Q253 239 253 226.5 Q253 214 255 201 Q256 194 256.5 179 Q257 164 257.5 147 Q258 130 258 114.5 Q258 99 258 93 Q258 80 259 68 Q260 56 261 44 Q262 33 265 18.5 Q268 4 273.5 -4 Q279 -12 285 -8 Q291 -4 298 21 Q300 28 306 56 Q312 84 318.5 115.5 Q325 147 331.5 175 Q338 203 341 212 Q344 220 345 229.5 Q346 239 346.5 248 Q347 257 348 264.5 Q349 272 351 275 Q353 278 360.5 281.5 Q368 285 376 286 Q384 287 389 283 Q394 279 391 267 Q386 249 382 230 Q378 211 381 199.5 Q384 188 396.5 188 Q409 188 438 206 Z " />
<glyph glyph-name="x" unicode="x" horiz-adv-x="337" d="M19 44 L64 85 Q66 86 68 88 Q70 90 72 92.5 Q74 95 78 98 Q62 139 49 173.5 Q36 208 31 218 Q26 227 18 242.5 Q10 258 0.5 272 Q-9 286 -20 296 Q-31 306 -41 304 Q-49 302 -39.5 309 Q-30 316 -13.5 322 Q3 328 23 328 Q43 328 57 314 Q70 299 80 290.5 Q90 282 99 270.5 Q108 259 117.5 242 Q127 225 139 194 Q141 188 143.5 180 Q146 172 149 163 Q157 169 162.5 174 Q168 179 172 182 Q181 189 198.5 203.5 Q216 218 235 233 Q254 248 270 260.5 Q286 273 291 276 Q302 282 313 282.5 Q324 283 324 276 Q324 269 320 265.5 Q316 262 303 257 Q297 255 279 240 Q261 225 239 205.5 Q217 186 194.5 166 Q172 146 158 134 Q167 106 178 76 Q189 46 203 21.5 Q217 -3 234.5 -17 Q252 -31 274 -26 Q289 -23 301.5 -1.5 Q314 20 325 51 Q336 82 346.5 118.5 Q357 155 366 189 Q370 202 372 205.5 Q374 209 375 205.5 Q376 202 375.5 194.5 Q375 187 373 180 Q368 162 363.5 136 Q359 110 352.5 82 Q346 54 337.5 26 Q329 -2 318 -24.5 Q307 -47 292 -61.5 Q277 -76 258 -77 Q241 -79 222.5 -76 Q204 -73 186 -65.5 Q168 -58 152.5 -45.5 Q137 -33 127 -15 Q119 -1 108.5 24 Q98 49 86 78 Q69 65 54.5 53 Q40 41 33 33 Q25 24 18.5 22 Q12 20 9 22.5 Q6 25 8 30.5 Q10 36 19 44 Z " />
<glyph glyph-name="y" unicode="y" horiz-adv-x="329" d="M-17 360 Q-7 360 4 359.5 Q15 359 24.5 357 Q34 355 41.5 349.5 Q49 344 52 334 Q55 324 59 304 Q63 284 68 259 Q73 234 79 207 Q85 180 91.5 156.5 Q98 133 105.5 116 Q113 99 122 94 Q136 86 139 89.5 Q142 93 147 102 Q150 106 158.5 122 Q167 138 176.5 157.5 Q186 177 193 196 Q200 215 200 226 Q200 232 200 244 Q200 256 201 268 Q202 280 204.5 289.5 Q207 299 211 302 Q214 304 222 304 Q230 304 239 301 Q248 298 255.5 292 Q263 286 265 275 Q267 254 272 213.5 Q277 173 282 127 Q282 120 283 117 Q303 146 318.5 172 Q334 198 338 207 Q339 210 343.5 213.5 Q348 217 352 217.5 Q356 218 357 214 Q358 210 353 199 Q340 173 322.5 148.5 Q305 124 285 99 Q292 58 297 9.5 Q302 -39 289 -97 Q273 -165 255 -202.5 Q237 -240 220 -254 Q211 -261 193.5 -265.5 Q176 -270 157 -270 Q138 -270 121 -264.5 Q104 -259 97 -246 Q89 -233 87.5 -215 Q86 -197 88 -178 Q90 -159 95 -141 Q100 -123 107 -109 Q113 -97 124.5 -79 Q136 -61 150.5 -40.5 Q165 -20 181.5 0.5 Q198 21 213 38 Q213 43 212.5 46.5 Q212 50 212 55 Q206 109 204.5 130.5 Q203 152 203 155 Q202 146 196 130 Q190 114 181.5 99 Q173 84 162.5 73 Q152 62 143 62 Q129 62 111.5 64.5 Q94 67 76.5 72 Q59 77 44.5 87 Q30 97 23 112 Q15 127 10.5 150.5 Q6 174 3 198 Q0 222 -1 243 Q-2 264 -3 276 Q-5 287 -7 302 Q-9 317 -11 330 Q-14 345 -17 360 Z M118 -151 Q115 -166 114.5 -187.5 Q114 -209 121 -220 Q124 -226 133 -231.5 Q142 -237 152 -237.5 Q162 -238 172.5 -232 Q183 -226 189 -209 Q194 -194 199 -168 Q204 -142 207.5 -111 Q211 -80 213 -46.5 Q215 -13 214 16 Q180 -24 153 -65 Q126 -106 118 -151 Z " />
<glyph glyph-name="z" unicode="z" horiz-adv-x="323" d="M347 221 Q357 243 361.5 246 Q366 249 366 240 Q366 231 361 213.5 Q356 196 347 178 Q333 149 314 122.5 Q295 96 272 72 Q278 60 281 46 Q291 8 293.5 -13.5 Q296 -35 295 -48 Q294 -61 290.5 -69.5 Q287 -78 286 -90 Q284 -102 277 -118 Q270 -134 259.5 -151.5 Q249 -169 236.5 -186.5 Q224 -204 212 -218 Q189 -247 158.5 -270.5 Q128 -294 99 -295 Q84 -295 65.5 -292.5 Q47 -290 31.5 -280.5 Q16 -271 6.5 -253.5 Q-3 -236 1 -207 Q4 -182 11 -165 Q18 -148 27 -136 Q36 -124 46 -114.5 Q56 -105 66 -93 Q100 -56 133 -27 Q166 2 198 31 Q197 35 195 41 Q190 52 183.5 65 Q177 78 166 89 Q162 87 156 83 Q140 74 125 75 Q110 76 98 81 Q86 86 78 93.5 Q70 101 68 105 Q66 109 69 114.5 Q72 120 77.5 126 Q83 132 90 137 Q97 142 103 145 Q109 148 118.5 155.5 Q128 163 139 173 Q150 183 161 195 Q172 207 180 219 Q197 244 201 271 Q205 298 204 315 Q203 332 196 344.5 Q189 357 163 360 Q150 361 134 354 Q118 347 103 337 Q88 327 76 316.5 Q64 306 59 300 Q48 288 39 270.5 Q30 253 31 233 Q31 212 23.5 204.5 Q16 197 8 197 Q0 197 1 213.5 Q2 230 8 246 Q21 281 44.5 306.5 Q68 332 94.5 347.5 Q121 363 146.5 370 Q172 377 190 376 Q214 374 230.5 360 Q247 346 256.5 325.5 Q266 305 269 280.5 Q272 256 270 234 Q267 202 254 176.5 Q241 151 219 129 Q245 114 261 91 Q285 118 307 149 Q329 180 347 221 Z M183 -115 Q198 -73 202 -44 Q206 -15 204 6 Q158 -36 115.5 -76 Q73 -116 47 -163 Q41 -174 37.5 -188 Q34 -202 36 -215 Q38 -228 47 -236.5 Q56 -245 75 -243 Q99 -241 129.5 -210 Q160 -179 183 -115 Z " />
<glyph glyph-name="d" unicode="d" horiz-adv-x="308" d="M352 244 Q354 240 355 236.5 Q356 233 358 228 Q353 215 346.5 189 Q340 163 332 131.5 Q324 100 314 66 Q304 32 292 3.5 Q280 -25 265.5 -45 Q251 -65 234 -68 Q214 -73 200 -64 Q186 -55 176 -38.5 Q166 -22 160 -2.5 Q154 17 151 32 Q151 38 151 44.5 Q151 51 150 57 Q150 55 146 48.5 Q142 42 137.5 34 Q133 26 128 19 Q123 12 122 10 Q113 -7 98 -7 Q83 -7 66 -3 Q31 5 8 41 Q-1 61 -5 82 Q-9 103 -12 128 Q-12 157 -7.5 182 Q-3 207 6 230 Q20 265 57.5 279.5 Q95 294 142 299 Q143 307 144 328.5 Q145 350 146 373.5 Q147 397 148.5 417 Q150 437 152 443 Q156 477 162.5 511 Q169 545 180 577 Q184 590 189.5 602 Q195 614 201 625 Q207 633 213 637 Q219 641 230 643 Q236 644 243 643 Q250 642 255 638 Q267 630 272 621 Q277 612 280 598 Q285 570 283 541 Q281 512 280 482 Q279 465 275.5 442 Q272 419 267 395.5 Q262 372 255.5 351 Q249 330 243 316 Q241 310 237.5 304.5 Q234 299 231 292 Q222 269 224 243 Q226 217 224 193 Q223 175 220 142 Q217 109 217 74 Q217 39 221.5 7.5 Q226 -24 240 -39 Q247 -47 258.5 -31.5 Q270 -16 282 13.5 Q294 43 306 80 Q318 117 328 151 Q338 185 344.5 211 Q351 237 352 244 Z M97 36 Q111 52 124 74.5 Q137 97 146 114 Q144 156 140 200 Q136 244 141 280 Q115 280 99 272.5 Q83 265 73.5 245.5 Q64 226 58 193 Q52 160 47 108 Q46 100 47 86.5 Q48 73 51 59.5 Q54 46 60.5 35 Q67 24 77 22 Q83 21 89 27 Q95 33 97 36 Z M225 406 Q224 389 224.5 371.5 Q225 354 225 331 Q225 324 224 322 Q229 333 232.5 346.5 Q236 360 240 374 Q254 425 261.5 479 Q269 533 264 587 Q263 590 261.5 598 Q260 606 258 613.5 Q256 621 253 625.5 Q250 630 246 627 Q235 601 231.5 573.5 Q228 546 227 518 Q227 512 226 505 Q225 498 225 489 Q225 469 225.5 449 Q226 429 225 406 Z " />
<glyph glyph-name="a" unicode="a" horiz-adv-x="269" d="M173 327 Q139 311 108.5 279.5 Q78 248 58 211.5 Q38 175 31 139.5 Q24 104 37 80 Q43 72 53.5 80 Q64 88 75.5 100.5 Q87 113 96 126.5 Q105 140 107 143 Q107 143 111 150.5 Q115 158 120 168.5 Q125 179 130 191 Q135 203 137 213 Q135 221 146 223 Q157 225 178 211 Q187 184 188 163.5 Q189 143 187.5 124 Q186 105 184 85.5 Q182 66 183 39 Q184 31 188.5 29 Q193 27 198.5 30 Q204 33 209.5 38.5 Q215 44 220 51 Q231 67 239.5 89 Q248 111 255.5 133.5 Q263 156 269.5 178 Q276 200 284 217 Q286 218 288.5 219 Q291 220 293 219 Q290 209 284.5 188.5 Q279 168 271 143 Q263 118 253 92 Q243 66 231.5 45.5 Q220 25 207 12.5 Q194 0 181 3 Q164 7 153 12 Q142 17 135.5 26 Q129 35 125.5 50 Q122 65 119 88 Q118 95 117.5 96 Q117 97 117 97 Q117 97 117.5 98.5 Q118 100 118 108 Q106 95 93 82.5 Q80 70 63 62 Q43 60 27.5 67.5 Q12 75 2 88.5 Q-8 102 -13 120 Q-18 138 -17 157 Q-15 193 -1.5 229 Q12 265 32 294 Q52 324 85 346.5 Q118 369 152 382 Q160 385 166.5 384.5 Q173 384 181 384 Q189 384 199 379 Q202 376 205 372 Q208 368 210 364 Q212 360 214.5 356 Q217 352 215 348 Q215 346 210 343.5 Q205 341 198 338 Q191 335 184 332.5 Q177 330 173 327 Z " />
<glyph glyph-name="G" unicode="G" horiz-adv-x="480" d="M-23 500 Q-18 517 -1.5 527 Q15 537 36 542.5 Q57 548 80 550 Q103 552 122 553 Q138 597 158.5 630 Q179 663 202 670 Q208 671 220.5 668.5 Q233 666 247.5 661.5 Q262 657 274.5 651.5 Q287 646 293 641 Q308 630 319.5 619.5 Q331 609 329 590 Q327 576 313.5 567.5 Q300 559 283 554 Q266 549 248.5 546 Q231 543 221 542 Q219 541 214 541 Q201 512 190.5 478 Q180 444 172 409 Q164 374 159 340.5 Q154 307 153 280 Q152 264 152 242 Q152 220 157.5 200 Q163 180 174.5 166 Q186 152 209 152 Q229 152 249.5 166 Q270 180 286.5 201 Q303 222 313.5 247 Q324 272 324 294 Q324 314 327.5 334 Q331 354 335.5 370.5 Q340 387 344 398 Q348 409 349 412 Q354 422 389 410 Q398 407 402.5 400 Q407 393 408.5 384.5 Q410 376 410 367 Q410 358 411 351 Q412 344 414.5 323.5 Q417 303 419.5 279 Q422 255 423 233 Q424 211 424 202 Q423 195 423.5 181 Q424 167 425 149 Q443 163 461 182.5 Q479 202 497 230 Q510 251 513 249 Q516 247 513 235.5 Q510 224 504 208.5 Q498 193 493 187 Q474 164 458 149 Q442 134 426 123 Q426 108 426.5 92.5 Q427 77 427.5 64.5 Q428 52 428.5 43.5 Q429 35 429 32 Q427 7 425 -29.5 Q423 -66 413.5 -102 Q404 -138 384 -167 Q364 -196 327 -205 Q318 -208 309 -208.5 Q300 -209 292 -211 Q229 -222 198.5 -196.5 Q168 -171 175 -104 Q177 -79 186 -56.5 Q195 -34 207 -15.5 Q219 3 232.5 17 Q246 31 257 40 Q275 54 292 65.5 Q309 77 326 87 Q325 103 324.5 120 Q324 137 324 151 Q323 168 323 184 Q321 180 308.5 171.5 Q296 163 276.5 154.5 Q257 146 232.5 139.5 Q208 133 183 134 Q157 134 138 146.5 Q119 159 106 177 Q93 195 85.5 215 Q78 235 76 250 Q74 266 74 296 Q74 326 77 363 Q79 389 89.5 438 Q100 487 117 538 Q103 538 91.5 538 Q80 538 72 537 Q60 536 47 531.5 Q34 527 23 521 Q12 515 5 507.5 Q-2 500 -3 492 Q-4 482 -7.5 481 Q-11 480 -15 483.5 Q-19 487 -21.5 492 Q-24 497 -23 500 Z M328 51 Q327 54 327 58 Q327 62 327 67 Q315 59 301.5 50 Q288 41 274 29 Q240 0 225.5 -34 Q211 -68 209 -97 Q208 -114 212 -132 Q216 -150 225.5 -163 Q235 -176 249.5 -182.5 Q264 -189 284 -184 Q294 -182 303 -172 Q312 -162 319 -148 Q326 -134 330 -118 Q334 -102 335 -88 Q336 -81 335 -63 Q334 -45 333 -24 Q332 -3 330.5 17.5 Q329 38 328 51 Z M282 618 Q265 613 251 598 Q237 583 224 561 Q251 567 263.5 575 Q276 583 281 589 Q289 598 291 606.5 Q293 615 282 618 Z " />
<glyph glyph-name="F" unicode="F" horiz-adv-x="505" d="M744 661 Q764 667 766.5 658 Q769 649 760 632 Q755 623 748.5 611.5 Q742 600 728.5 587 Q715 574 692.5 561 Q670 548 635 537 Q606 529 569.5 526.5 Q533 524 496.5 524 Q460 524 427.5 525.5 Q395 527 374 529 Q366 530 357.5 531 Q349 532 338 534 Q331 519 321.5 492 Q312 465 310 442 Q309 431 308.5 412.5 Q308 394 308.5 372 Q309 350 310 327.5 Q311 305 312 286 Q328 293 339.5 303 Q351 313 358.5 322.5 Q366 332 370.5 339.5 Q375 347 377 350 Q379 353 378 360.5 Q377 368 375.5 375 Q374 382 373.5 385.5 Q373 389 376 384 Q383 375 399 371 Q415 367 425 365 Q436 363 440 361 Q444 359 435 349 Q424 335 423 313.5 Q422 292 423 270.5 Q424 249 424 232 Q424 215 414 209 Q405 203 401.5 204.5 Q398 206 397.5 212 Q397 218 397.5 227.5 Q398 237 398 248 Q398 253 397 259.5 Q396 266 395 272 Q393 279 392 286 Q384 275 363 267.5 Q342 260 328 255 Q320 253 315 252 Q315 248 315.5 245.5 Q316 243 316 241 Q318 230 321 212 Q324 194 326.5 173 Q329 152 331 128.5 Q333 105 332 84 Q332 62 331.5 40 Q331 18 327.5 -3 Q324 -24 315.5 -44 Q307 -64 290 -82 Q267 -99 246.5 -103 Q226 -107 221 -107 Q217 -107 203 -105.5 Q189 -104 174 -98 Q171 -101 168 -104.5 Q165 -108 161 -112 Q138 -130 118.5 -128.5 Q99 -127 81 -123 Q72 -121 74.5 -120 Q77 -119 84.5 -117.5 Q92 -116 101 -114 Q110 -112 116 -109 Q121 -106 132 -100.5 Q143 -95 154 -84 Q151 -80 148.5 -76.5 Q146 -73 144 -68 Q139 -55 136 -35 Q133 -15 133 5 Q133 25 135 42.5 Q137 60 141 69 Q145 78 152 85.5 Q159 93 167 97 Q175 101 182 98.5 Q189 96 194 86 Q210 46 207 7 Q206 -8 204.5 -30 Q203 -52 188 -78 Q199 -91 211 -87 Q231 -80 242 -64 Q253 -48 251 -16 Q249 0 248 18 Q247 36 245.5 51.5 Q244 67 243.5 78 Q243 89 243 91 Q243 93 242 109 Q241 125 239.5 147 Q238 169 236 193.5 Q234 218 233 237 Q214 233 190 228.5 Q166 224 159 222 Q155 221 149.5 223 Q144 225 139.5 228 Q135 231 133 234 Q131 237 133 237 Q136 238 165.5 245.5 Q195 253 231 263 L231 266 Q230 273 229.5 291.5 Q229 310 229 335 Q229 360 230 388.5 Q231 417 234.5 444 Q238 471 243.5 493 Q249 515 258 528 Q263 534 266 538.5 Q269 543 273 547 Q231 556 193.5 564 Q156 572 142 573 Q130 573 114.5 573 Q99 573 83 570 Q67 567 52.5 560.5 Q38 554 29 543 Q12 523 9.5 498.5 Q7 474 10 458 Q13 443 22 423 Q31 403 54 389 Q76 376 81 372.5 Q86 369 86 367 Q78 361 62 369 Q46 377 29.5 390.5 Q13 404 -0.5 418 Q-14 432 -17 437 Q-20 442 -25.5 451.5 Q-31 461 -33.5 474.5 Q-36 488 -32.5 505.5 Q-29 523 -14 543 Q1 563 15.5 576.5 Q30 590 47 598 Q64 606 85 609.5 Q106 613 133 613 Q194 612 253.5 600.5 Q313 589 373.5 581 Q434 573 497.5 574 Q561 575 632 600 Q657 609 673.5 618.5 Q690 628 702.5 636.5 Q715 645 724.5 651.5 Q734 658 744 661 Z M162 -19 Q164 -28 170 -46 Q173 -35 171 -18 Q170 17 168 35.5 Q166 54 163.5 60.5 Q161 67 159.5 63 Q158 59 158 50 Q158 31 158.5 13 Q159 -5 162 -19 Z " />
<glyph glyph-name="E" unicode="E" horiz-adv-x="394" d="M257 434 Q270 435 288.5 429.5 Q307 424 315 414 Q317 410 323.5 401 Q330 392 332 390 Q334 388 335.5 385.5 Q337 383 335 379 Q329 370 309 367 Q271 364 233.5 347 Q196 330 166 296.5 Q136 263 117 211.5 Q98 160 98 88 Q98 35 112 -1 Q126 -37 151 -53.5 Q176 -70 211 -64.5 Q246 -59 287 -30 Q313 -11 331 6.5 Q349 24 362 40 Q375 56 384.5 71 Q394 86 404 100 Q414 114 418 114 Q422 114 422 107 Q422 100 419 89 Q416 78 413 70 Q400 40 379 11.5 Q358 -17 331 -40 Q304 -63 273.5 -78 Q243 -93 210 -95 Q179 -97 148 -87.5 Q117 -78 88 -47 Q81 -40 67 -24 Q53 -8 39.5 16 Q26 40 16.5 72 Q7 104 9 144 Q11 183 22 217 Q33 251 47.5 279 Q62 307 78 328.5 Q94 350 107 364 Q136 396 181 418 Q170 427 168 433 Q163 441 158 453 Q153 465 149 479 Q102 462 70 441.5 Q38 421 38 389 Q38 379 43 363 Q48 347 64 338 Q73 332 74 330.5 Q75 329 76 328 Q76 324 69 327 Q62 330 48 335 Q34 340 22 347.5 Q10 355 9 373 Q9 382 11.5 394 Q14 406 23 419.5 Q32 433 47.5 447.5 Q63 462 89 476 Q105 484 118 488.5 Q131 493 145 497 Q143 513 145 529.5 Q147 546 158 562 Q182 600 217 625.5 Q252 651 284 656 Q311 657 328.5 651 Q346 645 356.5 637 Q367 629 372 619.5 Q377 610 379 603 Q381 597 376 587 Q371 577 365 570 Q340 545 294 528.5 Q248 512 198 496 Q195 479 198 467 Q200 458 202.5 448.5 Q205 439 212 429 Q236 435 257 434 Z M228 520 Q239 523 258.5 532 Q278 541 297 553 Q316 565 329 580 Q342 595 341 611 Q340 622 330 626.5 Q320 631 311 629 Q301 627 276 613 Q251 599 232 570 Q212 539 203 512 Q209 514 215 516 Q221 518 228 520 Z " />
<glyph glyph-name="D" unicode="D" horiz-adv-x="547" d="M176 680 Q270 669 333.5 637 Q397 605 435.5 549.5 Q474 494 488.5 413.5 Q503 333 499 224 Q497 161 464.5 103 Q432 45 382.5 2 Q333 -41 272.5 -63 Q212 -85 154 -75 Q150 -74 144 -72 Q127 -80 114.5 -82 Q102 -84 98 -84 Q94 -84 80 -82.5 Q66 -81 51 -75 Q48 -78 45 -81.5 Q42 -85 38 -89 Q15 -107 -4.5 -105.5 Q-24 -104 -42 -100 Q-51 -98 -48.5 -97 Q-46 -96 -38.5 -94.5 Q-31 -93 -22 -91 Q-13 -89 -7 -86 Q-2 -83 9 -77.5 Q20 -72 31 -61 Q28 -57 25.5 -53.5 Q23 -50 21 -45 Q16 -32 13 -12 Q10 8 10 28 Q10 48 12 65.5 Q14 83 18 92 Q22 101 29 108.5 Q36 116 44 120 Q52 124 59 121.5 Q66 119 71 109 Q87 69 84 30 Q83 15 81.5 -7 Q80 -29 65 -55 Q76 -68 88 -64 Q111 -56 121 -38 Q121 -22 126 -24 Q129 -9 128 7 Q126 23 125 41 Q124 59 122.5 74.5 Q121 90 120.5 101 Q120 112 120 114 Q120 117 118.5 140.5 Q117 164 115 194 Q113 224 111 251.5 Q109 279 108 289 Q108 296 107 314.5 Q106 333 106 358 Q106 383 107 411.5 Q108 440 111.5 467 Q115 494 120.5 516 Q126 538 135 551 Q150 572 166 579.5 Q182 587 195.5 587 Q209 587 216 581.5 Q223 576 220 569 Q219 567 216 556 Q213 545 209 530 Q205 515 202 497.5 Q199 480 198 465 Q196 449 196.5 420 Q197 391 198 360 Q199 329 200.5 302 Q202 275 204 264 Q206 253 209 235 Q212 217 214.5 196 Q217 175 219 151.5 Q221 128 220 107 Q219 65 211 23.5 Q203 -18 172 -53 Q175 -53 177.5 -53.5 Q180 -54 183 -54 Q250 -60 291.5 -29 Q333 2 356 51.5 Q379 101 389 161 Q399 221 403 272 Q407 318 400.5 371 Q394 424 377 473.5 Q360 523 331.5 564.5 Q303 606 263 629.5 Q223 653 170 654 Q117 655 52 624 Q14 606 -6.5 582 Q-27 558 -36.5 533 Q-46 508 -47.5 485 Q-49 462 -48 447 Q-47 431 -43 423.5 Q-39 416 -33.5 413.5 Q-28 411 -23 412 Q-18 413 -15 413 Q-12 413 -9 410 Q-6 407 -6.5 403.5 Q-7 400 -13 396.5 Q-19 393 -35 393 Q-67 394 -80 432 Q-93 470 -75 530 Q-66 560 -43 587 Q-20 614 13.5 635 Q47 656 89 668 Q131 680 176 680 Z M39 4 Q41 -5 47 -23 Q50 -12 48 5 Q47 40 45 58.5 Q43 77 40.5 83.5 Q38 90 36.5 86 Q35 82 35 73 Q35 54 35.5 36 Q36 18 39 4 Z " />
<glyph glyph-name="A" unicode="A" horiz-adv-x="579" d="M443 629 Q447 629 453 628 Q459 627 465 623.5 Q471 620 476 613 Q481 606 484 594 Q490 569 491.5 530 Q493 491 494 459 Q494 448 494.5 420 Q495 392 495 354.5 Q495 317 495 274 Q495 231 495 191 Q495 151 494.5 118 Q494 85 494 68 Q494 61 493.5 53.5 Q493 46 493 37 Q522 25 547.5 10 Q573 -5 591.5 -24 Q610 -43 620 -66.5 Q630 -90 629 -120 Q628 -144 613.5 -159 Q599 -174 578.5 -181 Q558 -188 534.5 -186.5 Q511 -185 492 -176 Q481 -171 468 -160 Q455 -149 443 -133.5 Q431 -118 421 -98.5 Q411 -79 407 -58 Q405 -47 403.5 -24.5 Q402 -2 400 28 Q371 39 342.5 49.5 Q314 60 290 70 Q282 59 275 48.5 Q268 38 260 27 Q241 3 220 -21.5 Q199 -46 178 -65.5 Q157 -85 136.5 -98 Q116 -111 98 -113 Q75 -115 51 -101.5 Q27 -88 13 -65 Q9 -67 7 -69 Q-8 -79 -17.5 -85.5 Q-27 -92 -31 -94 Q-37 -99 -45 -97 Q-47 -96 -41 -89 Q-35 -82 -23 -73 Q-18 -69 -10.5 -62.5 Q-3 -56 5 -48 Q1 -39 0 -30 Q-1 -21 -1 -11 Q0 10 6.5 33 Q13 56 22 77 Q31 98 43 114 Q55 130 68 138 Q74 141 76 140 Q78 139 85 137 Q93 135 98 135 Q103 135 111 133 Q119 131 127 125.5 Q135 120 135 107 Q135 95 128.5 75 Q122 55 113 41 Q107 30 87 6 Q67 -18 42 -41 Q44 -58 53.5 -71.5 Q63 -85 81 -84 Q104 -83 132.5 -63 Q161 -43 182 -18 Q205 8 224 32.5 Q243 57 260 82 Q244 89 232 95.5 Q220 102 214 108 Q198 124 192.5 139 Q187 154 185 165 Q184 177 187.5 191.5 Q191 206 203 208 Q215 210 226.5 210 Q238 210 233 197 Q231 191 226 188 Q221 185 215.5 182.5 Q210 180 206.5 178.5 Q203 177 203 174 Q205 154 226 139 Q247 124 279 111 Q321 179 348.5 248.5 Q376 318 401 400 Q402 419 403.5 450.5 Q405 482 407.5 513 Q410 544 412 568.5 Q414 593 416 600 Q420 615 421.5 622.5 Q423 630 427 630 Q431 631 435 630 Q439 629 443 629 Z M575 -163 Q592 -163 598.5 -153 Q605 -143 606 -129.5 Q607 -116 603.5 -104 Q600 -92 598 -87 Q587 -67 559.5 -47.5 Q532 -28 495 -10 Q496 -37 500.5 -65 Q505 -93 514 -115 Q523 -137 537.5 -150.5 Q552 -164 575 -163 Z M308 100 Q329 93 352 86 Q375 79 399 71 Q399 102 398.5 136.5 Q398 171 398 204.5 Q398 238 398.5 268.5 Q399 299 399 323 Q382 267 360 210.5 Q338 154 308 100 Z M46 -8 Q53 -1 65.5 14.5 Q78 30 89 47.5 Q100 65 108.5 80 Q117 95 117 101 Q117 107 115 112 Q113 117 109.5 119 Q106 121 101 119 Q96 117 89 108 Q83 100 75.5 85 Q68 70 61.5 53 Q55 36 49.5 19 Q44 2 42 -11 Q43 -10 44 -9.5 Q45 -9 46 -8 Z " />
<glyph glyph-name="B" unicode="B" horiz-adv-x="550" d="M346 320 Q379 305 411 286 Q443 267 468.5 240.5 Q494 214 508.5 177 Q523 140 520 89 Q516 27 479.5 -24.5 Q443 -76 381 -111 Q350 -128 322 -134.5 Q294 -141 269.5 -140.5 Q245 -140 224 -135 Q203 -130 186 -124 Q171 -119 172 -117 Q173 -115 183.5 -115 Q194 -115 211 -116 Q228 -117 245 -118 Q287 -121 322 -102 Q357 -83 381 -50 Q405 -17 416.5 27.5 Q428 72 424 121 Q420 162 403 192.5 Q386 223 365 244 Q344 265 322.5 277 Q301 289 287 295 Q263 287 251 287.5 Q239 288 232 293 Q234 273 235 265 Q237 254 240 236 Q243 218 245.5 197 Q248 176 250 152.5 Q252 129 251 108 Q251 86 250.5 64 Q250 42 246.5 21 Q243 0 234.5 -20 Q226 -40 209 -58 Q186 -75 165.5 -79 Q145 -83 140 -83 Q136 -83 122 -81.5 Q108 -80 93 -74 Q90 -77 87 -80.5 Q84 -84 80 -88 Q57 -106 37.5 -104.5 Q18 -103 0 -99 Q-9 -97 -6.5 -96 Q-4 -95 3.5 -93.5 Q11 -92 20 -90 Q29 -88 35 -85 Q40 -82 51 -76.5 Q62 -71 73 -60 Q70 -56 67.5 -52.5 Q65 -49 63 -44 Q58 -31 55 -11 Q52 9 52 29 Q52 49 54 66.5 Q56 84 60 93 Q64 102 71 109.5 Q78 117 86 121 Q94 125 101 122.5 Q108 120 113 110 Q129 70 126 31 Q125 16 123.5 -6 Q122 -28 107 -54 Q118 -67 130 -63 Q150 -56 161 -40 Q172 -24 170 8 Q168 24 167 42 Q166 60 164.5 75.5 Q163 91 162.5 102 Q162 113 162 115 Q162 118 160.5 141.5 Q159 165 157 195 Q155 225 153 252.5 Q151 280 150 290 Q149 297 148.5 315.5 Q148 334 148 359 Q148 384 149 412.5 Q150 441 153.5 468 Q157 495 162.5 517 Q168 539 177 552 Q192 573 208 580.5 Q224 588 237.5 588 Q251 588 258 582.5 Q265 577 262 570 Q261 568 256 557 Q251 546 245.5 531 Q240 516 235 498.5 Q230 481 229 466 Q228 455 227.5 438 Q227 421 227.5 400.5 Q228 380 229 358.5 Q230 337 231 318 Q244 323 264.5 331 Q285 339 305 357 Q321 372 331 391 Q341 410 347.5 429.5 Q354 449 357 467 Q360 485 362 497 Q363 510 358.5 533 Q354 556 342 578.5 Q330 601 309.5 618.5 Q289 636 258 638 Q201 642 146.5 618.5 Q92 595 51.5 555.5 Q11 516 -10.5 465 Q-32 414 -25 364 Q-24 356 -20 346 Q-16 336 -9 327.5 Q-2 319 8.5 314 Q19 309 34 312 Q63 318 68.5 328.5 Q74 339 71 347 Q69 350 71 351 Q73 352 76 350.5 Q79 349 82.5 345 Q86 341 86 335 Q88 324 76 310.5 Q64 297 32 296 Q0 295 -26.5 308.5 Q-53 322 -56 360 Q-58 379 -51 416 Q-44 453 -23.5 494 Q-3 535 34 573.5 Q71 612 130 634 Q189 656 234 659 Q279 662 312.5 652 Q346 642 368.5 623 Q391 604 404 583 Q431 542 437 512 Q443 482 441 459 Q441 448 437 431 Q433 414 423 395 Q413 376 394 356 Q375 336 345 320 L346 320 Z M81 5 Q83 -4 89 -22 Q92 -11 90 6 Q89 41 87 59.5 Q85 78 82.5 84.5 Q80 91 78.5 87 Q77 83 77 74 Q77 55 77.5 37 Q78 19 81 5 Z " />
<glyph glyph-name="C" unicode="C" horiz-adv-x="437" d="M-62 404 Q-64 401 -69.5 398 Q-75 395 -80.5 394 Q-86 393 -90 394 Q-94 395 -92 400 Q-78 430 -56 449 Q-34 468 -10 480 Q14 492 38 497 Q62 502 82 503 Q105 538 128 564 Q156 595 187 611 Q218 627 247 633 Q276 639 301 638 Q326 637 341 636 Q356 634 370.5 625 Q385 616 395.5 603 Q406 590 411 575 Q416 560 414 546 Q409 520 387.5 507 Q366 494 335 488.5 Q304 483 267.5 483 Q231 483 196 485 Q181 459 169.5 431.5 Q158 404 148.5 379.5 Q139 355 132 334.5 Q125 314 119 301 Q110 280 104.5 250.5 Q99 221 96 192 Q93 163 91.5 138 Q90 113 89 100 Q87 86 86.5 59 Q86 32 95 4 Q104 -24 125.5 -46.5 Q147 -69 191 -73 Q223 -71 253 -50.5 Q283 -30 309 -1 Q335 28 357 62.5 Q379 97 396 128 Q413 159 424 183 Q435 207 439 215 Q445 228 447.5 222 Q450 216 449 199.5 Q448 183 443.5 161 Q439 139 431 120 Q420 92 397 55 Q374 18 341.5 -15 Q309 -48 269 -71 Q229 -94 184 -95 Q178 -95 162 -93 Q146 -91 125 -83 Q104 -75 81 -60 Q58 -45 38.5 -20 Q19 5 6 43 Q-7 81 -7 134 Q-8 250 14 336 Q36 422 71 484 Q48 480 31 474.5 Q14 469 4 464 Q-25 448 -41 428.5 Q-57 409 -62 404 Z M298 596 Q269 580 246 554.5 Q223 529 204 499 Q232 498 262 499.5 Q292 501 317.5 506.5 Q343 512 361.5 522.5 Q380 533 386 551 Q392 568 382.5 585 Q373 602 362 604 Q357 605 351.5 606.5 Q346 608 338.5 608 Q331 608 321.5 605.5 Q312 603 298 596 Z " />
<glyph glyph-name="H" unicode="H" horiz-adv-x="521" d="M561 -88 Q562 -82 567 -83.5 Q572 -85 576.5 -90.5 Q581 -96 583.5 -104.5 Q586 -113 582 -120 Q578 -126 568 -136 Q558 -146 545 -154.5 Q532 -163 516.5 -168 Q501 -173 485 -171 Q453 -167 424 -144.5 Q395 -122 373 -69 Q366 -51 362.5 -20.5 Q359 10 358.5 46 Q358 82 359 120.5 Q360 159 362.5 192.5 Q365 226 367 251.5 Q369 277 370 287 Q370 291 372 301 Q355 294 337.5 294 Q320 294 297 292 Q274 290 247.5 286 Q221 282 199 276 Q201 265 203 247 Q205 229 207 208 Q209 187 210 163.5 Q211 140 210 119 Q210 97 209.5 75 Q209 53 205.5 32 Q202 11 193.5 -9 Q185 -29 168 -47 Q145 -64 124.5 -68 Q104 -72 99 -72 Q95 -72 81 -70.5 Q67 -69 52 -63 Q49 -66 46 -69.5 Q43 -73 39 -77 Q16 -95 -3.5 -93.5 Q-23 -92 -41 -88 Q-50 -86 -47.5 -85 Q-45 -84 -37.5 -82.5 Q-30 -81 -21 -79 Q-12 -77 -6 -74 Q-1 -71 10 -65.5 Q21 -60 32 -49 Q29 -45 26.5 -41.5 Q24 -38 22 -33 Q17 -20 14 0 Q11 20 11 40 Q11 60 13 77.5 Q15 95 19 104 Q23 113 30 120.5 Q37 128 45 132 Q53 136 60 133.5 Q67 131 72 121 Q88 81 85 42 Q84 27 82.5 5 Q81 -17 66 -43 Q77 -56 89 -52 Q109 -45 120 -29 Q131 -13 129 19 Q127 35 126 53 Q125 71 123.5 86.5 Q122 102 121.5 113 Q121 124 121 126 Q121 129 119.5 152.5 Q118 176 116 206 Q114 236 112 263.5 Q110 291 109 301 Q108 310 107 341 Q106 372 107.5 410.5 Q109 449 113.5 487 Q118 525 129 549 Q121 543 111 535 Q101 527 92 517 Q83 507 77 496.5 Q71 486 71 476 Q72 453 74.5 438 Q77 423 85 416 Q87 415 87.5 412 Q88 409 85 410 Q75 414 67 423 Q60 431 54 442.5 Q48 454 49 472 Q51 503 66 521 Q81 539 99 554 Q114 565 129.5 575.5 Q145 586 155 595 Q166 617 167.5 628 Q169 639 173 638 Q192 636 198.5 630.5 Q205 625 206 619 Q207 612 201 604 Q200 580 199 556 Q197 536 195.5 514 Q194 492 192 477 Q191 465 191 445 Q191 425 191.5 401.5 Q192 378 193 354.5 Q194 331 196 312 Q215 316 238.5 312.5 Q262 309 279 311 Q299 313 328 321 Q357 329 378 338 Q382 359 388 383.5 Q394 408 400.5 432.5 Q407 457 413 480 Q419 503 425 520 Q441 568 459.5 595.5 Q478 623 505 621 Q516 620 520.5 616.5 Q525 613 527 611 Q529 608 528 607 Q527 606 524 605.5 Q521 605 517.5 604 Q514 603 511 599 Q507 594 496.5 558 Q486 522 476 475 Q471 452 467 415 Q463 378 459 337 Q455 296 452.5 255.5 Q450 215 450 184 Q450 163 448 132 Q446 101 445 66 Q444 31 444.5 -4 Q445 -39 450 -68 Q455 -97 464.5 -116.5 Q474 -136 491 -139 Q516 -143 529.5 -138 Q543 -133 549.5 -124 Q556 -115 558 -104.5 Q560 -94 561 -88 Z M40 16 Q42 7 48 -11 Q51 0 49 17 Q48 52 46 70.5 Q44 89 41.5 95.5 Q39 102 37.5 98 Q36 94 36 85 Q36 66 36.5 48 Q37 30 40 16 Z " />
<glyph glyph-name="I" unicode="I" horiz-adv-x="266" d="M198 477 Q193 422 193.5 379 Q194 336 197.5 296.5 Q201 257 205 215 Q209 173 210 119 Q210 97 209.5 75 Q209 53 205.5 32 Q202 11 193.5 -9 Q185 -29 168 -47 Q145 -64 124.5 -68 Q104 -72 99 -72 Q95 -72 81 -70.5 Q67 -69 52 -62 Q49 -66 46 -69.5 Q43 -73 39 -77 Q16 -95 -3.5 -93.5 Q-23 -92 -41 -88 Q-50 -86 -47.5 -85 Q-45 -84 -37.5 -82.5 Q-30 -81 -21 -79 Q-12 -77 -6 -74 Q-1 -71 10 -65.5 Q21 -60 31 -49 Q25 -41 22 -33 Q17 -20 14 0 Q11 20 11 40 Q11 60 13 77.5 Q15 95 19 104 Q23 113 30 120.5 Q37 128 45 132 Q53 136 60 133.5 Q67 131 72 121 Q88 81 85 42 Q84 27 82.5 5.5 Q81 -16 65 -42 Q77 -56 89 -52 Q109 -45 120 -29 Q131 -13 129 19 Q127 35 126 53 Q125 71 123.5 86.5 Q122 102 121.5 113 Q121 124 121 126 Q121 129 119.5 152.5 Q118 176 116 206 Q114 236 112 263.5 Q110 291 109 301 Q108 310 107 341 Q106 372 107.5 410.5 Q109 449 113.5 487 Q118 525 128 549 Q120 543 110.5 534.5 Q101 526 92 516.5 Q83 507 77 496.5 Q71 486 71 476 Q72 453 74.5 438 Q77 423 85 416 Q87 415 87.5 412 Q88 409 85 410 Q75 414 67 423 Q60 431 54 442.5 Q48 454 49 472 Q51 503 66 521 Q81 539 99 554 Q114 565 129.5 575.5 Q145 586 155 594 Q166 616 167 627.5 Q168 639 173 638 Q192 636 198.5 630.5 Q205 625 206 619 Q207 612 201 604 L201 556 Q201 536 200 514 Q199 492 198 477 Z M49 17 Q48 52 46 70.5 Q44 89 41.5 95.5 Q39 102 37.5 98 Q36 94 36 85 Q36 66 36.5 48 Q37 30 40 16 Q42 7 48 -11 Q51 -1 49 17 Z " />
<glyph glyph-name="J" unicode="J" horiz-adv-x="359" d="M253 672 Q262 671 273 665 Q284 659 288 652 Q290 649 289 639.5 Q288 630 286 618 Q284 606 281.5 592.5 Q279 579 279 567 Q279 555 278 529 Q277 503 277 470 Q277 437 279 400.5 Q281 364 287 332 Q293 300 296 261.5 Q299 223 300.5 187 Q302 151 302 122 Q302 93 303 80 Q304 67 301.5 52.5 Q299 38 295.5 25 Q292 12 287.5 0.5 Q283 -11 279 -18 Q275 -25 268.5 -37 Q262 -49 253 -64 Q244 -79 233.5 -96 Q223 -113 211 -129 Q199 -145 184.5 -154.5 Q170 -164 155 -169 Q140 -174 125.5 -176 Q111 -178 99 -178 Q88 -178 74 -169 Q60 -184 41.5 -193 Q23 -202 6 -202 L3 -202 Q-9 -201 -16 -196 Q-23 -191 -26.5 -185 Q-30 -179 -31 -172.5 Q-32 -166 -33 -162 Q-34 -158 -30 -158 Q-25 -158 -18.5 -163 Q-12 -168 -9 -176 Q-2 -190 9 -190 Q21 -190 32 -176 Q45 -166 54 -149 Q43 -137 36 -124.5 Q29 -112 26 -104 Q21 -90 16 -63.5 Q11 -37 6 -9 Q1 19 7 49 Q13 79 20 98 Q30 124 55 124 Q66 124 75 119 Q83 115 87 96 Q91 77 93 54 Q95 31 95.5 9.5 Q96 -12 96 -19 Q97 -34 97 -62.5 Q97 -91 94 -126 Q92 -136 90 -143 Q99 -148 107.5 -149 Q116 -150 124 -150 L126 -150 Q144 -150 158.5 -132 Q173 -114 185 -96 Q191 -87 193.5 -61 Q196 -35 197 -4.5 Q198 26 198 55 Q198 84 197 100 Q196 116 195 153 Q194 190 192.5 233 Q191 276 190 318.5 Q189 361 189 389 Q189 417 193 450.5 Q197 484 201 513.5 Q205 543 209 563.5 Q213 584 213 586 Q214 590 215.5 592 Q217 594 215 594 L213 594 Q208 593 192.5 584.5 Q177 576 161 568 Q153 564 144.5 552.5 Q136 541 129 527 Q122 513 117.5 498.5 Q113 484 113 474 Q116 450 122.5 437 Q129 424 135.5 417 Q142 410 146.5 408 Q151 406 150 404 Q148 402 143 402 Q134 402 121.5 408.5 Q109 415 104 419 Q101 421 95.5 425 Q90 429 84 436.5 Q78 444 73 455 Q68 466 67 483 Q69 522 89.5 548.5 Q110 575 135 591.5 Q160 608 182 616.5 Q204 625 210 627 Q221 632 226.5 638.5 Q232 645 234 651 Q237 657 240.5 664.5 Q244 672 252 672 L253 672 Z M64 -120 Q68 -102 69.5 -83.5 Q71 -65 71 -48.5 Q71 -32 70 -18.5 Q69 -5 69 3 Q69 15 67.5 31 Q66 47 64 62 Q62 77 59.5 87.5 Q57 98 54 98 Q52 98 48.5 91.5 Q45 85 43 69 Q41 53 40 26.5 Q39 0 42 -40 Q44 -69 50 -88 Q56 -107 64 -120 Z " />
<glyph glyph-name="K" unicode="K" horiz-adv-x="464" d="M85 405 Q75 409 67 418 Q60 426 54.5 437.5 Q49 449 50 467 Q52 498 66.5 516 Q81 534 100 549 Q115 560 131 570.5 Q147 581 156 590 Q167 612 167.5 623 Q168 634 173 633 Q192 631 200.5 625.5 Q209 620 213 614 Q217 607 216 599 Q214 575 211 551 Q209 531 207 509 Q205 487 204 472 Q202 453 202 417 Q202 381 204 346 Q223 375 243 407 Q263 439 277 461 Q284 471 297.5 487 Q311 503 328 521.5 Q345 540 363.5 558.5 Q382 577 398.5 592 Q415 607 428 616 Q441 625 446 625 Q453 625 459.5 625.5 Q466 626 470.5 624.5 Q475 623 478.5 618 Q482 613 484 603 Q489 581 490 560 Q491 539 484 538 Q481 538 472 542.5 Q463 547 453 552 Q443 557 434.5 561.5 Q426 566 424 565 Q422 564 412.5 555 Q403 546 389.5 532.5 Q376 519 360.5 503 Q345 487 331.5 472.5 Q318 458 308.5 447 Q299 436 297 433 Q294 428 284.5 415 Q275 402 264 387 Q253 372 243 358 Q233 344 228 338 Q237 336 244.5 334 Q252 332 255 329 Q259 325 272 311.5 Q285 298 300.5 280 Q316 262 331 242.5 Q346 223 354 208 Q373 172 387.5 145 Q402 118 414 92.5 Q426 67 437 39 Q448 11 461 -27 Q467 -44 477 -67 Q487 -90 500 -111 Q513 -132 528 -147.5 Q543 -163 557 -165 Q571 -167 579 -165.5 Q587 -164 590.5 -161 Q594 -158 595 -154.5 Q596 -151 597 -149 Q599 -145 600 -153 Q601 -161 597 -167 Q595 -170 589.5 -175 Q584 -180 575 -185 Q566 -190 554.5 -193.5 Q543 -197 528 -196 Q513 -195 498 -190 Q483 -185 468.5 -177.5 Q454 -170 442.5 -160.5 Q431 -151 424 -140 Q417 -130 408.5 -115 Q400 -100 391.5 -85.5 Q383 -71 377 -58 Q371 -45 369 -38 Q367 -33 357 -9.5 Q347 14 332 47.5 Q317 81 299 119 Q281 157 265 190 Q249 223 236.5 247 Q224 271 219 275 Q215 278 208 287 Q209 282 209 278 Q209 274 210 271 Q212 260 212.5 242 Q213 224 213 203 Q213 182 212.5 158.5 Q212 135 211 114 Q211 92 210.5 70 Q210 48 206.5 27 Q203 6 194.5 -14 Q186 -34 169 -52 Q146 -69 125.5 -73 Q105 -77 100 -77 Q96 -77 82 -75.5 Q68 -74 53 -67 Q50 -71 47 -74.5 Q44 -78 40 -82 Q17 -100 -2.5 -98.5 Q-22 -97 -40 -93 Q-49 -91 -46.5 -90 Q-44 -89 -36.5 -87.5 Q-29 -86 -20 -84 Q-11 -82 -5 -79 Q0 -76 11 -70.5 Q22 -65 32 -54 Q26 -46 23 -38 Q18 -25 15 -5 Q12 15 12 35 Q12 55 14 72.5 Q16 90 20 99 Q24 108 31 115.5 Q38 123 46 127 Q54 131 61 128.5 Q68 126 73 116 Q89 76 86 37 Q85 22 83.5 0.5 Q82 -21 66 -47 Q78 -61 90 -57 Q110 -50 121 -34 Q132 -18 130 14 Q128 30 127 48 Q126 66 124.5 81.5 Q123 97 122.5 108 Q122 119 122 121 Q122 124 120.5 147.5 Q119 171 117 201 Q115 231 113 258.5 Q111 286 110 296 Q109 305 108 336.5 Q107 368 108.5 406.5 Q110 445 114.5 483.5 Q119 522 130 545 Q122 539 112 530.5 Q102 522 92.5 512.5 Q83 503 77 492 Q71 481 71 471 Q72 448 75 432.5 Q78 417 86 411 Q88 409 88 406.5 Q88 404 85 405 Z M50 12 Q49 47 47 65.5 Q45 84 42.5 90.5 Q40 97 38.5 93 Q37 89 37 80 Q37 61 37.5 43 Q38 25 41 11 Q43 2 49 -16 Q52 -6 50 12 Z " />
<glyph glyph-name="L" unicode="L" horiz-adv-x="344" d="M24 280 Q16 280 11.5 287 Q7 294 4.5 303 Q2 312 1 320.5 Q0 329 0 332 Q-1 338 1 352 Q3 366 17 385 Q24 394 30.5 404.5 Q37 415 45.5 426.5 Q54 438 65.5 450.5 Q77 463 94 476 L97 479 Q99 496 99.5 510.5 Q100 525 102 535 Q107 577 120 612 Q133 647 144 664 Q150 673 156.5 676 Q163 679 169.5 679 Q176 679 181.5 678 Q187 677 190 677 Q198 676 206 675 Q214 674 225 671 Q235 668 241 662 Q247 656 245 630 Q246 594 226 567.5 Q206 541 180 519 Q179 496 179 470.5 Q179 445 179 422 Q179 399 179.5 381 Q180 363 182 354 Q184 341 185 307.5 Q186 274 186 236 Q186 198 185.5 163 Q185 128 185 113 Q185 99 183 92 Q181 85 178 79 Q175 73 171 65 Q167 57 163 42 Q207 31 247 10.5 Q287 -10 326 -30.5 Q365 -51 404.5 -66.5 Q444 -82 487 -83 Q526 -85 540 -74.5 Q554 -64 557 -52 Q559 -42 564.5 -49.5 Q570 -57 573 -72 Q576 -87 573.5 -105.5 Q571 -124 558 -137 Q545 -150 518 -152.5 Q491 -155 446 -138 Q416 -127 380.5 -108 Q345 -89 306.5 -68.5 Q268 -48 228.5 -29.5 Q189 -11 151 0 Q137 -33 116.5 -47 Q96 -61 84 -65 Q66 -70 53 -62.5 Q40 -55 34 -41 Q28 -27 29.5 -10 Q31 7 42 20 Q53 33 65.5 42.5 Q78 52 89 52 L95 52 Q95 75 94 96 Q93 117 94 122 Q95 133 94 166 Q93 199 91 244 Q90 258 90 280.5 Q90 303 91 330 Q92 357 93 386.5 Q94 416 95 443 Q86 433 79 424 Q72 415 65 406 Q37 368 29 343 Q25 331 24 319 Q23 307 24 299 Q25 291 26 285.5 Q27 280 24 280 Z M183 587 Q181 577 181 560 Q203 587 213 611 Q223 635 214 653 Q211 658 206 652 Q201 646 196.5 634.5 Q192 623 188 609.5 Q184 596 183 587 Z M89 -17 Q93 -8 94 9 Q89 10 83.5 9.5 Q78 9 73 9 Q64 8 65.5 -2.5 Q67 -13 70 -23 Q74 -32 77.5 -31.5 Q81 -31 89 -17 Z " />
<glyph glyph-name="M" unicode="M" horiz-adv-x="737" d="M621 628 Q627 627 631 610.5 Q635 594 633 577 Q631 560 625.5 545.5 Q620 531 621 523 Q622 519 625.5 503.5 Q629 488 634 468 Q639 448 645 426 Q651 404 657 388 Q663 371 671.5 337.5 Q680 304 688.5 268 Q697 232 704.5 200 Q712 168 715 155 Q718 141 721.5 124 Q725 107 727.5 89 Q730 71 731 53.5 Q732 36 731 23 Q730 9 726 -14 Q722 -37 714 -60.5 Q706 -84 692 -104 Q678 -124 657 -132 Q614 -149 609 -144.5 Q604 -140 625 -125 Q646 -110 654.5 -79 Q663 -48 663 -14 Q663 3 658 28 Q653 53 646 79.5 Q639 106 632 130 Q625 154 621 169 Q618 181 610 212.5 Q602 244 593 284 Q584 324 575 367 Q566 410 561 445 Q550 431 536 412.5 Q522 394 511 376 Q506 368 499 353 Q492 338 484 318.5 Q476 299 467.5 276.5 Q459 254 452 232 Q457 223 460 215.5 Q463 208 466 203 Q471 191 478.5 170 Q486 149 492.5 124 Q499 99 502 73 Q505 47 501.5 25 Q498 3 486.5 -12 Q475 -27 452 -29 Q444 -29 437 -25 Q430 -21 424.5 -14.5 Q419 -8 415.5 -0.5 Q412 7 411 13 Q410 19 406 32.5 Q402 46 399 64.5 Q396 83 396 105 Q396 127 404 150 Q398 166 392 178.5 Q386 191 382 196 Q375 203 373.5 203 Q372 203 373.5 199 Q375 195 377.5 189 Q380 183 381 180 Q383 172 381.5 168.5 Q380 165 372 179 Q360 203 350.5 230.5 Q341 258 332 288.5 Q323 319 312.5 351 Q302 383 289 416 Q284 386 278 353.5 Q272 321 266.5 292 Q261 263 256.5 241.5 Q252 220 250 212 Q244 190 245.5 179 Q247 168 242 157 Q240 152 229 125 Q218 98 200 66 Q182 34 158 7 Q134 -20 107 -25 Q81 -30 65 -23.5 Q49 -17 39.5 -7 Q30 3 26 14 Q22 25 20 31 Q18 34 17.5 38.5 Q17 43 15 50 Q2 33 -7 32 Q-15 30 -17.5 31 Q-20 32 -18 33 Q-5 40 12 63 Q9 79 7 96 Q5 113 5 123 Q4 139 6.5 162.5 Q9 186 21 200 Q27 207 36 211.5 Q45 216 53 216.5 Q61 217 67 212.5 Q73 208 73 196 Q73 152 55 112 Q51 102 42 88 Q44 83 45 77 Q46 71 48 66 Q60 24 68.5 7.5 Q77 -9 96 -11 Q105 -12 118.5 -1.5 Q132 9 146 28.5 Q160 48 173 75 Q186 102 194 134 Q200 156 208.5 195.5 Q217 235 226.5 282.5 Q236 330 245.5 380.5 Q255 431 262 475 Q260 478 256 486 Q245 504 235.5 525 Q226 546 218.5 566 Q211 586 207 602.5 Q203 619 203 628 Q204 637 206.5 647.5 Q209 658 214.5 666.5 Q220 675 229 680 Q238 685 253 684 Q267 684 280.5 667 Q294 650 299 630 Q301 618 303 596.5 Q305 575 304 546 Q318 523 335.5 488 Q353 453 371 414 Q389 375 406.5 336 Q424 297 438 265 Q457 316 486 374 Q515 432 555 491 L555 500 Q553 552 558 582 Q563 612 568 617 Q570 619 575 623 Q580 627 587.5 629.5 Q595 632 603.5 632.5 Q612 633 621 628 Z M448 6 Q456 6 454.5 17 Q453 28 447 38 Q444 42 437.5 60 Q431 78 423 101 Q421 66 427 37 Q433 8 448 6 Z M276 586 Q277 611 274.5 624.5 Q272 638 269 644.5 Q266 651 263.5 652 Q261 653 260 653 Q259 653 257.5 648.5 Q256 644 256.5 635 Q257 626 261 613.5 Q265 601 276 585 L276 586 Z M50 161 Q51 170 51.5 180 Q52 190 50 190 Q47 190 45 184 Q43 178 42 172 Q41 167 39 152.5 Q37 138 39 115 Q44 129 46 141.5 Q48 154 50 161 Z " />
<glyph glyph-name="N" unicode="N" horiz-adv-x="609" d="M-18 -70 Q-11 -65 -3.5 -58 Q4 -51 12 -40 Q9 -23 7 -6.5 Q5 10 5 20 Q4 36 6.5 59.5 Q9 83 21 97 Q27 104 36 108.5 Q45 113 53 113.5 Q61 114 67 109.5 Q73 105 73 93 Q73 49 55 9 Q53 4 49.5 -2 Q46 -8 42 -15 Q44 -20 45 -25.5 Q46 -31 48 -37 Q60 -79 68.5 -95.5 Q77 -112 96 -114 Q105 -115 118.5 -104.5 Q132 -94 146 -74.5 Q160 -55 173 -28 Q186 -1 194 31 Q199 52 200.5 93 Q202 134 200.5 185 Q199 236 195.5 291 Q192 346 189 396 Q182 407 175.5 418.5 Q169 430 162 442 Q141 478 124.5 510.5 Q108 543 107 577 Q106 596 118 617 Q130 638 159 640 Q168 640 176 635 Q184 630 189 623 Q194 616 197.5 608 Q201 600 201 594 Q203 571 205 550.5 Q207 530 208 506 Q226 482 260 438.5 Q294 395 334 343.5 Q374 292 415 239 Q456 186 488 144 Q491 212 499.5 284 Q508 356 520 420.5 Q532 485 547 535.5 Q562 586 577 612 Q583 606 587 600 Q590 595 592 589 Q594 583 592 579 Q579 559 567.5 507 Q556 455 547 386.5 Q538 318 531.5 242 Q525 166 523 97 Q533 84 540.5 74 Q548 64 552 59 Q576 24 588 -10 Q600 -44 599 -71 Q598 -98 583 -114.5 Q568 -131 538 -132 Q515 -132 503.5 -95 Q492 -58 488 2 Q457 45 422.5 89 Q388 133 352.5 177 Q317 221 282 266 Q247 311 215 358 Q220 322 227 281.5 Q234 241 239.5 205 Q245 169 248.5 143 Q252 117 250 109 Q244 87 245.5 76 Q247 65 242 54 Q240 49 229 22 Q218 -5 200 -37 Q182 -69 158 -96 Q134 -123 107 -128 Q81 -133 65 -126.5 Q49 -120 39.5 -110 Q30 -100 26 -89 Q22 -78 20 -72 Q18 -69 17.5 -64 Q17 -59 15 -53 Q2 -68 -7 -71 Q-15 -73 -17.5 -72 Q-20 -71 -18 -70 Z M182 542 Q183 567 180.5 580.5 Q178 594 175 600.5 Q172 607 169.5 608 Q167 609 166 609 Q165 609 163.5 604.5 Q162 600 162.5 591 Q163 582 167 569.5 Q171 557 182 541 L182 542 Z M50 58 Q51 67 51.5 77 Q52 87 50 87 Q47 87 45 81 Q43 75 42 69 Q41 64 39 49.5 Q37 35 39 12 Q44 26 46 38.5 Q48 51 50 58 Z M534 -97 Q542 -97 540.5 -86 Q539 -75 533 -65 Q531 -62 529.5 -59 Q528 -56 526 -54 Q528 -68 529.5 -79 Q531 -90 534 -97 Z " />
<glyph glyph-name="O" unicode="O" horiz-adv-x="606" d="M-19 229 Q-39 230 -48 241.5 Q-57 253 -59 268.5 Q-61 284 -58.5 301.5 Q-56 319 -53 332 Q-46 370 -22 400 Q2 430 36 452.5 Q70 475 110 491 Q150 507 189 519 Q219 555 250 580.5 Q281 606 307.5 622.5 Q334 639 352.5 647.5 Q371 656 377 658 Q386 661 394.5 658 Q403 655 411 649.5 Q419 644 425 638.5 Q431 633 436 631 Q445 627 449 611.5 Q453 596 436 571 Q427 559 412.5 550.5 Q398 542 382 536.5 Q366 531 350.5 527.5 Q335 524 325 522 Q323 521 321 521 Q284 495 249.5 452 Q215 409 189 359 Q163 309 149 257 Q135 205 139 162 Q147 65 193 11.5 Q239 -42 314 -37 Q351 -34 376 -19.5 Q401 -5 416.5 13.5 Q432 32 441 51 Q450 70 456 81 Q463 94 476 129 Q489 164 498 212 L497 212 Q441 214 406 240.5 Q371 267 351.5 301 Q332 335 325 366 Q318 397 318 408 Q318 419 320 436.5 Q322 454 329 470.5 Q336 487 349.5 498 Q363 509 386 507 Q401 506 421 502 Q441 498 461.5 488 Q482 478 501 460.5 Q520 443 533.5 415 Q547 387 553 346 Q559 305 553 249 Q565 260 575 275 Q585 290 588 297 Q590 302 591 308.5 Q592 315 593 320.5 Q594 326 595.5 328 Q597 330 601 327 Q604 324 608.5 309.5 Q613 295 610.5 277 Q608 259 594.5 241.5 Q581 224 548 216 Q534 127 506.5 72.5 Q479 18 443 -12 Q407 -42 366.5 -51.5 Q326 -61 288 -59 Q262 -58 231.5 -49 Q201 -40 172 -21.5 Q143 -3 118.5 26 Q94 55 80 95 Q66 135 64.5 187 Q63 239 81 305 Q95 358 115.5 401 Q136 444 160 479 L158 479 Q98 459 64.5 432.5 Q31 406 14 380 Q-3 354 -7 333 Q-11 312 -11 304 Q-11 301 -11 289 Q-11 277 -11.5 264 Q-12 251 -14 240.5 Q-16 230 -19 229 Z M380 320 Q393 294 409 278 Q425 262 441.5 252.5 Q458 243 473.5 239 Q489 235 501 234 Q505 261 506 290.5 Q507 320 504 350 Q499 396 482 423 Q465 450 444.5 464 Q424 478 405.5 481.5 Q387 485 379 483 Q370 481 362.5 468 Q355 455 352.5 433.5 Q350 412 356 383 Q362 354 380 320 Z " />
<glyph glyph-name="P" unicode="P" horiz-adv-x="464" d="M335 635 Q367 614 388 582 Q409 550 420.5 516.5 Q432 483 436 452.5 Q440 422 439 405 Q438 388 431.5 365 Q425 342 414 318.5 Q403 295 387.5 272.5 Q372 250 354 234 Q324 207 286.5 193 Q249 179 208 179 Q210 164 210.5 148.5 Q211 133 210 119 Q210 97 209.5 75 Q209 53 205.5 32 Q202 11 193.5 -9 Q185 -29 168 -47 Q145 -64 124.5 -68 Q104 -72 99 -72 Q95 -72 81 -70.5 Q67 -69 52 -63 Q49 -66 46 -69.5 Q43 -73 39 -77 Q16 -95 -3.5 -93.5 Q-23 -92 -41 -88 Q-50 -86 -47.5 -85 Q-45 -84 -37.5 -82.5 Q-30 -81 -21 -79 Q-12 -77 -6 -74 Q-1 -71 10 -65.5 Q21 -60 32 -49 Q29 -45 26.5 -41.5 Q24 -38 22 -33 Q17 -20 14 0 Q11 20 11 40 Q11 60 13 77.5 Q15 95 19 104 Q23 113 30 120.5 Q37 128 45 132 Q53 136 60 133.5 Q67 131 72 121 Q88 81 85 42 Q84 27 82.5 5 Q81 -17 66 -43 Q77 -56 89 -52 Q109 -45 120 -29 Q131 -13 129 19 Q127 35 126 53 Q125 71 123.5 86.5 Q122 102 121.5 113 Q121 124 121 126 Q121 128 119.5 152 Q118 176 116 205 Q97 220 91 237 Q85 254 85 263 Q85 277 91.5 275.5 Q98 274 100 267 Q101 262 104 252 Q107 242 114 233 Q112 256 111 274.5 Q110 293 109 301 Q109 308 108 326.5 Q107 345 107 370 Q107 395 108 423.5 Q109 452 112.5 479 Q116 506 121.5 528 Q127 550 136 563 Q151 585 162.5 592.5 Q174 600 182 599 Q190 598 194.5 591 Q199 584 199 577 Q197 560 195 542 Q193 527 191 509.5 Q189 492 188 477 Q186 461 186.5 432 Q187 403 188 372 Q189 341 190.5 314 Q192 287 194 276 Q196 265 199 246 Q202 227 205 205 Q222 204 237 206.5 Q252 209 261 215 Q271 222 289 238.5 Q307 255 323 284 Q339 313 349.5 355.5 Q360 398 356 457 Q356 516 341 555.5 Q326 595 303.5 618.5 Q281 642 253 652 Q225 662 199 661 Q172 660 150.5 658.5 Q129 657 107.5 652.5 Q86 648 62.5 639.5 Q39 631 10 617 Q-20 603 -37.5 582.5 Q-55 562 -64.5 541.5 Q-74 521 -76.5 503 Q-79 485 -78 476 Q-78 467 -73.5 453.5 Q-69 440 -63.5 427 Q-58 414 -52 402.5 Q-46 391 -43 387 Q-37 378 -32 371 Q-27 364 -32 366 Q-36 367 -43.5 372 Q-51 377 -59 383.5 Q-67 390 -74 397 Q-81 404 -85 409 Q-89 414 -94 419 Q-99 424 -104 434.5 Q-109 445 -113 463.5 Q-117 482 -117 512 Q-116 543 -98.5 569.5 Q-81 596 -54 616.5 Q-27 637 5.5 652.5 Q38 668 68.5 678 Q99 688 124.5 692.5 Q150 697 163 697 Q182 696 199.5 693.5 Q217 691 236 685 Q255 679 278.5 667 Q302 655 335 635 Z M40 16 Q42 7 48 -11 Q51 0 49 17 Q48 52 46 70.5 Q44 89 41.5 95.5 Q39 102 37.5 98 Q36 94 36 85 Q36 66 36.5 48 Q37 30 40 16 Z " />
<glyph glyph-name="R" unicode="R" horiz-adv-x="516" d="M622 -184 Q623 -180 624.5 -188 Q626 -196 622 -202 Q620 -205 615 -210.5 Q610 -216 601.5 -221.5 Q593 -227 581.5 -230.5 Q570 -234 555 -234 Q526 -233 495 -218 Q464 -203 448 -183 Q441 -173 431.5 -158.5 Q422 -144 413.5 -130 Q405 -116 398 -103.5 Q391 -91 389 -84 Q387 -79 378.5 -59 Q370 -39 358 -11 Q346 17 331 48.5 Q316 80 302.5 107.5 Q289 135 278 154 Q267 173 261 176 L255 179 Q252 180 246 180 Q248 164 248.5 148.5 Q249 133 248 119 Q248 97 247.5 75 Q247 53 243.5 32 Q240 11 231.5 -9 Q223 -29 206 -47 Q183 -64 162.5 -68 Q142 -72 137 -72 Q133 -72 119 -70.5 Q105 -69 90 -63 Q87 -66 84 -69.5 Q81 -73 77 -77 Q54 -95 34.5 -93.5 Q15 -92 -3 -88 Q-12 -86 -9.5 -85 Q-7 -84 0.5 -82.5 Q8 -81 17 -79 Q26 -77 32 -74 Q37 -71 48 -65.5 Q59 -60 70 -49 Q67 -45 64.5 -41.5 Q62 -38 60 -33 Q55 -20 52 0 Q49 20 49 40 Q49 60 51 77.5 Q53 95 57 104 Q61 113 68 120.5 Q75 128 83 132 Q91 136 98 133.5 Q105 131 110 121 Q126 81 123 42 Q122 27 120.5 5 Q119 -17 104 -43 Q115 -56 127 -52 Q147 -45 158 -29 Q169 -13 167 19 Q165 35 164 53 Q163 71 161.5 86.5 Q160 102 159.5 113 Q159 124 159 126 Q159 129 157.5 152.5 Q156 176 154 206 Q152 236 150 263.5 Q148 291 147 301 Q146 308 145.5 326.5 Q145 345 145 370 Q145 395 146 423.5 Q147 452 150.5 479 Q154 506 159.5 528 Q165 550 174 563 Q189 585 200.5 592.5 Q212 600 220 599 Q228 598 232.5 591 Q237 584 237 577 Q235 560 233 542 Q231 527 229 509.5 Q227 492 226 477 Q224 461 224.5 432 Q225 403 226 372 Q227 341 228.5 314 Q230 287 232 276 Q234 265 237 246 Q240 227 243 204 Q263 202 282 205 Q301 208 312 215 Q322 222 340 238.5 Q358 255 374 284 Q390 313 400.5 355.5 Q411 398 407 457 Q407 516 392 555.5 Q377 595 354.5 618.5 Q332 642 304 652 Q276 662 250 661 Q212 660 167 650 Q122 640 84 618 Q46 596 22 561.5 Q-2 527 2 476 Q2 467 6.5 453.5 Q11 440 16.5 427 Q22 414 28 402.5 Q34 391 37 387 Q43 378 48 371 Q53 364 48 366 Q44 367 36.5 372 Q29 377 21 383.5 Q13 390 6 397 Q-1 404 -5 409 Q-9 414 -14 419 Q-19 424 -24 434.5 Q-29 445 -33 463.5 Q-37 482 -37 512 Q-35 559 -3 592.5 Q29 626 71 647.5 Q113 669 153.5 678.5 Q194 688 214 687 Q233 686 251 686.5 Q269 687 288.5 684 Q308 681 332 672 Q356 663 389 643 Q421 622 441.5 589 Q462 556 473 520.5 Q484 485 487.5 453.5 Q491 422 490 405 Q489 388 482.5 365 Q476 342 465 318.5 Q454 295 438.5 272.5 Q423 250 405 234 Q372 204 329 190 Q340 187 349 182 Q358 177 364 169 Q379 150 389.5 131.5 Q400 113 409.5 91.5 Q419 70 429 44.5 Q439 19 454 -14 Q470 -48 487.5 -80.5 Q505 -113 522 -139 Q539 -165 554.5 -182 Q570 -199 582 -202 Q596 -206 604 -204.5 Q612 -203 615.5 -199.5 Q619 -196 620 -191 Q621 -186 622 -184 Z M78 16 Q80 7 86 -11 Q89 0 87 17 Q86 52 84 70.5 Q82 89 79.5 95.5 Q77 102 75.5 98 Q74 94 74 85 Q74 66 74.5 48 Q75 30 78 16 Z " />
<glyph glyph-name="Q" unicode="Q" horiz-adv-x="557" d="M565 -97 Q565 -92 569.5 -98.5 Q574 -105 573 -113 Q572 -116 569.5 -123 Q567 -130 561 -138.5 Q555 -147 545.5 -155 Q536 -163 523 -169 Q496 -180 462 -178.5 Q428 -177 405 -164 Q394 -157 380 -148 Q366 -139 352.5 -129 Q339 -119 327.5 -110.5 Q316 -102 311 -96 Q306 -90 294.5 -79 Q283 -68 269 -58 Q258 -59 247 -59.5 Q236 -60 225 -59 Q199 -58 168.5 -49 Q138 -40 109 -21.5 Q80 -3 55.5 26 Q31 55 17 95 Q3 135 1.5 187 Q0 239 18 305 Q35 371 62.5 422 Q90 473 120.5 511.5 Q151 550 183 577.5 Q215 605 242 622 Q269 639 288.5 647.5 Q308 656 314 658 Q323 661 331.5 658 Q340 655 348 649.5 Q356 644 362 638.5 Q368 633 373 631 Q382 627 386 611.5 Q390 596 373 571 Q364 559 349.5 550.5 Q335 542 319 536.5 Q303 531 287.5 527.5 Q272 524 262 522 L259 522 Q222 496 187.5 453 Q153 410 127 359.5 Q101 309 86.5 257 Q72 205 76 162 Q84 71 125 18.5 Q166 -34 232 -37 Q230 -37 229 -36.5 Q228 -36 226 -36 Q207 -35 211.5 -26 Q216 -17 232.5 -9.5 Q249 -2 271 0 Q293 2 310 -9 Q316 -13 320 -16 Q337 -6 349 8 Q361 22 369.5 35.5 Q378 49 383.5 61 Q389 73 393 81 Q401 94 413.5 129 Q426 164 435 212 L434 212 Q378 214 343 240.5 Q308 267 288.5 301 Q269 335 262 366 Q255 397 255 408 Q255 419 257 436.5 Q259 454 266 470.5 Q273 487 286.5 498 Q300 509 323 507 Q338 506 358 502 Q378 498 398.5 488 Q419 478 438 460.5 Q457 443 470.5 415 Q484 387 490 346 Q496 305 490 249 Q502 260 512.5 275 Q523 290 525 297 Q527 302 528 308.5 Q529 315 530 320.5 Q531 326 532.5 328 Q534 330 538 327 Q541 324 545.5 309.5 Q550 295 548 277 Q546 259 532.5 241.5 Q519 224 486 216 Q477 161 463 119.5 Q449 78 430.5 47.5 Q412 17 390 -3.5 Q368 -24 344 -36 Q365 -54 387 -74 Q409 -94 432 -109 Q455 -124 481 -130.5 Q507 -137 536 -128 Q550 -124 556 -119.5 Q562 -115 564 -110.5 Q566 -106 565.5 -102.5 Q565 -99 565 -97 Z M317 320 Q345 270 379 253 Q413 236 438 234 Q443 261 444 290.5 Q445 320 441 350 Q436 396 419 423 Q402 450 381.5 464 Q361 478 342.5 481.5 Q324 485 316 483 Q307 481 299.5 468 Q292 455 289.5 433.5 Q287 412 293 383 Q299 354 317 320 Z " />
<glyph glyph-name="t" unicode="t" horiz-adv-x="216" d="M227 215 Q228 219 231.5 223 Q235 227 238 226.5 Q241 226 242 220 Q243 214 239 199 Q232 168 225.5 128.5 Q219 89 210 52 Q201 15 189 -14.5 Q177 -44 159 -56 Q140 -69 122 -75 Q104 -81 84 -77 Q73 -75 62 -66.5 Q51 -58 41.5 -45 Q32 -32 24.5 -15.5 Q17 1 13 18 Q9 35 6.5 65.5 Q4 96 2.5 132 Q1 168 1 206 Q1 244 1 276 Q1 307 3.5 346 Q6 385 9 422 Q-15 428 -33 430 Q-51 432 -61 426 Q-83 412 -93 411.5 Q-103 411 -103 418 Q-103 425 -94 436.5 Q-85 448 -67 457 Q-53 464 -36 469 Q-19 474 13 470 Q15 492 16.5 508 Q18 524 19 530 Q20 539 21.5 551 Q23 563 25.5 574 Q28 585 30.5 592.5 Q33 600 36 600 Q40 600 46.5 599.5 Q53 599 60 596.5 Q67 594 72.5 589.5 Q78 585 80 576 Q81 569 82.5 555 Q84 541 85.5 524.5 Q87 508 88 491 Q89 474 90 460 Q123 457 142 460 Q161 463 172 471.5 Q183 480 189.5 493 Q196 506 204 524 Q208 524 210 518 Q212 512 212.5 503.5 Q213 495 213 485.5 Q213 476 212 470 Q209 442 198 426.5 Q187 411 170.5 404.5 Q154 398 133.5 398 Q113 398 91 402 Q91 388 91 371.5 Q91 355 91 339.5 Q91 324 91 312 Q91 300 91 295 Q92 279 91.5 247.5 Q91 216 90 189 Q89 175 87 150 Q85 125 83.5 97 Q82 69 82 43 Q82 17 85 2 Q87 -7 91.5 -17 Q96 -27 102.5 -35 Q109 -43 116.5 -48 Q124 -53 133 -52 Q147 -51 159.5 -30.5 Q172 -10 182.5 20 Q193 50 201 84.5 Q209 119 215 148 Q221 177 224 196.5 Q227 216 227 215 Z " />
<glyph glyph-name="S" unicode="S" horiz-adv-x="513" d="M4 114 Q3 114 2.5 119 Q2 124 1 131.5 Q0 139 0 147.5 Q0 156 0 162 Q0 168 2.5 178 Q5 188 8 198.5 Q11 209 14.5 218 Q18 227 22 231 Q25 235 27 240 Q29 245 32 250.5 Q35 256 41 260 Q47 264 59 267 Q78 283 96.5 297 Q115 311 132 322 Q140 328 165 343.5 Q190 359 219 378 Q217 382 213 388 Q197 411 186.5 441.5 Q176 472 176 494 Q176 517 187.5 542 Q199 567 217.5 589 Q236 611 260.5 627.5 Q285 644 310.5 651.5 Q336 659 360.5 654 Q385 649 405 628 Q421 611 426.5 589 Q432 567 429 544.5 Q426 522 416.5 501.5 Q407 481 393 466 Q377 449 350 430 Q323 411 295 394 Q299 389 303 384.5 Q307 380 311 375 Q319 365 335 347.5 Q351 330 369 308.5 Q387 287 403.5 264 Q420 241 431 222 Q458 171 466 122 Q474 73 461 32 Q448 -9 412 -38 Q376 -67 316 -77 Q307 -79 293 -79.5 Q279 -80 263 -79.5 Q247 -79 230.5 -77 Q214 -75 199 -72 Q157 -62 136 -32 Q121 -37 104 -38 Q88 -39 76 -34.5 Q64 -30 55 -23 Q46 -16 38.5 -9.5 Q31 -3 23 -1 Q17 1 22.5 2.5 Q28 4 35 1 Q38 0 44 -2.5 Q50 -5 57.5 -7.5 Q65 -10 72.5 -12 Q80 -14 85 -14 Q89 -14 99 -12 Q109 -10 123 -5 Q112 22 109 48.5 Q106 75 108 88 Q109 95 115.5 111 Q122 127 135 143.5 Q148 160 168 172.5 Q188 185 217 185 Q230 185 236.5 176.5 Q243 168 245.5 156.5 Q248 145 248.5 135 Q249 125 249 122 Q249 117 246 103.5 Q243 90 239 79 Q238 75 234 65 Q230 55 223 42.5 Q216 30 205 16 Q194 2 179 -10 Q194 -28 215.5 -40 Q237 -52 263 -51 Q295 -50 314 -40.5 Q333 -31 343 -18.5 Q353 -6 356.5 6.5 Q360 19 361 27 Q362 34 360.5 51.5 Q359 69 356.5 88.5 Q354 108 350.5 125 Q347 142 345 150 Q343 157 338 170.5 Q333 184 327 198.5 Q321 213 314.5 226 Q308 239 304 247 Q301 253 293 265 Q285 277 275 293 Q265 309 254 325.5 Q243 342 233 357 Q229 355 228 354 Q216 347 195 334.5 Q174 322 151.5 308 Q129 294 108.5 279.5 Q88 265 78 254 Q52 228 38.5 203 Q25 178 18 158.5 Q11 139 8.5 126.5 Q6 114 4 114 Z M304 437 Q316 447 333.5 462 Q351 477 364.5 496 Q378 515 384 537.5 Q390 560 381 585 Q371 601 347 599.5 Q323 598 299 583 Q275 568 258 540 Q241 512 247 476 Q249 460 257 445 Q265 430 276 416 Q285 422 292 427.5 Q299 433 304 437 Z M194 52 Q200 65 207.5 84.5 Q215 104 218 122 Q221 140 217.5 153 Q214 166 198 166 Q194 166 184 160 Q174 154 164 144 Q154 134 146 120.5 Q138 107 137 93 Q136 79 142 58 Q148 37 161 15 Q182 29 194 52 Z " />
<glyph glyph-name="T" unicode="T" horiz-adv-x="532" d="M-23 442 Q-21 441 -22.5 440 Q-24 439 -25 439 Q-26 439 -32 443 Q-38 447 -45.5 456 Q-53 465 -59 479 Q-65 493 -65 513 Q-67 534 -60 560.5 Q-53 587 -37 610 Q-21 633 4.5 649 Q30 665 66 667 Q94 667 113.5 665 Q133 663 148 659 Q163 655 177 650 Q191 645 208 641 Q225 636 256 624.5 Q287 613 326.5 602 Q366 591 410 584 Q454 577 497 582 Q582 592 637 605 Q692 618 711 628 Q729 638 740 641 Q751 644 756 653 Q758 657 761 664.5 Q764 672 765 679.5 Q766 687 764 693 Q762 699 753 701 Q736 705 729.5 701 Q723 697 722 701 Q721 705 735.5 709.5 Q750 714 762 713 Q775 713 779.5 697.5 Q784 682 786 665 Q788 648 779 627.5 Q770 607 754 593 Q728 570 701 555.5 Q674 541 644.5 532.5 Q615 524 582 521 Q549 518 510 519 Q487 517 461.5 519 Q436 521 407 526 Q405 493 399.5 450.5 Q394 408 393 363 Q393 282 398.5 211 Q404 140 401 68 Q401 58 399 44.5 Q397 31 394.5 17 Q392 3 389 -9 Q386 -21 385 -28 Q384 -35 381.5 -46 Q379 -57 373.5 -67.5 Q368 -78 359 -87 Q350 -96 337 -99 Q314 -104 300 -105.5 Q286 -107 272 -105 Q268 -121 261 -137.5 Q254 -154 243 -169.5 Q232 -185 216.5 -198 Q201 -211 179 -220 Q172 -225 176 -219.5 Q180 -214 188 -204 Q196 -194 205.5 -183 Q215 -172 219 -167 Q224 -161 232 -140.5 Q240 -120 245 -97 Q228 -89 214 -72 Q200 -55 189 -34 Q182 -21 180.5 -8 Q179 5 180 15.5 Q181 26 183.5 33 Q186 40 188 43 Q192 48 204.5 55 Q217 62 222 61 Q225 61 231.5 56 Q238 51 245.5 44.5 Q253 38 259 29.5 Q265 21 267 14 Q270 0 275 -12 Q280 -24 280 -44 Q280 -57 277 -82 Q287 -87 298.5 -88 Q310 -89 322 -82 Q334 -75 337.5 -61 Q341 -47 340 -32 Q339 -17 335.5 -3.5 Q332 10 330 15 Q328 20 326 38.5 Q324 57 322 79.5 Q320 102 317.5 123.5 Q315 145 314 157 Q312 169 310 192 Q308 215 306.5 239 Q305 263 304 284 Q303 305 303 313 Q303 320 304.5 343.5 Q306 367 308 395 Q310 423 312 449 Q314 475 317 487 Q320 498 324.5 513 Q329 528 334 542 Q302 550 272 559 Q242 568 215 575.5 Q188 583 166 588.5 Q144 594 129 596 Q103 599 77 597 Q51 595 28.5 588 Q6 581 -11 569.5 Q-28 558 -35 540 Q-50 505 -46 485 Q-42 465 -23 442 Z M248 -57 Q245 -47 242.5 -43.5 Q240 -40 238.5 -41.5 Q237 -43 238 -47.5 Q239 -52 244 -58 L249 -63 Q249 -61 248.5 -60 Q248 -59 248 -57 Z " />
<glyph glyph-name="U" unicode="U" horiz-adv-x="518" d="M71 656 Q106 656 122 637 Q139 620 148 591.5 Q157 563 162 530 Q164 513 167 481 Q170 449 173 415 Q176 381 178 353 Q180 325 181 317 Q181 309 181.5 290.5 Q182 272 182.5 249.5 Q183 227 183 204.5 Q183 182 183 166 Q183 149 181.5 127 Q180 105 180 83.5 Q180 62 183 44 Q186 26 194 18 Q202 10 212.5 4 Q223 -2 235 -2 Q250 -2 266.5 10 Q283 22 300 54 Q315 83 325.5 123.5 Q336 164 343 204 Q350 244 354 277.5 Q358 311 361 327 Q362 337 361.5 357.5 Q361 378 360.5 404 Q360 430 359 458 Q358 486 357 509.5 Q356 533 355.5 549.5 Q355 566 355 570 Q356 576 356.5 585 Q357 594 357.5 602.5 Q358 611 359 617 Q360 623 362 623 L363 623 Q367 623 379.5 622 Q392 621 406.5 617 Q421 613 434 604 Q447 595 450 579 Q460 535 463.5 486.5 Q467 438 466 387.5 Q465 337 461.5 285 Q458 233 454 182 Q452 150 450 107.5 Q448 65 450 27 Q452 -11 459 -38 Q466 -65 481 -66 L483 -66 Q498 -66 510 -53.5 Q522 -41 529.5 -23.5 Q537 -6 539 13 Q541 32 535 44 Q527 52 533 56 Q539 60 547 60 Q558 60 558 54 Q560 46 560.5 24 Q561 2 558 -15 Q557 -23 552 -36 Q547 -49 537 -61.5 Q527 -74 511 -84 Q495 -94 471 -97 L464 -97 Q442 -97 426 -83.5 Q410 -70 399 -49 Q388 -28 382 -3.5 Q376 21 373 44 Q370 67 368 90.5 Q366 114 364 133 Q362 155 362 176 Q356 155 352 137 Q347 121 343 105.5 Q339 90 336 82 Q333 74 324.5 56.5 Q316 39 303 20.5 Q290 2 272 -12.5 Q254 -27 232 -29 L223 -29 Q202 -29 180.5 -20 Q159 -11 142 5 Q125 21 112.5 41 Q100 61 97 84 Q95 100 92.5 129.5 Q90 159 88 195 Q86 231 83.5 269.5 Q81 308 80 342 Q79 376 78.5 401 Q78 426 79 436 Q80 445 80.5 463.5 Q81 482 81 504.5 Q81 527 79.5 550 Q78 573 76 592 Q74 611 70.5 623 Q67 635 62 635 L61 635 Q53 634 42 626 Q31 618 19.5 607 Q8 596 -1 582.5 Q-10 569 -14 556 Q-22 530 -23 517.5 Q-24 505 -23 500 Q-22 492 -15 475 Q-8 458 7 451 Q11 448 6 448 Q1 448 -8.5 449.5 Q-18 451 -26 453 Q-31 454 -37.5 459 Q-44 464 -49 472 Q-54 480 -57.5 490.5 Q-61 501 -60 512 Q-59 523 -56 538 Q-53 553 -46 569 Q-39 585 -27.5 601 Q-16 617 1 630 Q18 644 36 650 Q54 656 71 656 Z " />
<glyph glyph-name="V" unicode="V" horiz-adv-x="551" d="M23 406 Q23 404 14 402.5 Q5 401 -6.5 401 Q-18 401 -28 403 Q-38 405 -40 411 Q-45 423 -50.5 444 Q-56 465 -48 494 Q-43 520 -29.5 542.5 Q-16 565 19 576 Q51 586 69 585.5 Q87 585 101 585 Q113 585 128 576 Q143 567 157 554 Q171 541 183 527 Q195 513 200 504 Q223 465 246 412.5 Q269 360 289 302 Q309 244 326.5 186 Q344 128 356 79 Q370 105 390.5 139 Q411 173 438 217 Q456 251 471 280 Q486 309 498 337 Q510 365 517.5 394 Q525 423 528 458 Q534 529 533.5 567.5 Q533 606 520 626 Q514 636 519 633.5 Q524 631 533 620.5 Q542 610 551.5 593 Q561 576 564 557 Q570 519 569.5 475 Q569 431 560 397 Q555 376 544 349.5 Q533 323 518.5 295 Q504 267 488.5 239.5 Q473 212 460 189 Q450 172 437 152.5 Q424 133 411 112 Q398 91 386.5 69.5 Q375 48 367 29 Q370 14 371.5 -3.5 Q373 -21 369 -36 Q365 -51 353.5 -60.5 Q342 -70 319 -69 Q299 -72 292 -70.5 Q285 -69 285 -65.5 Q285 -62 288.5 -57 Q292 -52 293 -48 Q295 -39 289.5 -11.5 Q284 16 266 65 Q257 88 243.5 134 Q230 180 213 235.5 Q196 291 176.5 349 Q157 407 136 454.5 Q115 502 93.5 533 Q72 564 51 564 Q36 565 23.5 555.5 Q11 546 2 532 Q-7 518 -12 502.5 Q-17 487 -17 477 Q-17 455 -15.5 446 Q-14 437 -11 431 Q-7 422 -1 418 Q5 414 10.5 412 Q16 410 19.5 409.5 Q23 409 23 406 Z " />
<glyph glyph-name="W" unicode="W" horiz-adv-x="833" d="M851 554 Q857 516 850 474 Q843 432 834 398 Q829 377 818 350.5 Q807 324 792.5 296 Q778 268 762.5 240.5 Q747 213 734 190 Q720 166 703 140.5 Q686 115 672 90 Q693 48 703.5 8 Q714 -32 706 -70 Q703 -87 689.5 -102.5 Q676 -118 652 -118 Q645 -118 640 -117 Q628 -114 619 -106 Q610 -98 604 -87.5 Q598 -77 595.5 -66 Q593 -55 593 -46 Q593 -43 593 -39.5 Q593 -36 594.5 -29 Q596 -22 599 -10 Q602 2 609 22 Q597 43 580 73 Q563 103 545.5 136 Q528 169 511 202 Q494 235 481 262 Q464 234 440.5 204 Q417 174 388 139 Q396 116 402 96.5 Q408 77 411 66 Q415 49 418.5 27.5 Q422 6 420 -13 Q418 -32 406.5 -45.5 Q395 -59 368 -59 L364 -59 Q356 -60 351 -60 Q346 -60 341 -60 Q330 -60 327.5 -57.5 Q325 -55 326.5 -51.5 Q328 -48 331 -43.5 Q334 -39 335 -35 Q337 -25 331 5.5 Q325 36 304 92 Q297 110 284.5 147.5 Q272 185 257 231.5 Q242 278 225 328.5 Q208 379 192.5 423 Q177 467 164.5 500 Q152 533 145 545 Q135 563 127.5 582 Q120 601 111.5 616.5 Q103 632 91.5 642.5 Q80 653 63 654 L62 654 Q45 654 31 643 Q17 632 7 616 Q-3 600 -8 583.5 Q-13 567 -13 555 Q-13 531 -11.5 521 Q-10 511 -7 504 Q-2 494 5 489.5 Q12 485 18 482.5 Q24 480 28 479 Q32 478 32 475 Q31 473 21 471 Q11 469 -2 469 Q-14 469 -25.5 471.5 Q-37 474 -39 481 Q-44 495 -51 518.5 Q-58 542 -48 574 Q-43 603 -27.5 628.5 Q-12 654 27 667 Q50 674 59 676 Q68 678 73 678 Q76 678 79.5 677.5 Q83 677 89 677 Q102 677 119 666.5 Q136 656 152 641.5 Q168 627 181 611 Q194 595 200 585 Q206 574 222 543.5 Q238 513 256.5 474.5 Q275 436 293 396 Q311 356 321 327 Q329 307 337.5 283.5 Q346 260 355 234 Q358 226 359 222 Q360 218 361 215.5 Q362 213 363 210.5 Q364 208 366 202 Q369 194 372 185.5 Q375 177 377 169 Q383 176 388.5 182 Q394 188 399 194 Q410 208 429.5 235.5 Q449 263 468 293 Q462 305 459 314 Q451 336 444.5 358 Q438 380 434.5 402 Q431 424 432 446.5 Q433 469 441 492 Q444 499 450.5 508.5 Q457 518 466 527 Q475 536 484 542 Q493 548 501 548 Q502 548 502 547 Q510 547 517.5 541.5 Q525 536 531 528.5 Q537 521 541 512 Q545 503 545 497 Q545 491 546.5 477 Q548 463 547.5 445 Q547 427 543 405 Q539 383 529 361 Q540 329 556 297 Q572 265 590 233.5 Q608 202 626.5 171.5 Q645 141 661 111 Q673 131 689 156 Q705 181 725 214 Q743 248 758 277 Q773 306 785 334 Q797 362 804.5 391 Q812 420 815 455 Q821 526 820.5 564.5 Q820 603 807 623 Q801 633 806 630.5 Q811 628 820 617.5 Q829 607 838.5 590 Q848 573 851 554 Z " />
<glyph glyph-name="p" unicode="p" horiz-adv-x="258" d="M-20 381 Q-24 389 -9.5 388 Q5 387 23.5 377.5 Q42 368 57 351 Q72 334 69 310 Q69 304 69 297.5 Q69 291 70 285 Q70 287 74 293.5 Q78 300 82.5 308 Q87 316 91.5 323 Q96 330 98 332 Q107 349 122 349 Q137 349 154 345 Q189 337 212 301 Q224 274 228.5 244 Q233 214 231 183 Q229 152 222 121.5 Q215 91 204 63 Q197 45 183 34 Q169 23 151 19.5 Q133 16 114 21.5 Q95 27 78 43 Q77 35 76 13.5 Q75 -8 74 -31.5 Q73 -55 71.5 -75 Q70 -95 68 -101 Q64 -135 57.5 -169 Q51 -203 40 -235 Q36 -248 30.5 -260 Q25 -272 19 -283 Q13 -291 7 -295 Q1 -299 -10 -301 Q-16 -302 -23 -301 Q-30 -300 -35 -296 Q-47 -288 -52 -279 Q-57 -270 -60 -256 Q-65 -228 -63 -199 Q-61 -170 -60 -140 Q-59 -123 -55.5 -100 Q-52 -77 -47 -53.5 Q-42 -30 -35.5 -9 Q-29 12 -23 26 Q-21 32 -17.5 37.5 Q-14 43 -11 50 Q-2 73 -4 99 Q-6 125 -4 149 Q-3 167 0 200 Q3 233 3 268 Q3 303 -2 334.5 Q-7 366 -20 381 Z M123 306 Q109 290 96 267.5 Q83 245 74 228 Q76 186 80 142 Q84 98 79 62 Q98 46 113 51.5 Q128 57 139.5 80 Q151 103 159.5 142.5 Q168 182 173 234 Q174 242 173 255.5 Q172 269 169 282.5 Q166 296 159.5 307 Q153 318 143 320 Q137 321 131 315 Q125 309 123 306 Z M-5 -64 Q-4 -47 -4.5 -29.5 Q-5 -12 -5 11 Q-5 18 -4 20 Q-9 9 -12.5 -4.5 Q-16 -18 -20 -32 Q-34 -83 -41.5 -137 Q-49 -191 -44 -245 Q-43 -248 -41.5 -256 Q-40 -264 -38 -271.5 Q-36 -279 -33 -283.5 Q-30 -288 -26 -285 Q-15 -259 -11.5 -231.5 Q-8 -204 -7 -176 Q-7 -170 -6 -163 Q-5 -156 -5 -147 Q-5 -139 -6 -131.5 Q-7 -124 -7 -113 Q-7 -105 -6.5 -97.5 Q-6 -90 -6 -82 Q-5 -77 -5 -73 Q-5 -69 -5 -64 Z " />
<glyph glyph-name="X" unicode="X" horiz-adv-x="505" d="M-14 501 Q-11 500 -13 499 Q-15 498 -18.5 497.5 Q-22 497 -26.5 496.5 Q-31 496 -34 497 Q-40 498 -47.5 501.5 Q-55 505 -57 525 Q-59 545 -59 564 Q-59 583 -44 609 Q-29 635 -7 642.5 Q15 650 34 646 Q43 644 58 640.5 Q73 637 89 632 Q105 627 120 621 Q135 615 145 608 Q171 590 192.5 550.5 Q214 511 232.5 462.5 Q251 414 266.5 362.5 Q282 311 297 269 Q334 308 362 346 Q390 384 411 437 Q439 508 450.5 548.5 Q462 589 455 613 Q451 625 455 621 Q459 617 465 603.5 Q471 590 476 569.5 Q481 549 478 528 Q473 486 453 445 Q433 404 413 372 Q397 344 367.5 310.5 Q338 277 306 245 Q315 219 326 202 Q332 192 343.5 167 Q355 142 370.5 110.5 Q386 79 404.5 45 Q423 11 444 -17 Q465 -45 487 -63 Q509 -81 531 -80 Q558 -79 572.5 -69 Q587 -59 593.5 -47 Q600 -35 601 -24 Q602 -13 602 -11 Q603 -6 606.5 -11 Q610 -16 612 -21 Q613 -26 619 -42.5 Q625 -59 622 -71 Q621 -77 613 -89 Q605 -101 590 -111 Q575 -121 552 -126 Q529 -131 498 -124 Q435 -111 382 -58.5 Q329 -6 283 68 Q271 87 258.5 114.5 Q246 142 232 175 Q211 156 185.5 134 Q160 112 137 89 Q114 66 96.5 44 Q79 22 74 3 Q68 -18 60.5 -20.5 Q53 -23 45 -18 Q36 -12 28 3 Q40 19 66 46 Q88 69 125.5 106 Q163 143 224 197 Q206 244 188.5 294.5 Q171 345 157.5 388 Q144 431 135 461 Q126 491 124 497 Q121 506 114 526.5 Q107 547 96.5 568 Q86 589 72 606 Q58 623 41 626 Q24 629 11 621 Q-2 613 -10.5 601.5 Q-19 590 -24 578 Q-29 566 -30 560 Q-31 555 -31 545.5 Q-31 536 -29.5 526.5 Q-28 517 -24.5 509.5 Q-21 502 -14 501 Z " />
<glyph glyph-name="Y" unicode="Y" horiz-adv-x="489" d="M222 -176 Q230 -176 234 -175 Q266 -171 288 -153 Q310 -135 324 -109 Q338 -83 345 -51 Q352 -19 354 14.5 Q356 48 355 80.5 Q354 113 352 140 Q322 116 286.5 90 Q251 64 221 36 Q191 8 170.5 -22 Q150 -52 150 -85 Q150 -99 153.5 -115 Q157 -131 165.5 -144.5 Q174 -158 188 -167 Q202 -176 222 -176 Z M80 668 Q87 668 100.5 667 Q114 666 128.5 663.5 Q143 661 155.5 657 Q168 653 173 647 Q179 639 191.5 618.5 Q204 598 206 566 Q208 534 209.5 491 Q211 448 206 385 Q201 322 202 280 Q203 238 206 230 Q207 227 210.5 217.5 Q214 208 219.5 198 Q225 188 232.5 180 Q240 172 249 172 Q260 172 271.5 183 Q283 194 293.5 210 Q304 226 313 245.5 Q322 265 329 281.5 Q336 298 339.5 310 Q343 322 343 324 Q342 339 343 369 Q344 399 346 433 Q348 467 350 499 Q352 531 352 548 Q352 566 351.5 589 Q351 612 354 631 Q357 650 367 660 Q377 670 399 661 L400 661 Q418 652 427.5 625 Q437 598 441 561.5 Q445 525 445 483.5 Q445 442 443.5 403 Q442 364 440 332 Q438 300 438 283 Q438 271 437.5 257.5 Q437 244 437 228 Q441 230 442 230 Q445 230 444 221 Q443 212 437 204 Q436 177 436 153 Q436 129 438 104 Q439 83 437 58.5 Q435 34 431 10.5 Q427 -13 422 -34 Q417 -55 412 -70 Q407 -85 395.5 -103 Q384 -121 366 -138 Q348 -155 323 -169 Q298 -183 266 -189 Q240 -194 222.5 -196.5 Q205 -199 191 -199 Q170 -199 160 -192 Q150 -185 144 -171 Q133 -148 129.5 -110.5 Q126 -73 140 -35 Q147 -16 161.5 3 Q176 22 194.5 40 Q213 58 233.5 74 Q254 90 272 103 Q291 116 311 130.5 Q331 145 350 160 Q349 172 348.5 181.5 Q348 191 348 199 L348 260 Q337 249 325.5 231.5 Q314 214 299.5 196.5 Q285 179 268.5 166.5 Q252 154 233 154 Q230 154 226.5 154 Q223 154 219 155 Q216 155 206 157.5 Q196 160 184 166.5 Q172 173 159 185 Q146 197 136 218 Q115 260 111 323.5 Q107 387 113 475 Q125 646 101 646 Q95 645 81 638 Q67 631 51 619 Q35 607 21.5 590 Q8 573 4 552 Q-4 509 -4.5 485.5 Q-5 462 -3 454 Q-1 447 7 438.5 Q15 430 15 426 Q13 421 -3 421 Q-11 421 -19.5 423.5 Q-28 426 -34 432 Q-46 443 -49 455 Q-52 467 -53 481 Q-55 506 -45 538 Q-35 570 -17 598.5 Q1 627 26 647 Q51 667 80 668 Z " />
<glyph glyph-name="Z" unicode="Z" horiz-adv-x="445" d="M167 116 Q154 115 135.5 120.5 Q117 126 109 136 Q107 140 100.5 149 Q94 158 92 160 Q90 162 88.5 164.5 Q87 167 89 171 Q95 180 115 183 Q152 186 190 203 Q228 220 258 253.5 Q288 287 307 338.5 Q326 390 326 462 Q326 515 312 551 Q298 587 273 603.5 Q248 620 213 614.5 Q178 609 137 580 Q111 561 93 543.5 Q75 526 62 510 Q49 494 39.5 479 Q30 464 20 450 Q10 436 6 436 Q2 436 2 443 Q2 450 5 461 Q8 472 11 480 Q24 510 45 538.5 Q66 567 93 590 Q120 613 150.5 628 Q181 643 214 645 Q245 647 276 637.5 Q307 628 336 597 Q343 590 357 574 Q371 558 384.5 534 Q398 510 407.5 478 Q417 446 415 406 Q413 367 402 333 Q391 299 376.5 271 Q362 243 346 221.5 Q330 200 317 186 Q300 168 276 151 Q252 134 225 124 Q240 119 256 110.5 Q272 102 285 93 Q343 132 390.5 164 Q438 196 454 213 Q461 221 469.5 225.5 Q478 230 484 230.5 Q490 231 492 229 Q494 227 489 221 Q457 185 405.5 150.5 Q354 116 300 81 Q301 79 304 76 Q332 35 333.5 -12 Q335 -59 315.5 -99.5 Q296 -140 256.5 -167.5 Q217 -195 162 -198 Q137 -198 111 -191 Q85 -184 68 -170.5 Q51 -157 47.5 -137.5 Q44 -118 63 -92 Q76 -73 97 -52.5 Q118 -32 143 -11 Q168 10 196.5 31 Q225 52 254 72 Q247 85 232.5 96.5 Q218 108 192 116 Q179 115 167 116 Z M92 -143 Q93 -156 105.5 -161.5 Q118 -167 129 -165 Q135 -164 146.5 -159 Q158 -154 172 -145 Q186 -136 200 -123 Q214 -110 226 -92 Q249 -56 261 -23 Q273 10 267 34 Q265 39 264 44.5 Q263 50 261 55 Q226 32 194.5 8 Q163 -16 139.5 -40.5 Q116 -65 103 -90.5 Q90 -116 92 -143 Z " />
<glyph glyph-name="one" unicode="1" horiz-adv-x="218" d="M114 614 Q128 606 141.5 594 Q155 582 157 565 Q158 557 159.5 539 Q161 521 162.5 500.5 Q164 480 165 460 Q166 440 166 429 Q166 417 166.5 389 Q167 361 167 327.5 Q167 294 167 261.5 Q167 229 166 208 Q165 188 162.5 156 Q160 124 157 93.5 Q154 63 151 39 Q148 15 147 11 Q145 6 131.5 5 Q118 4 102 9 Q86 14 72.5 26 Q59 38 58 59 Q57 73 58 98.5 Q59 124 60 155.5 Q61 187 63 221 Q65 255 67.5 287 Q70 319 72 345 Q74 371 76 386 Q79 408 81.5 432.5 Q84 457 85.5 477 Q87 497 87 509.5 Q87 522 85 519 Q83 516 75 512 Q67 508 57.5 504 Q48 500 39 497.5 Q30 495 26 497 Q17 500 29 510.5 Q41 521 57 540 Q73 559 86.5 576 Q100 593 101 601 Q103 609 104 614 Q105 619 114 614 Z " />
<glyph glyph-name="two" unicode="2" horiz-adv-x="549" d="M55 399 Q58 427 73 461.5 Q88 496 115 527 Q142 558 180.5 579 Q219 600 270 601 Q306 602 337.5 588.5 Q369 575 393.5 552 Q418 529 432.5 500 Q447 471 449 442 Q446 378 434.5 325.5 Q423 273 405 230 Q387 187 364 153.5 Q341 120 316 95 Q358 79 395.5 67.5 Q433 56 458 56 Q486 56 499 63.5 Q512 71 517 80 Q522 89 523.5 94.5 Q525 100 532 96 Q539 91 540 78.5 Q541 66 533.5 52.5 Q526 39 508 27.5 Q490 16 459 13 Q442 11 421.5 15.5 Q401 20 379 28 Q357 36 333.5 46.5 Q310 57 288 69 Q252 38 218.5 21.5 Q185 5 162 -1 Q123 -12 93.5 -3 Q64 6 46.5 25 Q29 44 24.5 69 Q20 94 31.5 115 Q43 136 71.5 149 Q100 162 148 158 Q159 156 181.5 148 Q204 140 234 128 Q264 163 288.5 210 Q313 257 330.5 306 Q348 355 358.5 400.5 Q369 446 371 478 Q372 488 372 495.5 Q372 503 370.5 510 Q369 517 365 525 Q361 533 354 544 Q346 555 331 560.5 Q316 566 299 567.5 Q282 569 266 566.5 Q250 564 241 560 Q222 559 203 536.5 Q184 514 167.5 484.5 Q151 455 138 427 Q125 399 119 387 Q113 375 102 374 Q91 373 80.5 376.5 Q70 380 62.5 387 Q55 394 55 399 Z M113 61 Q141 61 166 73 Q191 85 214 107 Q199 115 186 120.5 Q173 126 164 128 Q143 133 119 123.5 Q95 114 82 100 Q69 86 73.5 73.5 Q78 61 113 61 Z " />
<glyph glyph-name="three" unicode="3" horiz-adv-x="415" d="M84 472 Q84 469 78 469.5 Q72 470 64.5 473 Q57 476 51 481.5 Q45 487 46 494 Q47 501 56.5 516 Q66 531 81 546.5 Q96 562 115.5 574 Q135 586 155 587 Q175 588 200 587.5 Q225 587 250 582 Q275 577 297.5 565.5 Q320 554 336 535 Q352 515 358 500 Q364 485 364.5 473 Q365 461 362.5 452.5 Q360 444 359 437 Q359 431 355 417 Q351 403 343.5 388.5 Q336 374 325.5 363 Q315 352 300 351 Q323 336 342 320 Q359 306 373 288.5 Q387 271 390 254 Q393 237 393.5 212.5 Q394 188 391.5 163 Q389 138 383.5 116 Q378 94 368 81 Q358 68 338.5 51.5 Q319 35 292 20.5 Q265 6 232.5 -3.5 Q200 -13 166 -12 Q97 -10 56 16.5 Q15 43 13 81 Q12 100 14.5 106 Q17 112 21 110.5 Q25 109 30 101.5 Q35 94 39 85 Q43 76 51.5 65 Q60 54 72.5 44.5 Q85 35 102.5 29.5 Q120 24 143 26 Q189 30 224.5 55 Q260 80 279 111 Q288 126 297.5 155.5 Q307 185 312.5 216.5 Q318 248 315.5 275.5 Q313 303 298 313 Q283 323 262 327.5 Q241 332 221.5 335 Q202 338 187 341.5 Q172 345 168 353 Q164 362 166.5 365.5 Q169 369 176.5 370.5 Q184 372 195.5 374 Q207 376 221 381 Q235 386 253 401 Q271 416 284 436 Q297 456 300.5 478 Q304 500 289 519 Q274 537 257 546 Q240 555 225 558.5 Q210 562 198.5 561.5 Q187 561 183 561 Q179 561 162.5 553 Q146 545 128 532 Q110 519 96.5 503 Q83 487 84 472 Z " />
<glyph glyph-name="four" unicode="4" horiz-adv-x="393" d="M257 529 Q263 529 274 528 Q285 527 296 524 Q307 521 316 515 Q325 509 328 498 Q330 487 332 466 Q334 445 335 421 Q336 397 336.5 374 Q337 351 337 336 L337 314 Q343 319 347.5 322 Q352 325 354 327 Q364 333 364.5 321.5 Q365 310 344 295 Q342 293 336 289 Q336 261 335.5 225 Q335 189 334.5 154.5 Q334 120 334 92 Q334 64 335 53 Q336 39 336 31 Q336 23 336 18.5 Q336 14 336 10.5 Q336 7 337 3 Q337 -2 327 -6.5 Q317 -11 303.5 -10.5 Q290 -10 277.5 -0.5 Q265 9 260 32 Q250 79 245 126 Q240 173 240 204 L240 239 Q222 234 203 232 Q184 230 164 233 Q104 243 70 267 Q36 291 36 323 Q36 339 38.5 361.5 Q41 384 46.5 410.5 Q52 437 60.5 464 Q69 491 80 516 Q91 541 96 558 Q101 575 102 586 Q103 597 102 603 Q101 609 101 612 Q100 620 112.5 613.5 Q125 607 140.5 593.5 Q156 580 168.5 563 Q181 546 180 534 Q178 522 168.5 488 Q159 454 149 416.5 Q139 379 131.5 345.5 Q124 312 126 300 Q128 288 136.5 276.5 Q145 265 158.5 258 Q172 251 190 249 Q208 247 230 255 Q236 257 240 259 Q240 280 240.5 305 Q241 330 242 354 Q243 378 244.5 400 Q246 422 248 439 Q251 461 251.5 478 Q252 495 252 506.5 Q252 518 252.5 523.5 Q253 529 257 529 Z " />
<glyph glyph-name="five" unicode="5" horiz-adv-x="338" d="M90 615 Q95 613 100 607.5 Q105 602 115.5 596 Q126 590 145 585 Q164 580 197 580 Q263 578 302 583 Q341 588 346 588 Q351 588 349 575 Q347 562 333 556 Q327 553 302.5 551 Q278 549 249 548.5 Q220 548 193.5 548.5 Q167 549 156 552 Q157 544 158 536 Q159 528 160 519.5 Q161 511 161 501 Q161 491 154 468.5 Q147 446 139.5 422 Q132 398 127.5 379 Q123 360 128 358 Q133 355 152.5 349.5 Q172 344 194.5 333 Q217 322 237 306 Q257 290 263 266 Q270 242 274 225 Q278 208 280 194.5 Q282 181 281 168.5 Q280 156 276 143 Q272 129 256.5 110.5 Q241 92 219.5 74.5 Q198 57 172.5 44 Q147 31 123 30 Q99 29 76.5 34.5 Q54 40 38.5 46.5 Q23 53 18 59.5 Q13 66 25 67 Q37 68 49 66.5 Q61 65 72.5 64.5 Q84 64 95.5 65 Q107 66 119 71 Q131 76 146.5 88 Q162 100 175.5 118.5 Q189 137 197.5 161 Q206 185 205 215 Q205 255 191.5 276 Q178 297 160 308.5 Q142 320 123 327 Q104 334 93 345 Q82 357 72 365 Q62 373 55.5 383 Q49 393 47 406.5 Q45 420 49 441 Q53 462 59 483.5 Q65 505 71.5 524.5 Q78 544 83.5 560 Q89 576 91 585 Q91 590 89 596 Q87 602 86 607 Q85 612 85.5 614.5 Q86 617 90 615 Z " />
<glyph glyph-name="six" unicode="6" horiz-adv-x="355" d="M215 604 Q228 589 238.5 570.5 Q249 552 244 531 Q241 520 230 492 Q219 464 206 433 Q193 402 180.5 376 Q168 350 164 343 Q161 338 155.5 327.5 Q150 317 143 302 Q166 307 194.5 308 Q223 309 251 298 Q277 287 291 272 Q305 257 311 242 Q317 227 318.5 214 Q320 201 320 194 Q320 189 321 175 Q322 161 320.5 142 Q319 123 314 102 Q309 81 298.5 63.5 Q288 46 270.5 34 Q253 22 225 22 Q142 20 88 57.5 Q34 95 32 176 Q31 213 36 245 Q41 277 50 304 Q59 331 70.5 355 Q82 379 96 401 Q135 454 157 494 Q179 534 190.5 560 Q202 586 206.5 597 Q211 608 215 604 Z M106 150 Q112 134 121 115 Q130 96 142 79.5 Q154 63 168 51.5 Q182 40 196 40 Q225 40 245 68 Q265 96 271 141 Q274 163 270.5 187.5 Q267 212 259 232.5 Q251 253 239 267 Q227 281 214 281 Q203 281 189.5 277 Q176 273 162 264.5 Q148 256 135 245 Q122 234 113 221 Q107 199 104 180 Q101 161 106 150 Z " />
<glyph glyph-name="seven" unicode="7" horiz-adv-x="524" d="M529 567 Q533 564 541 561 Q549 558 553 556 Q557 554 552.5 553 Q548 552 526 553 Q519 554 513 554 Q507 554 500 555 Q485 547 465.5 534.5 Q446 522 437 511 Q395 462 355.5 401.5 Q316 341 282.5 276.5 Q249 212 224 147 Q199 82 186 25 Q181 20 173 25 Q165 30 156.5 41 Q148 52 142 68 Q136 84 135 103 Q135 130 144.5 166.5 Q154 203 171.5 244.5 Q189 286 213 330 Q237 374 264.5 415.5 Q292 457 321.5 493.5 Q351 530 381 558 Q327 558 280 554.5 Q233 551 198 546.5 Q163 542 141.5 536.5 Q120 531 119 526 Q113 524 112.5 517.5 Q112 511 112.5 504.5 Q113 498 113 492.5 Q113 487 107 486 Q101 486 93 488.5 Q85 491 78 496 Q71 501 66.5 507 Q62 513 64 520 Q68 539 90.5 551 Q113 563 145 570 Q177 577 216 580 Q255 583 292 583.5 Q329 584 360.5 583 Q392 582 410 582 Q437 603 462 611 Q471 604 480 597 Q488 591 496.5 584.5 Q505 578 511 573 Q524 570 529 567 Z " />
<glyph glyph-name="eight" unicode="8" horiz-adv-x="464" d="M100 499 Q105 546 123 571 Q141 596 164 607 Q187 618 211.5 619.5 Q236 621 254 621 Q272 621 296 613 Q320 605 341 592 Q362 579 376 561.5 Q390 544 387 523 Q384 502 378 476.5 Q372 451 365 427 Q358 403 350.5 384.5 Q343 366 339 359 Q334 352 325 347 Q316 342 304.5 338.5 Q293 335 281 332.5 Q269 330 259 328 Q278 313 293.5 300.5 Q309 288 320 280 Q337 265 354 249.5 Q371 234 384 216.5 Q397 199 404.5 180.5 Q412 162 412 141 Q412 120 399.5 95 Q387 70 366.5 48 Q346 26 320 12 Q294 -2 266 0 Q237 1 199 14.5 Q161 28 126.5 53 Q92 78 68 114.5 Q44 151 45 198 Q45 225 52.5 252.5 Q60 280 72 305.5 Q84 331 98.5 354 Q113 377 128 395 Q115 418 107.5 443.5 Q100 469 100 499 Z M155 297 Q152 287 145 269.5 Q138 252 131.5 233 Q125 214 120 197 Q115 180 116 173 Q117 165 124.5 142 Q132 119 147.5 94.5 Q163 70 186 52 Q209 34 240 36 Q271 38 292.5 48 Q314 58 327.5 72 Q341 86 346.5 103.5 Q352 121 352 138 Q350 163 333 186 Q316 209 290 232 Q264 255 233.5 279.5 Q203 304 176 333 Q169 322 163 312.5 Q157 303 155 297 Z M194 447 Q215 430 224 419 Q233 408 225 397 Q220 392 207 374 Q212 369 217 364.5 Q222 360 227 355 Q232 363 239.5 375 Q247 387 256 403 Q267 423 282.5 452.5 Q298 482 307.5 510.5 Q317 539 316.5 561.5 Q316 584 296 589 Q276 594 247 593 Q218 592 191 582.5 Q164 573 145.5 553.5 Q127 534 128 502 Q128 484 136 465.5 Q144 447 158 428 Q185 454 194 447 Z " />
<glyph glyph-name="nine" unicode="9" horiz-adv-x="374" d="M57 8 Q47 10 52 23 Q57 36 71 55.5 Q85 75 104 99 Q123 123 141 147 Q159 171 173.5 192.5 Q188 214 191 229 Q193 234 200 250.5 Q207 267 218 288 Q194 284 162 286 Q130 288 101 306 Q77 321 65.5 338 Q54 355 50 370.5 Q46 386 46.5 399 Q47 412 48 419 Q48 426 51.5 453 Q55 480 66.5 509 Q78 538 101.5 559 Q125 580 166 575 Q249 564 295 515.5 Q341 467 335 395 Q332 358 321.5 324 Q311 290 297 260 Q283 230 265.5 204.5 Q248 179 232 159 Q211 127 186 98.5 Q161 70 136.5 49 Q112 28 91 16.5 Q70 5 57 8 Z M266 431 Q263 447 256 467.5 Q249 488 240 506.5 Q231 525 219 538 Q207 551 193 553 Q164 558 140 532.5 Q116 507 104 464 Q98 443 97.5 418 Q97 393 102 371.5 Q107 350 116.5 335 Q126 320 140 317 Q150 315 165 318 Q180 321 196 327.5 Q212 334 227 344 Q242 354 253 367 Q261 387 264.5 403.5 Q268 420 266 431 Z " />
<glyph glyph-name="zero" unicode="0" horiz-adv-x="480" d="M34 535 Q79 566 123.5 576.5 Q168 587 208.5 584.5 Q249 582 284 570 Q319 558 345 543 Q373 531 391 506 Q409 481 419.5 453.5 Q430 426 434.5 401.5 Q439 377 441 366 Q443 344 440.5 307 Q438 270 431 222 Q428 199 420 161.5 Q412 124 392 89 Q372 54 335.5 28 Q299 2 239 2 Q189 2 154.5 15.5 Q120 29 97.5 50 Q75 71 63 97 Q51 123 45 147.5 Q39 172 37 192.5 Q35 213 34 223 Q33 239 34.5 263 Q36 287 39 312 Q42 337 45.5 359.5 Q49 382 51 396 Q52 409 59.5 433.5 Q67 458 77.5 481 Q88 504 100 520 Q112 536 124 532 Q169 530 187.5 526.5 Q206 523 206.5 515 Q207 507 196 494.5 Q185 482 172 463 Q146 425 124.5 361 Q103 297 102 213 Q101 171 108 136.5 Q115 102 132.5 78 Q150 54 179.5 42 Q209 30 253 34 Q296 37 320 67.5 Q344 98 355 140 Q366 182 367 227.5 Q368 273 365 306 Q360 372 339 426 Q318 480 264 524 Q237 546 197.5 550 Q158 554 122 551 Q79 547 34 535 Z " />
<glyph glyph-name="fraction" unicode="&#x2044;" horiz-adv-x="399" d="M393 638 Q394 635 374.5 597 Q355 559 324 502.5 Q293 446 255 379 Q217 312 182 251.5 Q147 191 119.5 144.5 Q92 98 82 82 Q67 58 50.5 38 Q34 18 21.5 8 Q9 -2 3 1 Q-3 4 4 25 Q8 39 22.5 70 Q37 101 56 140.5 Q75 180 97 223 Q119 266 139 304.5 Q159 343 174.5 372.5 Q190 402 197 414 Q203 426 216.5 450 Q230 474 246.5 503 Q263 532 280.5 562 Q298 592 313 617 Q328 642 338 657.5 Q348 673 350 673 Q353 672 359.5 667.5 Q366 663 373 657 Q380 651 386 645.5 Q392 640 393 638 Z " />
<glyph glyph-name="exclam" unicode="&#x21;" horiz-adv-x="168" d="M71 81 Q66 80 63 74 Q60 68 58 60.5 Q56 53 55 45.5 Q54 38 55 35 Q57 28 73.5 14.5 Q90 1 113 0 Q124 -1 130.5 6 Q137 13 139 22.5 Q141 32 140.5 41 Q140 50 138 53 Q136 56 131.5 62 Q127 68 119 73 Q111 78 99.5 80.5 Q88 83 71 81 Z M59 646 Q66 641 74.5 637 Q83 633 90.5 626 Q98 619 104 607.5 Q110 596 113 578 Q116 560 118.5 532.5 Q121 505 122.5 475.5 Q124 446 125.5 419 Q127 392 129 375 Q130 358 130 325.5 Q130 293 128.5 258.5 Q127 224 125 193.5 Q123 163 122 149 Q120 120 118.5 108 Q117 96 98 98 Q78 100 64.5 119.5 Q51 139 50 169 Q50 179 50 204.5 Q50 230 51 262.5 Q52 295 52.5 330.5 Q53 366 53.5 397 Q54 428 54 450.5 Q54 473 54 478 Q54 486 52 514.5 Q50 543 49.5 573.5 Q49 604 50.5 627 Q52 650 59 646 Z " />
<glyph glyph-name="quotedbl" unicode="&#x22;" horiz-adv-x="169" d="M35 517 Q55 517 65.5 510.5 Q76 504 80 494 Q84 484 83.5 471.5 Q83 459 81 447 Q78 434 67 422 Q56 410 45 402 Q34 394 27 391 Q20 388 25 394 Q30 399 34.5 411.5 Q39 424 42.5 438 Q46 452 47.5 464 Q49 476 49 481 Q49 485 45.5 491 Q42 497 38.5 503 Q35 509 33.5 513 Q32 517 35 517 Z M90 517 Q110 517 120.5 510.5 Q131 504 135.5 494 Q140 484 139 471.5 Q138 459 136 447 Q134 434 123 422 Q112 410 101 402 Q90 394 82.5 391 Q75 388 80 394 Q85 399 89.5 411.5 Q94 424 97.5 438 Q101 452 102.5 464 Q104 476 104 481 Q104 485 100.5 491 Q97 497 93.5 503 Q90 509 88.5 513 Q87 517 90 517 Z " />
<glyph glyph-name="numbersign" unicode="&#x23;" horiz-adv-x="442" d="M335 175 Q366 175 385.5 175.5 Q405 176 403 170 Q402 166 400.5 158.5 Q399 151 394.5 143 Q390 135 382 129 Q374 123 360 122 Q345 121 328.5 120 Q312 119 296 117 L296 114 Q296 102 297 87 Q298 72 298.5 57.5 Q299 43 297 32 Q295 21 288 18 Q281 15 275 15 Q269 15 264.5 20 Q260 25 257 36.5 Q254 48 253 68 Q252 76 252 88 Q252 100 251 114 Q243 114 230.5 115 Q218 116 206 117.5 Q194 119 184.5 120.5 Q175 122 171 123 L171 114 Q171 102 172 87 Q173 72 173.5 57.5 Q174 43 172 32 Q170 21 163 18 Q156 15 150 15 Q144 15 139.5 20 Q135 25 132 36.5 Q129 48 128 68 Q127 78 126.5 91.5 Q126 105 125 122 L117 122 Q105 122 90 121 Q75 120 61 119.5 Q47 119 36 121 Q25 123 22 130 Q19 137 18.5 143 Q18 149 23.5 154 Q29 159 40.5 162 Q52 165 72 166 Q81 166 94 166.5 Q107 167 123 168 Q122 188 121.5 208 Q121 228 120 247 L117 247 Q105 247 90 246 Q75 245 61 244.5 Q47 244 36 246 Q25 248 22 255 Q19 262 18.5 268.5 Q18 275 23.5 279.5 Q29 284 40.5 287 Q52 290 72 291 Q80 291 92 291.5 Q104 292 119 293 Q118 305 118 315 Q118 325 118 331 Q118 363 117.5 382 Q117 401 123 400 Q127 399 134.5 397.5 Q142 396 150 391.5 Q158 387 164 379 Q170 371 171 357 Q172 343 173 326.5 Q174 310 175 295 Q192 296 209.5 296.5 Q227 297 244 298 Q243 309 243 317.5 Q243 326 243 331 Q243 363 242.5 382 Q242 401 248 400 Q252 399 259.5 397.5 Q267 396 275 391.5 Q283 387 289 379 Q295 371 296 357 Q297 343 298 328.5 Q299 314 300 300 L335 300 Q366 300 385.5 300.5 Q405 301 403 295 Q402 291 400.5 283.5 Q399 276 394.5 268 Q390 260 382 254 Q374 248 360 247 Q347 246 332.5 245.5 Q318 245 304 243 Q304 229 301.5 207.5 Q299 186 297 175 L335 175 Z M171 170 Q191 171 210 171.5 Q229 172 248 173 Q247 190 246.5 206.5 Q246 223 246 239 Q231 239 211 241.5 Q191 244 179 246 Q179 238 178.5 227 Q178 216 176.5 205 Q175 194 173.5 184.5 Q172 175 171 170 Z " />
<glyph glyph-name="dollar" unicode="&#x24;" horiz-adv-x="439" d="M244 385 Q268 366 295 339 Q322 312 350 273 Q377 222 388.5 174 Q400 126 391 87 Q382 48 349.5 20.5 Q317 -7 257 -17 Q255 -17 253 -17.5 Q251 -18 249 -18 Q249 -34 248.5 -45 Q248 -56 248 -61 Q247 -75 251 -85.5 Q255 -96 259 -102 Q263 -108 263 -110.5 Q263 -113 253 -112 Q233 -110 219.5 -90.5 Q206 -71 205 -41 L205 -19 Q188 -19 171.5 -17.5 Q155 -16 140 -12 Q98 -2 77 28 Q71 36 68.5 41.5 Q66 47 64 55 Q53 82 50 108.5 Q47 135 49 148 Q49 151 52.5 161 Q56 171 60 178 Q64 185 69 184.5 Q74 184 77 167 L77 161 Q77 148 79.5 132 Q82 116 87 100.5 Q92 85 100 71.5 Q108 58 120 50 Q135 32 156.5 20 Q178 8 204 9 Q204 57 203.5 131.5 Q203 206 202 284 Q176 306 149 327 Q122 348 100 369.5 Q78 391 64.5 415 Q51 439 51 467 Q51 486 63 505.5 Q75 525 94.5 544 Q114 563 140 579 Q166 595 195 607 Q194 626 194 645 Q194 664 194.5 678.5 Q195 693 197.5 701.5 Q200 710 204 708 Q211 703 219.5 699 Q228 695 235.5 688 Q243 681 249 669.5 Q255 658 258 640 Q259 636 259 626 Q293 631 322.5 626 Q352 621 371 601 Q388 583 393 559.5 Q398 536 394 513 Q392 504 387 500 Q382 496 376 496 Q373 496 367.5 496 Q362 496 357.5 497 Q353 498 350.5 501 Q348 504 350 510 Q356 532 347 558 Q339 570 314 571.5 Q289 573 257 566 Q255 542 252.5 516 Q250 490 247.5 466 Q245 442 244 422.5 Q243 403 244 391 L244 385 Z M149 461 Q158 450 171 440 Q184 430 201 418 Q200 469 200 502 Q200 535 199 540 L199 547 Q181 539 167 529.5 Q153 520 145.5 509 Q138 498 138 486 Q138 474 149 461 Z M302 87 Q310 136 293.5 173.5 Q277 211 248 242 Q249 185 249 125 Q249 65 249 18 Q265 24 275.5 33 Q286 42 291.5 52 Q297 62 299 71.5 Q301 81 302 87 Z " />
<glyph glyph-name="ampersand" unicode="&#x26;" horiz-adv-x="565" d="M516 204 Q516 184 507 158 Q498 132 480.5 105 Q463 78 436.5 53.5 Q410 29 376 12 Q395 -26 414 -55.5 Q433 -85 451 -100 Q439 -110 428 -115 Q418 -120 407.5 -121.5 Q397 -123 388 -117 Q382 -112 362 -83 Q342 -54 316 -8 Q306 -10 296.5 -11 Q287 -12 277 -13 Q218 -16 172 0.5 Q126 17 94 44.5 Q62 72 45.5 108 Q29 144 29 182 Q29 209 39 236.5 Q49 264 66.5 291 Q84 318 106.5 344.5 Q129 371 153 396 Q147 432 147 467 Q147 521 165.5 555 Q184 589 209 607.5 Q234 626 260 632.5 Q286 639 300 639 Q315 639 327 632 Q339 625 347.5 614 Q356 603 360.5 590.5 Q365 578 365 567 Q365 546 354.5 523.5 Q344 501 326.5 477.5 Q309 454 286.5 430 Q264 406 240 382 Q250 345 263.5 303 Q277 261 292 217 Q307 173 324 129 Q341 85 359 46 Q407 67 440.5 103.5 Q474 140 474 188 Q474 230 458 260.5 Q442 291 423 311.5 Q404 332 388 343 Q372 354 372 358 Q372 362 394.5 356 Q417 350 444 332 Q471 314 493.5 282.5 Q516 251 516 204 Z M173 313 Q136 274 111 235 Q86 196 86 158 Q86 115 104.5 86.5 Q123 58 153 42.5 Q183 27 220.5 23.5 Q258 20 296 27 Q262 88 228.5 163 Q195 238 173 313 Z M325 599 Q325 614 316.5 616.5 Q308 619 295.5 613 Q283 607 268.5 594.5 Q254 582 241.5 566.5 Q229 551 220.5 535 Q212 519 212 506 Q212 500 213.5 488.5 Q215 477 219 461 Q241 482 260 501 Q279 520 293.5 537.5 Q308 555 316.5 570.5 Q325 586 325 599 Z " />
<glyph glyph-name="quotesingle" unicode="&#x27;" horiz-adv-x="120" d="M45 518 Q65 518 75.5 511.5 Q86 505 90 495 Q94 485 93.5 472.5 Q93 460 91 448 Q88 435 77 423 Q66 411 55 403 Q44 395 37 392 Q30 389 35 395 Q40 400 44.5 412.5 Q49 425 52.5 439 Q56 453 57.5 465 Q59 477 59 482 Q59 486 55.5 492 Q52 498 48.5 504 Q45 510 43.5 514 Q42 518 45 518 Z " />
<glyph glyph-name="parenleft" unicode="&#x28;" horiz-adv-x="232" d="M201 656 Q204 659 209 655.5 Q214 652 218.5 646.5 Q223 641 226 634.5 Q229 628 228 624 Q227 621 216 607.5 Q205 594 188 572 Q171 550 151 521.5 Q131 493 114 461.5 Q97 430 85.5 397 Q74 364 74 333 Q74 287 77.5 244 Q81 201 95 160.5 Q109 120 135 81 Q161 42 206 4 Q224 -11 213.5 -12 Q203 -13 179 -1 Q155 11 125 35 Q95 59 74 92 Q60 114 46.5 150.5 Q33 187 25.5 232.5 Q18 278 20 330.5 Q22 383 41 438.5 Q60 494 98.5 549.5 Q137 605 201 656 Z " />
<glyph glyph-name="parenright" unicode="&#x29;" horiz-adv-x="240" d="M31 -30 Q28 -33 23 -29.5 Q18 -26 13.5 -20.5 Q9 -15 6 -8.5 Q3 -2 4 2 Q4 4 15.5 18 Q27 32 44 54 Q61 76 81 104.5 Q101 133 118 164.5 Q135 196 146.5 229 Q158 262 158 293 Q158 339 154.5 382 Q151 425 137 465.5 Q123 506 97 545 Q71 584 26 622 Q8 637 18.5 638 Q29 639 53 627 Q77 615 107 591 Q137 567 158 534 Q172 511 185.5 475 Q199 439 206.5 393.5 Q214 348 212 295 Q210 242 191 187 Q172 132 133.5 76.5 Q95 21 31 -30 Z " />
<glyph glyph-name="asterisk" unicode="&#x2a;" horiz-adv-x="281" d="M221 419 Q222 409 211.5 396.5 Q201 384 195 378 Q193 376 181.5 366.5 Q170 357 156 344 Q176 327 191.5 313.5 Q207 300 209 299 Q210 298 214 294.5 Q218 291 221 287 Q224 283 225 279.5 Q226 276 221 275 Q212 272 198 281 Q184 290 177 295 Q171 299 153 314 Q154 287 154.5 265 Q155 243 155 240 Q155 237 152 234.5 Q149 232 145.5 231.5 Q142 231 138.5 234.5 Q135 238 133 247 Q131 255 130 275 Q129 295 127 320 Q107 303 90.5 289.5 Q74 276 72 274 Q70 272 66 272.5 Q62 273 59.5 275.5 Q57 278 57.5 282.5 Q58 287 64 295 Q69 301 84.5 314.5 Q100 328 118 344 Q95 364 76 380.5 Q57 397 55 399 Q53 401 53 405 Q53 409 55 412 Q57 415 62 415.5 Q67 416 75 411 Q81 406 95 395 Q109 384 126 370 Q125 390 124.5 404.5 Q124 419 124 421 Q124 423 123.5 428 Q123 433 124 438.5 Q125 444 127 447 Q129 450 133 447 Q141 442 144.5 425.5 Q148 409 149 401 Q149 399 149.5 391 Q150 383 150 372 Q168 387 180.5 397.5 Q193 408 195 410 Q196 411 200 414.5 Q204 418 208.5 420.5 Q213 423 217 423.5 Q221 424 221 419 Z " />
<glyph glyph-name="plus" unicode="&#x2b;" horiz-adv-x="328" d="M276 213 Q294 203 297 191 Q300 179 271 179 Q259 179 236 177.5 Q213 176 187 174 Q187 165 187 153.5 Q187 142 186.5 131 Q186 120 185.5 110.5 Q185 101 183 97 Q180 93 175.5 86.5 Q171 80 165.5 75.5 Q160 71 155.5 70.5 Q151 70 150 76 Q148 87 145.5 108.5 Q143 130 143 170 Q119 168 100 167 Q81 166 73 167 Q62 168 53.5 175.5 Q45 183 40.5 191.5 Q36 200 36 205.5 Q36 211 43 209 Q52 206 82 208.5 Q112 211 143 213 Q143 233 142.5 250.5 Q142 268 142.5 281.5 Q143 295 145 302.5 Q147 310 152 310 Q156 310 162 309.5 Q168 309 173.5 307.5 Q179 306 183 303 Q187 300 187 294 L187 216 Q215 216 236.5 219.5 Q258 223 276 213 Z " />
<glyph glyph-name="comma" unicode="&#x2c;" horiz-adv-x="120" d="M40 60 Q45 60 53.5 59.5 Q62 59 71 56.5 Q80 54 86.5 48.5 Q93 43 94 34 Q95 25 93 11 Q91 -3 86 -17 Q81 -31 71.5 -42.5 Q62 -54 47 -58 Q32 -62 29 -59.5 Q26 -57 28.5 -50 Q31 -43 35.5 -32.5 Q40 -22 40 -11 Q41 0 40 12.5 Q39 25 38 35.5 Q37 46 37 53 Q37 60 40 60 Z " />
<glyph glyph-name="hyphen" unicode="&#x2d;" horiz-adv-x="358" d="M42 165 Q43 165 60.5 166 Q78 167 103.5 168 Q129 169 159.5 170 Q190 171 217.5 172 Q245 173 265 173 Q285 173 291 172 Q299 171 306.5 164 Q314 157 319 149 Q324 141 325 133.5 Q326 126 322 125 Q319 124 300 123 Q281 122 254 121.5 Q227 121 196 120.5 Q165 120 138.5 120.5 Q112 121 93.5 121.5 Q75 122 74 123 Q72 124 65.5 130.5 Q59 137 53 144.5 Q47 152 43 158 Q39 164 42 165 Z " />
<glyph glyph-name="equal" unicode="&#x3d;" horiz-adv-x="370" d="M46 174 Q47 174 64.5 175 Q82 176 107.5 177 Q133 178 163.5 179 Q194 180 221 180.5 Q248 181 268 181 Q288 181 294 180 Q303 179 310.5 172 Q318 165 323 157 Q328 149 329 142 Q330 135 326 134 Q323 133 304 132 Q285 131 258 130.5 Q231 130 200 129.5 Q169 129 142.5 129 Q116 129 97.5 129.5 Q79 130 78 131 Q76 133 69.5 139.5 Q63 146 57 153.5 Q51 161 47 167 Q43 173 46 174 Z M46 259 Q47 259 64.5 260 Q82 261 107.5 262 Q133 263 163.5 264 Q194 265 221 266 Q248 267 268 267 Q288 267 294 266 Q303 265 310.5 258 Q318 251 323 243 Q328 235 329 227.5 Q330 220 326 219 Q323 218 304 217 Q285 216 258 215.5 Q231 215 200 214.5 Q169 214 142.5 214.5 Q116 215 97.5 215.5 Q79 216 78 217 Q76 218 69.5 224.5 Q63 231 57 238.5 Q51 246 47 252 Q43 258 46 259 Z " />
<glyph glyph-name="period" unicode="&#x2e;" horiz-adv-x="135" d="M45 72 Q61 74 72 71.5 Q83 69 90 64.5 Q97 60 101 54.5 Q105 49 107 46 Q109 43 109.5 35 Q110 27 108 18.5 Q106 10 100 3.5 Q94 -3 84 -3 Q63 -2 47.5 11 Q32 24 30 30 Q29 33 30 40 Q31 47 33 54 Q35 61 38 66.5 Q41 72 45 72 Z " />
<glyph glyph-name="slash" unicode="&#x2f;" horiz-adv-x="399" d="M393 638 Q394 635 374.5 597 Q355 559 324 502.5 Q293 446 255 379 Q217 312 182 251.5 Q147 191 119.5 144.5 Q92 98 82 82 Q67 58 50.5 38 Q34 18 21.5 8 Q9 -2 3 1 Q-3 4 4 25 Q8 39 22.5 70 Q37 101 56 140.5 Q75 180 97 223 Q119 266 139 304.5 Q159 343 174.5 372.5 Q190 402 197 414 Q203 426 216.5 450 Q230 474 246.5 503 Q263 532 280.5 562 Q298 592 313 617 Q328 642 338 657.5 Q348 673 350 673 Q353 672 359.5 667.5 Q366 663 373 657 Q380 651 386 645.5 Q392 640 393 638 Z " />
<glyph glyph-name="colon" unicode="&#x3a;" horiz-adv-x="133" d="M45 72 Q61 74 72 71.5 Q83 69 90 64.5 Q97 60 101 54.5 Q105 49 107 46 Q109 43 109.5 35 Q110 27 108 18.5 Q106 10 100 3.5 Q94 -3 84 -3 Q63 -2 47.5 11 Q32 24 30 30 Q29 33 30 40 Q31 47 33 54 Q35 61 38 66.5 Q41 72 45 72 Z M45 242 Q61 244 72 241.5 Q83 239 90 234.5 Q97 230 101 224.5 Q105 219 107 216 Q109 213 109.5 205 Q110 197 108 188.5 Q106 180 100 173.5 Q94 167 84 167 Q63 168 47.5 181 Q32 194 30 200 Q29 203 30 210 Q31 217 33 224 Q35 231 38 236.5 Q41 242 45 242 Z " />
<glyph glyph-name="semicolon" unicode="&#x3b;" horiz-adv-x="130" d="M45 242 Q61 244 72 241.5 Q83 239 90 234.5 Q97 230 101 224.5 Q105 219 107 216 Q109 213 109.5 205 Q110 197 108 188.5 Q106 180 100 173.5 Q94 167 84 167 Q63 168 47.5 181 Q32 194 30 200 Q29 203 30 210 Q31 217 33 224 Q35 231 38 236.5 Q41 242 45 242 Z M40 60 Q45 60 53.5 59.5 Q62 59 71 56.5 Q80 54 86.5 48.5 Q93 43 94 34 Q95 25 93 11 Q91 -3 86 -17 Q81 -31 71.5 -42.5 Q62 -54 47 -58 Q32 -62 29 -59.5 Q26 -57 28.5 -50 Q31 -43 35.5 -32.5 Q40 -22 40 -11 Q41 0 40 12.5 Q39 25 38 35.5 Q37 46 37 53 Q37 60 40 60 Z " />
<glyph glyph-name="less" unicode="&#x3c;" horiz-adv-x="251" d="M163 355 Q163 360 169.5 356 Q176 352 183 343.5 Q190 335 193.5 324 Q197 313 190 303 Q182 293 163 269.5 Q144 246 123 221 Q98 192 70 159 Q108 121 141 90 Q155 77 168.5 64 Q182 51 193.5 40 Q205 29 213 21.5 Q221 14 224 12 Q229 8 228 5.5 Q227 3 222 3 Q217 3 208.5 5 Q200 7 190 12 Q183 15 168 27 Q153 39 133.5 56 Q114 73 93 92 Q72 111 55 128.5 Q38 146 26.5 159.5 Q15 173 15 179 Q15 185 25.5 198.5 Q36 212 52.5 230 Q69 248 88 267.5 Q107 287 123.5 304.5 Q140 322 151.5 336 Q163 350 163 355 Z " />
<glyph glyph-name="greater" unicode="&#x3e;" horiz-adv-x="237" d="M73 355 Q73 350 84.5 336 Q96 322 112.5 304.5 Q129 287 148 267.5 Q167 248 183.5 230 Q200 212 210.5 198.5 Q221 185 221 179 Q221 173 209.5 159.5 Q198 146 181 128.5 Q164 111 143 92 Q122 73 102.5 56 Q83 39 67.5 27 Q52 15 46 12 Q36 7 27.5 5 Q19 3 14 3 Q9 3 8 5.5 Q7 8 12 12 Q15 14 23 21.5 Q31 29 42.5 40 Q54 51 67.5 64 Q81 77 95 90 Q128 121 166 159 Q138 192 113 221 Q92 246 72.5 269.5 Q53 293 46 303 Q39 313 42.5 324 Q46 335 53 343.5 Q60 352 66.5 356 Q73 360 73 355 Z " />
<glyph glyph-name="question" unicode="&#x3f;" horiz-adv-x="303" d="M18 413 Q17 425 24.5 443 Q32 461 49.5 478 Q67 495 94.5 507.5 Q122 520 161 520 Q199 520 222.5 509.5 Q246 499 258 482.5 Q270 466 273 445.5 Q276 425 274.5 406 Q273 387 269.5 372 Q266 357 264 351 Q262 342 249 323 Q236 304 219 283 Q202 262 185.5 243.5 Q169 225 159 217 Q150 209 138.5 194.5 Q127 180 117.5 164.5 Q108 149 101 136 Q94 123 94 117 Q94 111 94.5 101 Q95 91 93.5 83 Q92 75 87.5 72.5 Q83 70 73 79 Q62 88 59.5 105 Q57 122 58.5 141.5 Q60 161 63.5 179 Q67 197 70 209 Q73 220 87 240.5 Q101 261 119.5 283.5 Q138 306 156.5 326.5 Q175 347 186 358 Q197 369 206.5 392 Q216 415 219.5 438 Q223 461 218.5 479 Q214 497 197 499 Q156 500 130 489 Q104 478 89.5 463 Q75 448 70 433.5 Q65 419 66 413 Q67 407 69.5 400.5 Q72 394 74 389.5 Q76 385 76.5 382.5 Q77 380 74 380 Q71 381 62 384 Q53 387 43.5 391.5 Q34 396 26 401.5 Q18 407 18 413 Z M69 49 Q83 51 92.5 48.5 Q102 46 109 42 Q116 38 119.5 33.5 Q123 29 125 26 Q126 23 126.5 15.5 Q127 8 125 0.5 Q123 -7 118 -12.5 Q113 -18 104 -18 Q85 -17 71.5 -5.5 Q58 6 56 11 Q55 14 55.5 20 Q56 26 57.5 32.5 Q59 39 62 44 Q65 49 69 49 Z " />
<glyph glyph-name="at" unicode="&#x40;" horiz-adv-x="374" d="M245 312 Q246 308 236 300.5 Q226 293 212 283.5 Q198 274 184 263.5 Q170 253 164 244 Q158 235 151 224.5 Q144 214 139 205.5 Q134 197 131 191.5 Q128 186 131 186 Q133 186 142.5 192.5 Q152 199 162.5 208 Q173 217 182.5 226 Q192 235 195 241 Q198 247 200.5 253.5 Q203 260 206 264.5 Q209 269 212.5 269.5 Q216 270 220 264 Q228 258 229.5 250 Q231 242 229.5 233 Q228 224 223.5 214.5 Q219 205 215 195 Q206 175 205.5 154.5 Q205 134 211 129 Q214 127 220.5 125 Q227 123 237 126 Q247 129 259 139 Q271 149 283 169 Q295 189 302.5 212 Q310 235 313 257 Q316 279 316 296.5 Q316 314 314 322 Q312 331 307.5 343 Q303 355 292.5 365.5 Q282 376 265 382.5 Q248 389 223 386 Q197 383 169 370 Q141 357 116 334.5 Q91 312 73 280.5 Q55 249 50 209 Q44 169 52.5 135.5 Q61 102 77.5 76.5 Q94 51 115.5 35.5 Q137 20 159 16 Q247 2 295 53 Q307 66 310.5 66.5 Q314 67 312.5 61.5 Q311 56 306.5 48 Q302 40 298 36 Q294 31 283.5 24.5 Q273 18 259 12 Q245 6 227.5 2.5 Q210 -1 192 1 Q160 -1 131 13.5 Q102 28 79.5 51.5 Q57 75 42 102.5 Q27 130 24 154 Q22 170 23 194.5 Q24 219 30.5 247.5 Q37 276 50 304.5 Q63 333 86 357 Q109 381 143 396.5 Q177 412 225 415 Q269 412 294.5 396.5 Q320 381 333.5 361.5 Q347 342 350.5 322 Q354 302 354 289 Q354 276 350 249 Q346 222 334 193 Q322 164 300.5 140 Q279 116 245 110 Q224 107 210.5 113.5 Q197 120 189 129.5 Q181 139 178 149 Q175 159 175 164 Q176 173 177 182.5 Q178 192 183 206 Q172 194 162 185 Q154 177 145.5 170.5 Q137 164 132 164 Q122 164 112.5 177.5 Q103 191 105 205 Q106 211 113.5 229.5 Q121 248 136 269 Q151 290 175 309 Q199 328 232 337 Q240 337 241.5 328.5 Q243 320 245 312 Z " />
<glyph glyph-name="bracketleft" unicode="&#x5b;" horiz-adv-x="246" d="M24 655 Q22 664 22 672 Q22 679 25 684 Q28 689 38 691 Q47 692 69.5 693 Q92 694 115 694 L174 694 Q182 689 188 685 Q199 676 197 674 Q195 672 176.5 670 Q158 668 137 666 Q112 663 82 662 Q85 648 88 633 Q90 620 92 603.5 Q94 587 95 569 Q95 551 97 516.5 Q99 482 101.5 444.5 Q104 407 105.5 372.5 Q107 338 106 319 Q105 299 105 268.5 Q105 238 105.5 206.5 Q106 175 106.5 148.5 Q107 122 108 111 Q109 100 109 86.5 Q109 73 109 60 L109 30 Q130 31 148 32 Q164 33 180 33.5 Q196 34 206 36 Q216 37 219 35 Q222 33 221 30 Q220 27 216.5 24 Q213 21 210 20 Q207 19 193.5 17.5 Q180 16 163.5 14 Q147 12 130.5 10 Q114 8 107 6 Q92 2 76 4.5 Q60 7 57 15 Q56 19 53 32.5 Q50 46 47 63.5 Q44 81 42 98 Q40 115 40 126 Q41 137 41 164.5 Q41 192 40 222 Q39 256 38 298 L24 655 Z " />
<glyph glyph-name="bracketright" unicode="&#x5d;" horiz-adv-x="254" d="M207 298 Q206 256 205 222 Q204 192 204 164.5 Q204 137 205 126 Q205 115 203 98 Q201 81 198 63.5 Q195 46 192 32.5 Q189 19 188 15 Q185 7 169 4.5 Q153 2 138 6 Q130 8 114 10 Q98 12 81.5 14 Q65 16 51.5 17.5 Q38 19 35 20 Q32 21 28.5 24 Q25 27 24 30 Q23 33 26 35 Q29 37 39 36 Q49 34 65 33.5 Q81 33 97 32 Q115 31 136 30 L136 60 Q136 73 136 86.5 Q136 100 137 111 Q138 122 138.5 148.5 Q139 175 139.5 206.5 Q140 238 140 268.5 Q140 299 139 319 Q138 338 139.5 372.5 Q141 407 143.5 444.5 Q146 482 148 516.5 Q150 551 150 569 Q150 587 152.5 603.5 Q155 620 157 633 Q160 648 163 662 Q133 663 108 666 Q87 668 68.5 670 Q50 672 48 674 Q45 676 57 685 Q62 689 71 694 L130 694 Q153 694 175 693 Q197 692 207 691 Q223 688 223 672 Q223 664 221 655 L207 298 Z " />
<glyph glyph-name="backslash" unicode="&#x5c;" horiz-adv-x="415" d="M-8 638 Q-7 640 -1 645.5 Q5 651 12 657 Q19 663 25.5 667.5 Q32 672 35 673 Q37 673 47 657.5 Q57 642 72 617 Q87 592 104.5 562 Q122 532 138.5 503 Q155 474 168 450 Q181 426 188 414 Q195 402 210.5 372.5 Q226 343 246 304.5 Q266 266 288 223 Q310 180 329 140.5 Q348 101 362 70 Q376 39 381 25 Q388 4 382 1 Q376 -2 363.5 8 Q351 18 334.5 38 Q318 58 303 82 Q295 94 277.5 123.5 Q260 153 236.5 194 Q213 235 185.5 283 Q158 331 130.5 379.5 Q103 428 77.5 473.5 Q52 519 32.5 554.5 Q13 590 2 613 Q-9 636 -8 638 Z " />
<glyph glyph-name="asciicircum" unicode="&#x5e;" horiz-adv-x="224" d="M12 396 Q17 396 31.5 409.5 Q46 423 62.5 439 Q79 455 93.5 468 Q108 481 113 481 Q118 481 132.5 467 Q147 453 163 435.5 Q179 418 192.5 402 Q206 386 209 380 Q214 369 214 362 Q214 355 209 361 Q206 364 192.5 378 Q179 392 164 408 Q146 426 124 449 Q105 433 88 419 Q74 407 60.5 395.5 Q47 384 42 380 Q36 376 29.5 378.5 Q23 381 18 385 Q13 389 11 392.5 Q9 396 12 396 Z " />
<glyph glyph-name="underscore" unicode="&#x5f;" horiz-adv-x="497" d="M30 6 Q31 7 60 7 Q89 7 132.5 7 Q176 7 227 6.5 Q278 6 323 5.5 Q368 5 400 4.5 Q432 4 438 3 Q446 2 453.5 -5 Q461 -12 466 -20 Q471 -28 472 -35.5 Q473 -43 469 -44 Q466 -45 435 -45 Q404 -45 359.5 -44.5 Q315 -44 263.5 -43 Q212 -42 167.5 -41 Q123 -40 93 -38.5 Q63 -37 62 -36 Q60 -35 53.5 -28.5 Q47 -22 41 -14.5 Q35 -7 31 -1 Q27 5 30 6 Z " />
<glyph glyph-name="grave" unicode="&#x60;" horiz-adv-x="194" d="M41 647 Q38 647 44.5 647.5 Q51 648 61 647.5 Q71 647 82 644 Q93 641 99 634 Q105 627 114 613.5 Q123 600 132.5 585 Q142 570 149.5 557.5 Q157 545 160 541 Q163 536 165.5 532 Q168 528 167.5 524.5 Q167 521 162 519.5 Q157 518 145 518 Q135 517 128 526.5 Q121 536 116 547 Q113 553 101.5 569 Q90 585 77.5 602.5 Q65 620 54 633.5 Q43 647 41 647 Z " />
<glyph glyph-name="acute" unicode="&#xb4;" horiz-adv-x="167" d="M149 651 Q147 651 136 637.5 Q125 624 112 606.5 Q99 589 88 573 Q77 557 74 551 Q69 540 62 530.5 Q55 521 45 522 Q33 522 28 523.5 Q23 525 22.5 528.5 Q22 532 24.5 536 Q27 540 30 545 Q33 549 40.5 561.5 Q48 574 57.5 589 Q67 604 76 617.5 Q85 631 91 638 Q97 645 108 648 Q119 651 129 651.5 Q139 652 145.5 651.5 Q152 651 149 651 Z " />
<glyph glyph-name="braceleft" unicode="&#x7b;" horiz-adv-x="246" d="M233 653 Q234 649 222.5 645.5 Q211 642 195.5 637.5 Q180 633 164.5 625.5 Q149 618 143 607 Q130 584 120.5 558.5 Q111 533 112 501 Q113 484 114 462.5 Q115 441 116 420.5 Q117 400 117.5 385.5 Q118 371 118 370 Q118 367 119 359 Q120 351 112 345 Q108 342 104.5 339 Q101 336 99 334 Q95 331 93 329 Q101 321 109 315 Q115 309 121 303.5 Q127 298 129 294 Q130 290 131.5 273 Q133 256 133.5 235 Q134 214 134.5 192.5 Q135 171 134 159 Q133 147 132.5 124 Q132 101 133 77.5 Q134 54 136.5 34 Q139 14 144 8 Q149 2 158 -4.5 Q167 -11 178 -16 Q189 -21 200 -24 Q211 -27 220 -25 Q229 -24 228.5 -25 Q228 -26 220 -28.5 Q212 -31 198.5 -32.5 Q185 -34 169 -32 Q136 -30 106.5 -3.5 Q77 23 71 70 Q68 93 67 119.5 Q66 146 66 171.5 Q66 197 67.5 221 Q69 245 71 264 Q73 282 73 293 Q73 304 68.5 310 Q64 316 54.5 318.5 Q45 321 28 323 Q22 324 19 328 Q16 332 15.5 336.5 Q15 341 16 345 Q17 349 18 350 Q19 351 23 350.5 Q27 350 32 350 Q37 350 43.5 352.5 Q50 355 57 363 Q63 371 66 377 Q69 383 69.5 389 Q70 395 69 401 Q68 407 68 416 Q68 424 66.5 449 Q65 474 64.5 503 Q64 532 66.5 559 Q69 586 77 598 Q84 610 91.5 622 Q99 634 108 643.5 Q117 653 128.5 659.5 Q140 666 156 666 Q188 668 210 661.5 Q232 655 233 653 Z " />
<glyph glyph-name="bar" unicode="&#x7c;" horiz-adv-x="150" d="M35 674 L101 674 L101 0 L35 0 L35 674 Z " />
<glyph glyph-name="braceright" unicode="&#x7d;" horiz-adv-x="265" d="M22 -21 Q21 -17 32.5 -13.5 Q44 -10 59.5 -5.5 Q75 -1 90.5 6.5 Q106 14 112 25 Q125 48 134.5 73.5 Q144 99 143 131 Q142 147 141 169 Q140 191 139 211.5 Q138 232 137.5 246 Q137 260 137 262 Q137 265 136 273 Q135 281 143 287 Q147 290 150 293 Q153 296 156 298 Q159 301 162 303 Q152 310 145 317 Q130 329 126 338 Q125 342 123.5 359 Q122 376 121.5 397 Q121 418 120.5 439.5 Q120 461 121 473 Q122 485 122.5 508 Q123 531 122 554.5 Q121 578 118.5 598 Q116 618 111 624 Q106 630 97 636.5 Q88 643 77 648 Q66 653 55 655.5 Q44 658 35 657 Q26 655 26.5 656.5 Q27 658 35 660.5 Q43 663 56 664 Q69 665 86 664 Q119 662 148.5 635.5 Q178 609 184 562 Q187 539 188 512.5 Q189 486 189 460.5 Q189 435 187.5 411 Q186 387 184 368 Q182 350 182 339 Q182 328 186.5 322 Q191 316 200.5 313 Q210 310 227 309 Q233 308 236 304 Q239 300 239.5 295.5 Q240 291 239 287 Q238 283 237 282 Q236 280 232 281 Q228 282 223 282 Q218 282 211.5 279.5 Q205 277 198 269 Q192 261 189 255 Q186 249 185.5 243 Q185 237 186 231 Q187 225 187 216 Q187 208 188.5 183 Q190 158 190.5 129 Q191 100 188.5 73 Q186 46 178 34 Q170 22 163 10 Q156 -2 147 -11.5 Q138 -21 126.5 -27.5 Q115 -34 99 -34 Q67 -36 45 -29.5 Q23 -23 22 -21 Z " />
<glyph glyph-name="asciitilde" unicode="&#x7e;" horiz-adv-x="368" d="M24 128 Q24 153 33 173 Q41 190 58.5 205 Q76 220 109 222 Q132 222 155.5 219 Q179 216 201 213.5 Q223 211 241 209 Q259 207 271 209 Q294 212 313.5 223.5 Q333 235 334 246 Q334 252 336.5 252 Q339 252 341 248 Q343 244 344 237.5 Q345 231 343 224 Q341 217 334.5 206 Q328 195 318 184.5 Q308 174 295 166.5 Q282 159 266 158 Q253 157 224 159 Q195 161 165 163 Q135 165 110 167 Q85 169 81 168 Q76 167 68.5 165.5 Q61 164 53 160 Q45 156 37 148.5 Q29 141 24 128 Z " />
<glyph glyph-name="Euro" unicode="&#x20ac;" horiz-adv-x="480" d="M204 499 Q202 494 200.5 491.5 Q199 489 196 485 Q177 451 163.5 416.5 Q150 382 139 353 L169 353 Q178 352 185.5 345 Q193 338 198 330 Q203 322 204 314.5 Q205 307 201 306 Q197 304 174 303.5 Q151 303 119 302 L119 301 Q105 267 99 221 Q126 222 146 222 Q166 222 172 221 Q181 220 188.5 213 Q196 206 201 198 Q206 190 207 183 Q208 176 204 175 Q199 173 167 172 Q135 171 94 170 Q92 147 91 129 Q90 111 89 100 Q87 86 86.5 59 Q86 32 95 4 Q104 -24 125.5 -46.5 Q147 -69 191 -73 Q223 -71 253 -50.5 Q283 -30 309 -1 Q335 28 357 62.5 Q379 97 396 128 Q413 159 424 183 Q435 207 439 215 Q445 228 447.5 222 Q450 216 449 199.5 Q448 183 443.5 161 Q439 139 431 120 Q420 92 397 55 Q374 18 341.5 -15 Q309 -48 269 -71 Q229 -94 184 -95 Q178 -95 162 -93 Q146 -91 125 -83 Q104 -75 81 -60 Q58 -45 38.5 -20 Q19 5 6 43 Q-7 81 -7 134 Q-7 143 -7 152 Q-7 161 -6 169 Q-22 170 -32 170.5 Q-42 171 -44 172 Q-46 174 -52.5 180.5 Q-59 187 -65 194.5 Q-71 202 -75 208 Q-79 214 -76 215 Q-74 215 -53.5 216 Q-33 217 -4 218 Q-2 240 0 260.5 Q2 281 6 301 Q-15 302 -30 302 Q-45 302 -47 304 Q-49 305 -55.5 311.5 Q-62 318 -68 325.5 Q-74 333 -78 339 Q-82 345 -79 346 Q-77 347 -49 348 Q-21 349 17 351 Q38 427 71 484 Q75 492 77.5 495 Q80 498 82 503 Q105 538 128 564 Q156 595 187 611 Q218 627 247 633 Q276 639 301 638 Q326 637 341 636 Q356 634 370.5 625 Q385 616 395.5 603 Q406 590 411 575 Q416 560 414 546 Q410 524 401.5 516 Q393 508 386.5 510.5 Q380 513 378 524 Q376 535 386 551 Q390 558 389 567 Q388 576 383.5 584 Q379 592 373 597.5 Q367 603 362 604 Q357 605 351.5 606.5 Q346 608 338.5 608 Q331 608 321.5 605.5 Q312 603 298 596 Q269 580 246 554.5 Q223 529 204 499 Z " />
<glyph glyph-name="quotesinglbase" unicode="&#x201a;" horiz-adv-x="142" d="M52 152 Q72 152 82.5 145.5 Q93 139 97 129 Q101 119 100.5 106.5 Q100 94 98 82 Q95 69 84 57 Q73 45 62 37 Q51 29 44 26 Q37 23 42 29 Q47 34 51.5 46.5 Q56 59 59.5 73 Q63 87 64.5 99 Q66 111 66 116 Q66 120 62.5 126 Q59 132 55.5 138 Q52 144 50.5 148 Q49 152 52 152 Z " />
<glyph glyph-name="quotedblbase" unicode="&#x201e;" horiz-adv-x="205" d="M52 152 Q72 152 82.5 145.5 Q93 139 97 129 Q101 119 100.5 106.5 Q100 94 98 82 Q95 69 84 57 Q73 45 62 37 Q51 29 44 26 Q37 23 42 29 Q47 34 51.5 46.5 Q56 59 59.5 73 Q63 87 64.5 99 Q66 111 66 116 Q66 120 62.5 126 Q59 132 55.5 138 Q52 144 50.5 148 Q49 152 52 152 Z M122 152 Q142 152 152.5 145.5 Q163 139 167 129 Q171 119 170.5 106.5 Q170 94 168 82 Q165 69 154 57 Q143 45 132 37 Q121 29 114 26 Q107 23 112 29 Q117 34 121.5 46.5 Q126 59 129.5 73 Q133 87 134.5 99 Q136 111 136 116 Q136 120 132.5 126 Q129 132 125.5 138 Q122 144 120.5 148 Q119 152 122 152 Z " />
<glyph glyph-name="caron" unicode="&#x2c7;" horiz-adv-x="232" d="M25 640 Q45 638 56 638 Q67 638 75 627 Q79 621 86.5 608.5 Q94 596 102 583.5 Q110 571 116 561 Q122 551 124 551 Q126 551 137 563.5 Q148 576 161.5 591.5 Q175 607 186.5 621 Q198 635 201 637 Q204 639 209 640 Q214 641 218.5 640 Q223 639 224.5 635.5 Q226 632 220 625 Q214 618 201 602.5 Q188 587 174.5 570.5 Q161 554 149.5 541 Q138 528 135 526 Q127 522 115 524 Q103 526 95 534 Q91 538 80.5 555 Q70 572 58 590.5 Q46 609 36 623.5 Q26 638 25 638 Q24 638 24 639 Q24 640 25 640 Z " />
<glyph glyph-name="circumflex" unicode="&#x2c6;" horiz-adv-x="273" d="M232 525 Q212 527 201 527 Q190 527 182 538 Q178 544 170.5 556 Q163 568 155 581 Q147 594 140.5 604 Q134 614 133 614 Q131 614 120 601.5 Q109 589 95.5 573.5 Q82 558 70.5 544 Q59 530 56 528 Q53 526 48 525 Q43 524 38.5 525 Q34 526 32.5 529.5 Q31 533 37 540 Q43 547 56 562.5 Q69 578 82.5 594.5 Q96 611 107.5 624 Q119 637 122 639 Q130 643 142 641 Q154 639 162 631 Q166 627 176.5 610 Q187 593 199 574.5 Q211 556 220.5 541.5 Q230 527 232 527 Q233 527 233 526 Q233 524 232 525 Z " />
<glyph glyph-name="hungarumlaut" unicode="&#x2dd;" horiz-adv-x="334" d="M182 647 Q180 647 169 633.5 Q158 620 145 602.5 Q132 585 121 569 Q110 553 107 547 Q102 536 95 526.5 Q88 517 78 518 Q66 518 61 519.5 Q56 521 55.5 524.5 Q55 528 57.5 532 Q60 536 63 541 Q66 545 73.5 557.5 Q81 570 90.5 585 Q100 600 109 613.5 Q118 627 124 634 Q130 641 141 644 Q152 647 162 647.5 Q172 648 178.5 647.5 Q185 647 182 647 Z M281 647 Q279 647 268 633.5 Q257 620 244 602.5 Q231 585 220 569 Q209 553 206 547 Q201 536 194 526.5 Q187 517 177 518 Q165 518 160 519.5 Q155 521 154.5 524.5 Q154 528 156.5 532 Q159 536 162 541 Q165 545 172.5 557.5 Q180 570 189.5 585 Q199 600 208 613.5 Q217 627 223 634 Q229 641 240 644 Q251 647 261 647.5 Q271 648 277.5 647.5 Q284 647 281 647 Z " />
<glyph glyph-name="guilsinglleft" unicode="&#x2039;" horiz-adv-x="246" d="M163 355 Q163 360 169.5 356 Q176 352 183 343.5 Q190 335 193.5 324 Q197 313 190 303 Q182 293 163 269.5 Q144 246 123 221 Q98 192 70 159 Q108 121 141 90 Q155 77 168.5 64 Q182 51 193.5 40 Q205 29 213 21.5 Q221 14 224 12 Q229 8 228 5.5 Q227 3 222 3 Q217 3 208.5 5 Q200 7 190 12 Q183 15 168 27 Q153 39 133.5 56 Q114 73 93 92 Q72 111 55 128.5 Q38 146 26.5 159.5 Q15 173 15 179 Q15 185 25.5 198.5 Q36 212 52.5 230 Q69 248 88 267.5 Q107 287 123.5 304.5 Q140 322 151.5 336 Q163 350 163 355 Z " />
<glyph glyph-name="guillemotleft" unicode="&#xab;" horiz-adv-x="349" d="M163 355 Q163 360 169.5 356 Q176 352 183 343.5 Q190 335 193.5 324 Q197 313 190 303 Q182 293 163 269.5 Q144 246 123 221 Q98 192 70 159 Q108 121 141 90 Q155 77 168.5 64 Q182 51 193.5 40 Q205 29 213 21.5 Q221 14 224 12 Q229 8 228 5.5 Q227 3 222 3 Q217 3 208.5 5 Q200 7 190 12 Q183 15 168 27 Q153 39 133.5 56 Q114 73 93 92 Q72 111 55 128.5 Q38 146 26.5 159.5 Q15 173 15 179 Q15 185 25.5 198.5 Q36 212 52.5 230 Q69 248 88 267.5 Q107 287 123.5 304.5 Q140 322 151.5 336 Q163 350 163 355 Z M287 355 Q287 360 293.5 356 Q300 352 307 343.5 Q314 335 317.5 324 Q321 313 314 303 Q306 293 287 269.5 Q268 246 247 221 Q222 192 194 159 Q232 121 265 90 Q279 77 292.5 64 Q306 51 317.5 40 Q329 29 337 21.5 Q345 14 348 12 Q353 8 352 5.5 Q351 3 346 3 Q341 3 332.5 5 Q324 7 314 12 Q307 15 292 27 Q277 39 257.5 56 Q238 73 217 92 Q196 111 179 128.5 Q162 146 150.5 159.5 Q139 173 139 179 Q139 185 149.5 198.5 Q160 212 176.5 230 Q193 248 212 267.5 Q231 287 247.5 304.5 Q264 322 275.5 336 Q287 350 287 355 Z " />
<glyph glyph-name="guillemotright" unicode="&#xbb;" horiz-adv-x="388" d="M89 355 Q89 350 100.5 336 Q112 322 128.5 304.5 Q145 287 164 267.5 Q183 248 199.5 230 Q216 212 226.5 198.5 Q237 185 237 179 Q237 173 225.5 159.5 Q214 146 197 128.5 Q180 111 159 92 Q138 73 118.5 56 Q99 39 83.5 27 Q68 15 62 12 Q52 7 43.5 5 Q35 3 30 3 Q25 3 24 5.5 Q23 8 28 12 Q31 14 39 21.5 Q47 29 58.5 40 Q70 51 83.5 64 Q97 77 111 90 Q144 121 182 159 Q154 192 129 221 Q108 246 88.5 269.5 Q69 293 62 303 Q55 313 58.5 324 Q62 335 69 343.5 Q76 352 82.5 356 Q89 360 89 355 Z M211 355 Q211 350 222.5 336 Q234 322 250.5 304.5 Q267 287 286 267.5 Q305 248 321.5 230 Q338 212 348.5 198.5 Q359 185 359 179 Q359 173 347.5 159.5 Q336 146 319 128.5 Q302 111 281 92 Q260 73 240.5 56 Q221 39 205.5 27 Q190 15 184 12 Q174 7 165.5 5 Q157 3 152 3 Q147 3 146 5.5 Q145 8 150 12 Q153 14 161 21.5 Q169 29 180.5 40 Q192 51 205.5 64 Q219 77 233 90 Q266 121 304 159 Q276 192 251 221 Q230 246 210.5 269.5 Q191 293 184 303 Q177 313 180.5 324 Q184 335 191 343.5 Q198 352 204.5 356 Q211 360 211 355 Z " />
<glyph glyph-name="quoteleft" unicode="&#x2018;" horiz-adv-x="136" d="M91 528 Q71 528 60.5 534.5 Q50 541 45.5 551 Q41 561 42 573.5 Q43 586 45 598 Q47 611 58 623 Q69 635 80 643 Q91 651 98.5 654 Q106 657 101 651 Q96 646 91.5 633.5 Q87 621 83.5 607 Q80 593 78.5 581 Q77 569 77 564 Q77 560 80.5 554 Q84 548 87.5 542 Q91 536 92.5 532 Q94 528 91 528 Z " />
<glyph glyph-name="quoteright" unicode="&#x2019;" horiz-adv-x="115" d="M40 666 Q60 666 70.5 659.5 Q81 653 85.5 643 Q90 633 89 620.5 Q88 608 86 596 Q84 583 73 571 Q62 559 51 551 Q40 543 32.5 540 Q25 537 30 543 Q35 548 39.5 560.5 Q44 573 47.5 587 Q51 601 52.5 613 Q54 625 54 630 Q54 634 50.5 640 Q47 646 43.5 652 Q40 658 38.5 662 Q37 666 40 666 Z " />
<glyph glyph-name="quotedblleft" unicode="&#x201c;" horiz-adv-x="205" d="M91 528 Q71 528 60.5 534.5 Q50 541 45.5 551 Q41 561 42 573.5 Q43 586 45 598 Q47 611 58 623 Q69 635 80 643 Q91 651 98.5 654 Q106 657 101 651 Q96 646 91.5 633.5 Q87 621 83.5 607 Q80 593 78.5 581 Q77 569 77 564 Q77 560 80.5 554 Q84 548 87.5 542 Q91 536 92.5 532 Q94 528 91 528 Z M167 528 Q147 528 136.5 534.5 Q126 541 121.5 551 Q117 561 118 573.5 Q119 586 121 598 Q123 611 134 623 Q145 635 156 643 Q167 651 174.5 654 Q182 657 177 651 Q172 646 167.5 633.5 Q163 621 159.5 607 Q156 593 154.5 581 Q153 569 153 564 Q153 560 156.5 554 Q160 548 163.5 542 Q167 536 168.5 532 Q170 528 167 528 Z " />
<glyph glyph-name="quotedblright" unicode="&#x201d;" horiz-adv-x="176" d="M40 666 Q60 666 70.5 659.5 Q81 653 85.5 643 Q90 633 89 620.5 Q88 608 86 596 Q84 583 73 571 Q62 559 51 551 Q40 543 32.5 540 Q25 537 30 543 Q35 548 39.5 560.5 Q44 573 47.5 587 Q51 601 52.5 613 Q54 625 54 630 Q54 634 50.5 640 Q47 646 43.5 652 Q40 658 38.5 662 Q37 666 40 666 Z M105 666 Q125 666 135.5 659.5 Q146 653 150.5 643 Q155 633 154 620.5 Q153 608 151 596 Q149 583 138 571 Q127 559 116 551 Q105 543 97.5 540 Q90 537 95 543 Q100 548 104.5 560.5 Q109 573 112.5 587 Q116 601 117.5 613 Q119 625 119 630 Q119 634 115.5 640 Q112 646 108.5 652 Q105 658 103.5 662 Q102 666 105 666 Z " />
<glyph glyph-name="bullet" unicode="&#x2022;" horiz-adv-x="180" d="M30 192 Q30 218 47 236 Q64 254 90 254 Q116 254 134 236 Q152 218 152 192 Q152 166 134 149 Q116 132 90 132 Q64 132 47 149 Q30 166 30 192 Z " />
<glyph glyph-name="endash" unicode="&#x2013;" horiz-adv-x="358" d="M36 230 Q37 231 54.5 231.5 Q72 232 97.5 233 Q123 234 153.5 235 Q184 236 211.5 237 Q239 238 259 238 Q279 238 285 237 Q293 236 300.5 229 Q308 222 313 214 Q318 206 319 198.5 Q320 191 316 190 Q313 189 294 188 Q275 187 248 186.5 Q221 186 190 185.5 Q159 185 132.5 185.5 Q106 186 87.5 186.5 Q69 187 68 188 Q66 189 59.5 195.5 Q53 202 47 209.5 Q41 217 37 223 Q33 229 36 230 Z " />
<glyph glyph-name="emdash" unicode="&#x2014;" horiz-adv-x="474" d="M36 230 Q37 231 64 231.5 Q91 232 131 233 Q171 234 218 235 Q265 236 306.5 237 Q348 238 378 238 Q408 238 414 237 Q422 236 429.5 229 Q437 222 442 214 Q447 206 448 198.5 Q449 191 445 190 Q442 189 413.5 188 Q385 187 343.5 186.5 Q302 186 254.5 185.5 Q207 185 166 185.5 Q125 186 97 186.5 Q69 187 68 188 Q66 189 59.5 195.5 Q53 202 47 209.5 Q41 217 37 223 Q33 229 36 230 Z " />
<glyph glyph-name="tilde" unicode="&#x2dc;" horiz-adv-x="292" d="M33 558 Q33 583 42 603 Q50 620 67.5 635 Q85 650 118 652 Q141 652 153.5 650.5 Q166 649 174.5 648.5 Q183 648 190 647.5 Q197 647 209 649 Q232 652 251.5 663.5 Q271 675 272 686 Q272 692 274.5 692 Q277 692 279 688 Q281 684 282 677.5 Q283 671 281 664 Q279 657 272.5 646 Q266 635 256 624.5 Q246 614 233 606.5 Q220 599 204 598 Q191 597 173 597.5 Q155 598 138 598 Q121 598 107.5 598.5 Q94 599 90 598 Q85 597 77.5 595.5 Q70 594 62 590 Q54 586 46 578.5 Q38 571 33 558 Z " />
<glyph glyph-name="yen" unicode="&#xa5;" horiz-adv-x="489" d="M248 121 Q250 121 281 122 Q312 123 353 125 Q353 129 352.5 132.5 Q352 136 352 140 Q350 154 349 168 Q348 182 348 199 L348 260 Q337 249 325.5 231.5 Q314 214 299.5 196.5 Q285 179 268.5 166.5 Q252 154 233 154 Q230 154 226.5 154 Q223 154 219 155 Q216 155 206 157.5 Q196 160 184 166.5 Q172 173 159 185 Q146 197 136 218 Q115 260 111 323.5 Q107 387 113 475 Q125 646 101 646 Q95 645 81 638 Q67 631 51 619 Q35 607 21.5 590 Q8 573 4 552 Q-4 509 -4.5 485.5 Q-5 462 -3 454 Q-1 447 7 438.5 Q15 430 15 426 Q13 421 -3 421 Q-11 421 -19.5 423.5 Q-28 426 -34 432 Q-46 443 -49 455 Q-52 467 -53 481 Q-55 506 -45 538 Q-35 570 -17 598.5 Q1 627 26 647 Q51 667 80 668 Q87 668 100.5 667 Q114 666 128.5 663.5 Q143 661 155.5 657 Q168 653 173 647 Q179 639 191.5 618.5 Q204 598 206 566 Q208 534 209.5 491 Q211 448 206 385 Q201 322 202 280 Q203 238 206 230 Q207 227 210.5 217.5 Q214 208 219.5 198 Q225 188 232.5 180 Q240 172 249 172 Q260 172 271.5 183 Q283 194 293.5 210 Q304 226 313 245.5 Q322 265 329 281.5 Q336 298 339.5 310 Q343 322 343 324 Q342 339 343 369 Q344 399 346 433 Q348 467 350 499 Q352 531 352 548 Q352 566 351.5 589 Q351 612 354 631 Q357 650 367 660 Q377 670 399 661 L400 661 Q418 652 427.5 625 Q437 598 441 561.5 Q445 525 445 483.5 Q445 442 443.5 403 Q442 364 440 332 Q438 300 438 283 Q438 246 436 208 Q434 170 436 128 Q459 128 475 128 Q491 128 496 127 Q505 126 512.5 119 Q520 112 525 104 Q530 96 531 89 Q532 82 528 81 Q524 79 498.5 78 Q473 77 438 76 Q437 56 435 36 Q433 16 429 -4 Q456 -3 476 -3 Q496 -3 502 -4 Q511 -5 518.5 -12 Q526 -19 531 -27 Q536 -35 537 -42.5 Q538 -50 534 -51 Q532 -52 521 -52.5 Q510 -53 494 -53.5 Q478 -54 457.5 -54.5 Q437 -55 416 -55 Q415 -59 414 -62.5 Q413 -66 412 -70 Q407 -85 395.5 -103 Q384 -121 366 -138 Q348 -155 323 -169 Q298 -183 266 -189 Q247 -192 232.5 -194.5 Q218 -197 206 -198 L217 -176 L222 -176 Q230 -176 234 -175 Q282 -168 307.5 -134.5 Q333 -101 344 -55 Q321 -55 304.5 -54.5 Q288 -54 286 -53 Q284 -52 277.5 -45.5 Q271 -39 265 -31.5 Q259 -24 255 -18 Q251 -12 254 -11 Q255 -11 263 -10.5 Q271 -10 284.5 -9 Q298 -8 315.5 -7.5 Q333 -7 352 -6 Q357 35 355 75 Q325 75 303.5 75.5 Q282 76 280 78 Q278 80 271.5 86.5 Q265 93 259 100.5 Q253 108 249 114 Q245 120 248 121 Z " />
<glyph glyph-name="guilsinglright" unicode="&#x203a;" horiz-adv-x="267" d="M89 355 Q89 350 100.5 336 Q112 322 128.5 304.5 Q145 287 164 267.5 Q183 248 199.5 230 Q216 212 226.5 198.5 Q237 185 237 179 Q237 173 225.5 159.5 Q214 146 197 128.5 Q180 111 159 92 Q138 73 118.5 56 Q99 39 83.5 27 Q68 15 62 12 Q52 7 43.5 5 Q35 3 30 3 Q25 3 24 5.5 Q23 8 28 12 Q31 14 39 21.5 Q47 29 58.5 40 Q70 51 83.5 64 Q97 77 111 90 Q144 121 182 159 Q154 192 129 221 Q108 246 88.5 269.5 Q69 293 62 303 Q55 313 58.5 324 Q62 335 69 343.5 Q76 352 82.5 356 Q89 360 89 355 Z " />
<glyph glyph-name="dieresis" unicode="&#xa8;" horiz-adv-x="314" d="M204 625 Q220 627 231 624.5 Q242 622 249 617.5 Q256 613 260 607.5 Q264 602 266 599 Q268 596 268.5 588 Q269 580 267 571.5 Q265 563 259 556.5 Q253 550 243 550 Q222 551 206.5 564 Q191 577 189 583 Q188 586 189 593 Q190 600 192 607 Q194 614 197 619.5 Q200 625 204 625 Z M69 632 Q85 634 96 631.5 Q107 629 114 624.5 Q121 620 125 614.5 Q129 609 131 606 Q133 603 133.5 595 Q134 587 132 578.5 Q130 570 124 563.5 Q118 557 108 557 Q87 558 71.5 571 Q56 584 54 590 Q53 593 54 600 Q55 607 57 614 Q59 621 62 626.5 Q65 632 69 632 Z " />
<glyph glyph-name="degree" unicode="&#xb0;" horiz-adv-x="207" d="M45 576 Q45 602 63.5 618 Q82 634 108 639 Q121 641 132.5 636.5 Q144 632 152.5 623 Q161 614 166 601.5 Q171 589 171 576 Q171 550 152.5 534 Q134 518 108 513 Q93 510 81.5 514.5 Q70 519 62 528.5 Q54 538 49.5 550.5 Q45 563 45 576 Z M78 576 Q78 559 85 545.5 Q92 532 109 536 Q126 540 138 549.5 Q150 559 150 576 Q150 593 138 605.5 Q126 618 109 617 Q96 616 87 604.5 Q78 593 78 576 Z " />
<glyph glyph-name="plusminus" unicode="&#xb1;" horiz-adv-x="332" d="M276 213 Q294 203 297 191 Q300 179 271 179 Q259 179 236 177.5 Q213 176 187 174 Q187 165 187 153.5 Q187 142 186.5 131 Q186 120 185.5 110.5 Q185 101 183 97 Q180 93 175.5 86.5 Q171 80 165.5 75.5 Q160 71 155.5 70.5 Q151 70 150 76 Q148 87 145.5 108.5 Q143 130 143 170 Q119 168 100 167 Q81 166 73 167 Q62 168 53.5 175.5 Q45 183 40.5 191.5 Q36 200 36 205.5 Q36 211 43 209 Q52 206 82 208.5 Q112 211 143 213 Q143 233 142.5 250.5 Q142 268 142.5 281.5 Q143 295 145 302.5 Q147 310 152 310 Q156 310 162 309.5 Q168 309 173.5 307.5 Q179 306 183 303 Q187 300 187 294 L187 216 Q215 216 236.5 219.5 Q258 223 276 213 Z M30 56 Q31 56 48.5 57 Q66 58 91.5 59 Q117 60 147.5 61 Q178 62 205.5 63 Q233 64 253 64 Q273 64 279 63 Q287 62 294.5 55 Q302 48 307 40 Q312 32 313 24.5 Q314 17 310 16 Q307 15 288 14 Q269 13 242 12.5 Q215 12 184 11.5 Q153 11 126.5 11.5 Q100 12 81.5 12.5 Q63 13 62 14 Q60 15 53.5 21.5 Q47 28 41 35.5 Q35 43 31 49 Q27 55 30 56 Z " />
<glyph glyph-name="Zcaron" unicode="&#x17d;" horiz-adv-x="445" d="M167 116 Q154 115 135.5 120.5 Q117 126 109 136 Q107 140 100.5 149 Q94 158 92 160 Q90 162 88.5 164.5 Q87 167 89 171 Q95 180 115 183 Q152 186 190 203 Q228 220 258 253.5 Q288 287 307 338.5 Q326 390 326 462 Q326 515 312 551 Q298 587 273 603.5 Q248 620 213 614.5 Q178 609 137 580 Q111 561 93 543.5 Q75 526 62 510 Q49 494 39.5 479 Q30 464 20 450 Q10 436 6 436 Q2 436 2 443 Q2 450 5 461 Q8 472 11 480 Q24 510 45 538.5 Q66 567 93 590 Q120 613 150.5 628 Q181 643 214 645 Q245 647 276 637.5 Q307 628 336 597 Q343 590 357 574 Q371 558 384.5 534 Q398 510 407.5 478 Q417 446 415 406 Q413 367 402 333 Q391 299 376.5 271 Q362 243 346 221.5 Q330 200 317 186 Q300 168 276 151 Q252 134 225 124 Q240 119 256 110.5 Q272 102 285 93 Q343 132 390.5 164 Q438 196 454 213 Q461 221 469.5 225.5 Q478 230 484 230.5 Q490 231 492 229 Q494 227 489 221 Q457 185 405.5 150.5 Q354 116 300 81 Q301 79 304 76 Q332 35 333.5 -12 Q335 -59 315.5 -99.5 Q296 -140 256.5 -167.5 Q217 -195 162 -198 Q137 -198 111 -191 Q85 -184 68 -170.5 Q51 -157 47.5 -137.5 Q44 -118 63 -92 Q76 -73 97 -52.5 Q118 -32 143 -11 Q168 10 196.5 31 Q225 52 254 72 Q247 85 232.5 96.5 Q218 108 192 116 Q179 115 167 116 Z M92 -143 Q93 -156 105.5 -161.5 Q118 -167 129 -165 Q135 -164 146.5 -159 Q158 -154 172 -145 Q186 -136 200 -123 Q214 -110 226 -92 Q249 -56 261 -23 Q273 10 267 34 Q265 39 264 44.5 Q263 50 261 55 Q226 32 194.5 8 Q163 -16 139.5 -40.5 Q116 -65 103 -90.5 Q90 -116 92 -143 Z M110 797 Q130 795 141 795 Q152 795 160 784 Q164 778 171.5 765.5 Q179 753 187 740.5 Q195 728 201 718 Q207 708 209 708 Q211 708 222 720.5 Q233 733 246.5 748.5 Q260 764 271.5 778 Q283 792 286 794 Q289 796 294 797 Q299 798 303.5 797 Q308 796 309.5 792.5 Q311 789 305 782 Q299 775 286 759.5 Q273 744 259.5 727.5 Q246 711 234.5 698 Q223 685 220 683 Q212 679 200 681 Q188 683 180 691 Q176 695 165.5 712 Q155 729 143 747.5 Q131 766 121 780.5 Q111 795 110 795 Q109 795 109 796 Q109 797 110 797 Z " />
<glyph glyph-name="zcaron" unicode="&#x17e;" horiz-adv-x="323" d="M347 221 Q357 243 361.5 246 Q366 249 366 240 Q366 231 361 213.5 Q356 196 347 178 Q333 149 314 122.5 Q295 96 272 72 Q278 60 281 46 Q291 8 293.5 -13.5 Q296 -35 295 -48 Q294 -61 290.5 -69.5 Q287 -78 286 -90 Q284 -102 277 -118 Q270 -134 259.5 -151.5 Q249 -169 236.5 -186.5 Q224 -204 212 -218 Q189 -247 158.5 -270.5 Q128 -294 99 -295 Q84 -295 65.5 -292.5 Q47 -290 31.5 -280.5 Q16 -271 6.5 -253.5 Q-3 -236 1 -207 Q4 -182 11 -165 Q18 -148 27 -136 Q36 -124 46 -114.5 Q56 -105 66 -93 Q100 -56 133 -27 Q166 2 198 31 Q197 35 195 41 Q190 52 183.5 65 Q177 78 166 89 Q162 87 156 83 Q140 74 125 75 Q110 76 98 81 Q86 86 78 93.5 Q70 101 68 105 Q66 109 69 114.5 Q72 120 77.5 126 Q83 132 90 137 Q97 142 103 145 Q109 148 118.5 155.5 Q128 163 139 173 Q150 183 161 195 Q172 207 180 219 Q197 244 201 271 Q205 298 204 315 Q203 332 196 344.5 Q189 357 163 360 Q150 361 134 354 Q118 347 103 337 Q88 327 76 316.5 Q64 306 59 300 Q48 288 39 270.5 Q30 253 31 233 Q31 212 23.5 204.5 Q16 197 8 197 Q0 197 1 213.5 Q2 230 8 246 Q21 281 44.5 306.5 Q68 332 94.5 347.5 Q121 363 146.5 370 Q172 377 190 376 Q214 374 230.5 360 Q247 346 256.5 325.5 Q266 305 269 280.5 Q272 256 270 234 Q267 202 254 176.5 Q241 151 219 129 Q245 114 261 91 Q285 118 307 149 Q329 180 347 221 Z M183 -115 Q198 -73 202 -44 Q206 -15 204 6 Q158 -36 115.5 -76 Q73 -116 47 -163 Q41 -174 37.5 -188 Q34 -202 36 -215 Q38 -228 47 -236.5 Q56 -245 75 -243 Q99 -241 129.5 -210 Q160 -179 183 -115 Z M58 570 Q78 568 89 568 Q100 568 108 557 Q112 551 119.5 538.5 Q127 526 135 513.5 Q143 501 149 491 Q155 481 157 481 Q159 481 170 493.5 Q181 506 194.5 521.5 Q208 537 219.5 551 Q231 565 234 567 Q237 569 242 570 Q247 571 251.5 570 Q256 569 257.5 565.5 Q259 562 253 555 Q247 548 234 532.5 Q221 517 207.5 500.5 Q194 484 182.5 471 Q171 458 168 456 Q160 452 148 454 Q136 456 128 464 Q124 468 113.5 485 Q103 502 91 520.5 Q79 539 69 553.5 Q59 568 58 568 Q57 568 57 569 Q57 570 58 570 Z " />
<glyph glyph-name="Scaron" unicode="&#x160;" horiz-adv-x="513" d="M4 114 Q3 114 2.5 119 Q2 124 1 131.5 Q0 139 0 147.5 Q0 156 0 162 Q0 168 2.5 178 Q5 188 8 198.5 Q11 209 14.5 218 Q18 227 22 231 Q25 235 27 240 Q29 245 32 250.5 Q35 256 41 260 Q47 264 59 267 Q78 283 96.5 297 Q115 311 132 322 Q140 328 165 343.5 Q190 359 219 378 Q217 382 213 388 Q197 411 186.5 441.5 Q176 472 176 494 Q176 517 187.5 542 Q199 567 217.5 589 Q236 611 260.5 627.5 Q285 644 310.5 651.5 Q336 659 360.5 654 Q385 649 405 628 Q421 611 426.5 589 Q432 567 429 544.5 Q426 522 416.5 501.5 Q407 481 393 466 Q377 449 350 430 Q323 411 295 394 Q299 389 303 384.5 Q307 380 311 375 Q319 365 335 347.5 Q351 330 369 308.5 Q387 287 403.5 264 Q420 241 431 222 Q458 171 466 122 Q474 73 461 32 Q448 -9 412 -38 Q376 -67 316 -77 Q307 -79 293 -79.5 Q279 -80 263 -79.5 Q247 -79 230.5 -77 Q214 -75 199 -72 Q157 -62 136 -32 Q121 -37 104 -38 Q88 -39 76 -34.5 Q64 -30 55 -23 Q46 -16 38.5 -9.5 Q31 -3 23 -1 Q17 1 22.5 2.5 Q28 4 35 1 Q38 0 44 -2.5 Q50 -5 57.5 -7.5 Q65 -10 72.5 -12 Q80 -14 85 -14 Q89 -14 99 -12 Q109 -10 123 -5 Q112 22 109 48.5 Q106 75 108 88 Q109 95 115.5 111 Q122 127 135 143.5 Q148 160 168 172.5 Q188 185 217 185 Q230 185 236.5 176.5 Q243 168 245.5 156.5 Q248 145 248.5 135 Q249 125 249 122 Q249 117 246 103.5 Q243 90 239 79 Q238 75 234 65 Q230 55 223 42.5 Q216 30 205 16 Q194 2 179 -10 Q194 -28 215.5 -40 Q237 -52 263 -51 Q295 -50 314 -40.5 Q333 -31 343 -18.5 Q353 -6 356.5 6.5 Q360 19 361 27 Q362 34 360.5 51.5 Q359 69 356.5 88.5 Q354 108 350.5 125 Q347 142 345 150 Q343 157 338 170.5 Q333 184 327 198.5 Q321 213 314.5 226 Q308 239 304 247 Q301 253 293 265 Q285 277 275 293 Q265 309 254 325.5 Q243 342 233 357 Q229 355 228 354 Q216 347 195 334.5 Q174 322 151.5 308 Q129 294 108.5 279.5 Q88 265 78 254 Q52 228 38.5 203 Q25 178 18 158.5 Q11 139 8.5 126.5 Q6 114 4 114 Z M304 437 Q316 447 333.5 462 Q351 477 364.5 496 Q378 515 384 537.5 Q390 560 381 585 Q371 601 347 599.5 Q323 598 299 583 Q275 568 258 540 Q241 512 247 476 Q249 460 257 445 Q265 430 276 416 Q285 422 292 427.5 Q299 433 304 437 Z M194 52 Q200 65 207.5 84.5 Q215 104 218 122 Q221 140 217.5 153 Q214 166 198 166 Q194 166 184 160 Q174 154 164 144 Q154 134 146 120.5 Q138 107 137 93 Q136 79 142 58 Q148 37 161 15 Q182 29 194 52 Z M240 811 Q260 809 271 809 Q282 809 290 798 Q294 792 301.5 779.5 Q309 767 317 754.5 Q325 742 331 732 Q337 722 339 722 Q341 722 352 734.5 Q363 747 376.5 762.5 Q390 778 401.5 792 Q413 806 416 808 Q419 810 424 811 Q429 812 433.5 811 Q438 810 439.5 806.5 Q441 803 435 796 Q429 789 416 773.5 Q403 758 389.5 741.5 Q376 725 364.5 712 Q353 699 350 697 Q342 693 330 695 Q318 697 310 705 Q306 709 295.5 726 Q285 743 273 761.5 Q261 780 251 794.5 Q241 809 240 809 Q239 809 239 810 Q239 811 240 811 Z " />
<glyph glyph-name="scaron" unicode="&#x161;" horiz-adv-x="221" d="M76 353 Q109 349 108.5 329.5 Q108 310 93 288 Q85 276 78 257.5 Q71 239 73 227 Q80 198 100.5 182.5 Q121 167 143 153 Q160 167 177 181 Q194 195 211 209 Q219 216 228.5 220 Q238 224 243.5 225 Q249 226 248.5 223 Q248 220 238 213 Q219 199 197 183 Q175 167 152 147 Q163 140 172 132 Q181 124 188 113 Q197 98 201 73.5 Q205 49 196 19 Q191 4 182.5 -15 Q174 -34 162.5 -51.5 Q151 -69 137.5 -83 Q124 -97 109 -103 Q94 -108 76.5 -108.5 Q59 -109 43 -105 Q27 -101 14 -94 Q1 -87 -6 -78 Q-21 -58 -18.5 -35 Q-16 -12 -1 9 Q21 38 47 64.5 Q73 91 101 117 Q98 124 93 131 Q82 144 65.5 159 Q49 174 35 191 Q21 208 13.5 227 Q6 246 14 267 Q28 311 45 332 Q62 353 76 353 Z M22 -19 Q22 -22 21.5 -30 Q21 -38 23 -45 Q25 -52 31 -57 Q37 -62 49 -59 Q69 -55 83 -36 Q97 -17 104 7.5 Q111 32 111.5 58.5 Q112 85 105 106 Q72 74 48.5 42 Q25 10 22 -19 Z M0 499 Q20 497 31 497 Q42 497 50 486 Q54 480 61.5 467.5 Q69 455 77 442.5 Q85 430 91 420 Q97 410 99 410 Q101 410 112 422.5 Q123 435 136.5 450.5 Q150 466 161.5 480 Q173 494 176 496 Q179 498 184 499 Q189 500 193.5 499 Q198 498 199.5 494.5 Q201 491 195 484 Q189 477 176 461.5 Q163 446 149.5 429.5 Q136 413 124.5 400 Q113 387 110 385 Q102 381 90 383 Q78 385 70 393 Q66 397 55.5 414 Q45 431 33 449.5 Q21 468 11 482.5 Q1 497 0 497 Q-1 497 -1 498 Q-1 499 0 499 Z " />
<glyph glyph-name="Ydieresis" unicode="&#x178;" horiz-adv-x="489" d="M222 -176 Q230 -176 234 -175 Q266 -171 288 -153 Q310 -135 324 -109 Q338 -83 345 -51 Q352 -19 354 14.5 Q356 48 355 80.5 Q354 113 352 140 Q322 116 286.5 90 Q251 64 221 36 Q191 8 170.5 -22 Q150 -52 150 -85 Q150 -99 153.5 -115 Q157 -131 165.5 -144.5 Q174 -158 188 -167 Q202 -176 222 -176 Z M80 668 Q87 668 100.5 667 Q114 666 128.5 663.5 Q143 661 155.5 657 Q168 653 173 647 Q179 639 191.5 618.5 Q204 598 206 566 Q208 534 209.5 491 Q211 448 206 385 Q201 322 202 280 Q203 238 206 230 Q207 227 210.5 217.5 Q214 208 219.5 198 Q225 188 232.5 180 Q240 172 249 172 Q260 172 271.5 183 Q283 194 293.5 210 Q304 226 313 245.5 Q322 265 329 281.5 Q336 298 339.5 310 Q343 322 343 324 Q342 339 343 369 Q344 399 346 433 Q348 467 350 499 Q352 531 352 548 Q352 566 351.5 589 Q351 612 354 631 Q357 650 367 660 Q377 670 399 661 L400 661 Q418 652 427.5 625 Q437 598 441 561.5 Q445 525 445 483.5 Q445 442 443.5 403 Q442 364 440 332 Q438 300 438 283 Q438 271 437.5 257.5 Q437 244 437 228 Q441 230 442 230 Q445 230 444 221 Q443 212 437 204 Q436 177 436 153 Q436 129 438 104 Q439 83 437 58.5 Q435 34 431 10.5 Q427 -13 422 -34 Q417 -55 412 -70 Q407 -85 395.5 -103 Q384 -121 366 -138 Q348 -155 323 -169 Q298 -183 266 -189 Q240 -194 222.5 -196.5 Q205 -199 191 -199 Q170 -199 160 -192 Q150 -185 144 -171 Q133 -148 129.5 -110.5 Q126 -73 140 -35 Q147 -16 161.5 3 Q176 22 194.5 40 Q213 58 233.5 74 Q254 90 272 103 Q291 116 311 130.5 Q331 145 350 160 Q349 172 348.5 181.5 Q348 191 348 199 L348 260 Q337 249 325.5 231.5 Q314 214 299.5 196.5 Q285 179 268.5 166.5 Q252 154 233 154 Q230 154 226.5 154 Q223 154 219 155 Q216 155 206 157.5 Q196 160 184 166.5 Q172 173 159 185 Q146 197 136 218 Q115 260 111 323.5 Q107 387 113 475 Q125 646 101 646 Q95 645 81 638 Q67 631 51 619 Q35 607 21.5 590 Q8 573 4 552 Q-4 509 -4.5 485.5 Q-5 462 -3 454 Q-1 447 7 438.5 Q15 430 15 426 Q13 421 -3 421 Q-11 421 -19.5 423.5 Q-28 426 -34 432 Q-46 443 -49 455 Q-52 467 -53 481 Q-55 506 -45 538 Q-35 570 -17 598.5 Q1 627 26 647 Q51 667 80 668 Z M281 771 Q297 773 308 770.5 Q319 768 326 763.5 Q333 759 337 753.5 Q341 748 343 745 Q345 742 345.5 734 Q346 726 344 717.5 Q342 709 336 702.5 Q330 696 320 696 Q299 697 283.5 710 Q268 723 266 729 Q265 732 266 739 Q267 746 269 753 Q271 760 274 765.5 Q277 771 281 771 Z M146 778 Q162 780 173 777.5 Q184 775 191 770.5 Q198 766 202 760.5 Q206 755 208 752 Q210 749 210.5 741 Q211 733 209 724.5 Q207 716 201 709.5 Q195 703 185 703 Q164 704 148.5 717 Q133 730 131 736 Q130 739 131 746 Q132 753 134 760 Q136 767 139 772.5 Q142 778 146 778 Z " />
<glyph glyph-name="exclamdown" unicode="&#xa1;" horiz-adv-x="168" d="M68 387 Q63 388 60 394 Q57 400 55 407.5 Q53 415 52 422.5 Q51 430 52 433 Q54 440 70.5 453.5 Q87 467 110 468 Q121 469 127.5 462 Q134 455 136 445.5 Q138 436 137.5 427 Q137 418 135 415 Q133 412 128.5 406 Q124 400 116 395 Q108 390 96.5 387.5 Q85 385 68 387 Z M56 -178 Q63 -174 71.5 -169.5 Q80 -165 87.5 -158 Q95 -151 101 -139.5 Q107 -128 110 -110 Q113 -92 115.5 -64.5 Q118 -37 119.5 -7.5 Q121 22 122.5 49 Q124 76 126 93 Q127 110 127 142 Q127 174 125.5 208.5 Q124 243 122 274 Q120 305 119 319 Q117 347 115.5 359.5 Q114 372 95 370 Q75 368 61.5 348.5 Q48 329 47 299 Q47 289 47 263.5 Q47 238 48 205.5 Q49 173 49.5 137.5 Q50 102 50.5 71 Q51 40 51.5 17.5 Q52 -5 51 -10 Q51 -18 49 -46.5 Q47 -75 46.5 -105.5 Q46 -136 47.5 -159 Q49 -182 56 -178 Z " />
<glyph glyph-name="cent" unicode="&#xa2;" horiz-adv-x="246" d="M114 478 Q121 473 125.5 469 Q130 465 132.5 458 Q135 451 137 439.5 Q139 428 142 410 Q143 403 144 395 Q145 387 145 379 L147 379 Q151 379 159 377 Q171 373 178.5 364 Q186 355 194 346 Q202 335 207 321.5 Q212 308 209 288 Q208 279 204.5 270 Q201 261 195.5 254 Q190 247 182 243.5 Q174 240 165 243 Q165 246 166 255 Q167 264 166.5 272.5 Q166 281 163 286 Q160 291 153 288 Q151 287 150 287 Q149 287 147 286 Q147 263 147 242 Q147 221 149 207 Q150 195 150 175 Q150 155 149 131.5 Q148 108 147 83.5 Q146 59 145 37 Q165 52 182 77.5 Q199 103 212.5 130.5 Q226 158 236 184 Q246 210 253 226 Q258 224 261 221.5 Q264 219 267 216 Q267 215 262 201.5 Q257 188 248 168 Q239 148 227.5 124 Q216 100 202 77.5 Q188 55 173.5 36.5 Q159 18 144 10 Q143 1 142.5 -6.5 Q142 -14 142 -19 Q141 -33 143 -43.5 Q145 -54 145.5 -60 Q146 -66 144 -68.5 Q142 -71 132 -70 Q112 -68 105 -48.5 Q98 -29 97 1 L97 4 Q80 8 63.5 17.5 Q47 27 36 39 Q11 64 5.5 100 Q0 136 0 166 Q0 191 7 220.5 Q14 250 27.5 277.5 Q41 305 59 328.5 Q77 352 100 365 Q100 384 100.5 405 Q101 426 102.5 443 Q104 460 106.5 470 Q109 480 114 478 Z M60 105 Q62 88 63 72.5 Q64 57 71 41 Q81 23 97 22 Q97 39 97.5 66 Q98 93 98.5 124 Q99 155 100 187 Q101 219 101 246 Q90 229 82.5 209 Q75 189 70 169.5 Q65 150 62.5 133 Q60 116 60 105 Z " />
<glyph glyph-name="questiondown" unicode="&#xbf;" horiz-adv-x="303" d="M275 89 Q276 77 268.5 59 Q261 41 243.5 24 Q226 7 198.5 -5.5 Q171 -18 132 -18 Q94 -19 70.5 -8 Q47 3 35 19.5 Q23 36 20 56.5 Q17 77 18.5 96 Q20 115 23.5 130 Q27 145 29 151 Q31 160 44 179 Q57 198 74 219 Q91 240 107.5 258.5 Q124 277 134 285 Q143 293 154.5 307.5 Q166 322 175.5 337.5 Q185 353 192 366 Q199 379 199 385 Q199 391 198.5 401 Q198 411 199.5 419 Q201 427 205 429.5 Q209 432 220 423 Q230 414 233 397 Q236 380 234.5 360.5 Q233 341 229.5 323 Q226 305 223 293 Q220 282 206 261.5 Q192 241 173.5 218.5 Q155 196 136.5 175.5 Q118 155 107 144 Q96 133 86.5 110 Q77 87 73.5 64 Q70 41 74.5 23 Q79 5 96 3 Q137 2 163 13 Q189 24 203.5 39 Q218 54 223 68.5 Q228 83 227 89 Q226 95 223.5 101.5 Q221 108 219 112.5 Q217 117 216.5 119.5 Q216 122 219 122 Q222 121 230.5 118 Q239 115 249 110.5 Q259 106 267 100.5 Q275 95 275 89 Z M224 453 Q210 451 200.5 453.5 Q191 456 184 460 Q177 464 173.5 468.5 Q170 473 168 476 Q166 479 166 486.5 Q166 494 168 501.5 Q170 509 175 514.5 Q180 520 189 520 Q208 519 221.5 507.5 Q235 496 237 491 Q238 488 237.5 482 Q237 476 235.5 469.5 Q234 463 231 458 Q228 453 224 453 Z " />
<glyph glyph-name="mu" unicode="&#xb5;" horiz-adv-x="319" d="M43 492 Q48 487 57.5 482.5 Q67 478 77 471 Q87 464 94 452 Q101 440 102 421 Q103 402 103 378 Q103 354 105 329.5 Q107 305 112.5 280.5 Q118 256 130 237 Q154 197 175 178.5 Q196 160 215 186 Q213 207 212 225 Q211 241 210.5 256.5 Q210 272 210 282 Q210 292 209 319.5 Q208 347 208 376 Q208 405 209 427.5 Q210 450 215 450 Q219 450 228.5 451 Q238 452 247.5 450 Q257 448 264.5 441 Q272 434 272 418 Q272 401 273 369.5 Q274 338 275 305 Q276 272 276.5 244 Q277 216 277 205 Q277 194 278.5 176.5 Q280 159 279.5 142 Q279 125 275 112.5 Q271 100 260 99 Q248 98 240 103 Q232 108 227.5 116 Q223 124 221 132.5 Q219 141 220 148 Q193 143 170 145 Q150 147 132 155 Q114 163 107 184 Q109 167 111 151 Q113 137 113.5 123 Q114 109 114 99 Q114 90 111 75 Q108 60 102 46.5 Q96 33 87.5 24 Q79 15 67 17 Q55 19 48 36 Q41 53 37.5 76.5 Q34 100 33.5 126.5 Q33 153 33 174 Q33 188 33 218.5 Q33 249 32.5 285.5 Q32 322 32 360.5 Q32 399 33 429.5 Q34 460 36.5 478 Q39 496 43 492 Z " />
<glyph glyph-name="paragraph" unicode="&#xb6;" horiz-adv-x="363" d="M337 418 Q348 414 341.5 406 Q335 398 324 389 Q311 378 290 366 Q290 349 292 332 Q294 317 295.5 300 Q297 283 300 268 Q302 253 299.5 225 Q297 197 293.5 163.5 Q290 130 286.5 94.5 Q283 59 283 31 Q284 2 275.5 -7 Q267 -16 256 -12.5 Q245 -9 235.5 4.5 Q226 18 225 35 Q224 46 224 71 Q224 96 224.5 127.5 Q225 159 225.5 193.5 Q226 228 227 258.5 Q228 289 228 311.5 Q228 334 228 342 Q227 364 224 369 Q222 373 220 373 Q202 378 187 382 Q174 386 162.5 389.5 Q151 393 146 395 Q141 396 140.5 391 Q140 386 140.5 377.5 Q141 369 142.5 358.5 Q144 348 144 339 Q144 330 146 295.5 Q148 261 150.5 215.5 Q153 170 154 121 Q155 72 153 33 Q150 -6 138.5 -21 Q127 -36 114.5 -36 Q102 -36 92.5 -24.5 Q83 -13 85 3 Q87 19 85 53.5 Q83 88 81 123 Q78 163 75 210 Q68 216 60 225.5 Q52 235 44.5 248.5 Q37 262 32 280 Q27 298 27 321 Q27 344 35 362 Q43 380 54.5 392.5 Q66 405 79 411.5 Q92 418 103 418 Q114 418 136 413.5 Q158 409 183 403.5 Q208 398 231.5 393 Q255 388 269 388 Q282 388 293 393 Q304 398 312.5 404 Q321 410 327 414.5 Q333 419 337 418 Z " />
<glyph glyph-name="cedilla" unicode="&#xb8;" horiz-adv-x="190" d="M85 25 L82 -4 Q104 -9 122 -19 Q137 -27 149 -40.5 Q161 -54 161 -74 Q161 -94 154.5 -107.5 Q148 -121 139.5 -129.5 Q131 -138 121.5 -142.5 Q112 -147 105 -148 Q94 -150 82 -148 Q70 -146 60 -141 Q50 -136 43.5 -129.5 Q37 -123 39 -116 Q41 -100 51 -100 Q53 -100 57 -106 Q61 -112 66 -119 Q71 -126 78.5 -131.5 Q86 -137 95 -136 Q114 -134 120.5 -125 Q127 -116 126 -100 Q126 -84 115 -67 Q104 -50 87 -49 Q70 -48 62.5 -51.5 Q55 -55 51 -54 Q49 -54 48.5 -46 Q48 -38 49 -28 Q50 -18 51.5 -9 Q53 0 55 3 Q59 8 69.5 16 Q80 24 85 25 Z " />
<glyph glyph-name="ogonek" unicode="&#x2db;" horiz-adv-x="168" d="M96 25 Q101 24 111.5 16 Q122 8 126 3 Q128 0 129.5 -9 Q131 -18 131.5 -28 Q132 -38 132 -46 Q132 -54 130 -54 Q126 -55 118.5 -51.5 Q111 -48 94 -49 Q77 -50 66 -67 Q55 -84 55 -100 Q54 -116 60.5 -125 Q67 -134 86 -136 Q95 -137 102.5 -131.5 Q110 -126 115 -119 Q120 -112 124 -106 Q128 -100 130 -100 Q140 -100 142 -116 Q143 -123 137 -129.5 Q131 -136 121 -141 Q111 -146 99 -148 Q87 -150 76 -148 Q69 -147 59.5 -142.5 Q50 -138 41.5 -129.5 Q33 -121 26.5 -107.5 Q20 -94 20 -74 Q19 -54 31.5 -40.5 Q44 -27 59 -19 Q77 -9 99 -4 L96 25 L96 25 Z " />
<glyph glyph-name="dotlessi" unicode="&#x131;" horiz-adv-x="164" d="M191 207 Q197 221 201 225 Q205 229 206.5 225.5 Q208 222 207 212.5 Q206 203 200 189 Q194 175 187 155.5 Q180 136 171.5 116 Q163 96 153.5 78 Q144 60 133 49 Q127 43 114.5 40.5 Q102 38 87.5 39.5 Q73 41 60 45 Q47 49 40 56 Q26 70 14.5 103.5 Q3 137 1 192 Q0 220 3 238 Q6 256 10 266.5 Q14 277 18 282 Q22 287 24 288 Q27 290 35 290 Q43 290 51.5 288.5 Q60 287 67.5 283.5 Q75 280 78 274 Q83 262 81.5 242 Q80 222 78 202 Q77 182 80 162.5 Q83 143 86 116 Q88 100 94 87.5 Q100 75 108 69 Q116 63 124.5 65 Q133 67 141 80 Q156 106 168 142.5 Q180 179 191 207 Z " />
<glyph glyph-name="ring" unicode="&#x2da;" horiz-adv-x="156" d="M89 648 Q109 646 117.5 638 Q126 630 128 619 Q129 614 129 603 Q129 592 125.5 581 Q122 570 113 560.5 Q104 551 86 549 Q63 545 50.5 552.5 Q38 560 31.5 571.5 Q25 583 24 595.5 Q23 608 24 615 Q25 626 32 632.5 Q39 639 48.5 642.5 Q58 646 69 647 Q80 648 89 648 Z M56 563 Q69 557 78 565 Q87 573 92.5 585.5 Q98 598 99.5 610 Q101 622 98 625 Q93 631 81 624 Q69 617 59.5 605 Q50 593 47 580.5 Q44 568 56 563 Z " />
<glyph glyph-name="dotaccent" unicode="&#x2d9;" horiz-adv-x="115" d="M32 642 Q48 644 59 641.5 Q70 639 77 634.5 Q84 630 88 624.5 Q92 619 94 616 Q96 613 96.5 605 Q97 597 95 588.5 Q93 580 87 573.5 Q81 567 71 567 Q50 568 34.5 581 Q19 594 17 600 Q16 603 17 610 Q18 617 20 624 Q22 631 25 636.5 Q28 642 32 642 Z " />
<glyph glyph-name="breve" unicode="&#x2d8;" horiz-adv-x="155" d="M6 631 Q6 649 16.5 647 Q27 645 27 627 Q27 618 32.5 613.5 Q38 609 45.5 607 Q53 605 61 604.5 Q69 604 74 604 Q80 604 88.5 606 Q97 608 104 612 Q111 616 116 620.5 Q121 625 121 631 Q121 636 125.5 640 Q130 644 135 644.5 Q140 645 144 641 Q148 637 147 627 Q144 607 123.5 594 Q103 581 71 581 Q41 581 23.5 596 Q6 611 6 631 Z " />
<glyph glyph-name="f_l" unicode="&#xfb02;" horiz-adv-x="392" d="M415 168 Q419 180 424.5 194.5 Q430 209 434 217.5 Q438 226 440 225.5 Q442 225 440 208 Q438 191 429 157 Q420 123 408 87 Q396 51 382.5 20 Q369 -11 358 -22 Q350 -30 339 -36 Q328 -42 315 -43.5 Q302 -45 287.5 -40.5 Q273 -36 259 -22 Q250 -14 243.5 5.5 Q237 25 231.5 51 Q226 77 222.5 108.5 Q219 140 217 172 Q203 157 190 147.5 Q177 138 167 133 Q149 125 142.5 122.5 Q136 120 135 118.5 Q134 117 138 115 Q142 113 145 108 Q160 88 167.5 64 Q175 40 177.5 14 Q180 -12 179 -38.5 Q178 -65 176 -90 Q175 -100 174 -114 Q173 -128 172 -143 Q171 -158 170 -172 Q169 -186 168 -196 Q167 -207 163.5 -223 Q160 -239 155 -254 Q150 -269 142.5 -280 Q135 -291 125 -292 Q115 -293 103 -292 Q91 -291 79 -286.5 Q67 -282 57.5 -273.5 Q48 -265 42 -251 Q36 -237 29 -215 Q22 -193 16 -158.5 Q10 -124 5.5 -73.5 Q1 -23 0 48 Q-1 111 1 180.5 Q3 250 10 314 Q17 378 28.5 431.5 Q40 485 59 517 Q78 549 105 553.5 Q132 558 168 524 Q172 521 166 504.5 Q160 488 149 461 Q138 434 125 398.5 Q112 363 101 321 Q90 279 83.5 232 Q77 185 80 136 Q82 137 85.5 137 Q89 137 91 137 Q94 137 107.5 138.5 Q121 140 139.5 147 Q158 154 178 167 Q198 180 215 203 Q213 231 212 257.5 Q211 284 210.5 306 Q210 328 210.5 343.5 Q211 359 211 365 Q212 396 213.5 437 Q215 478 224 514 Q233 550 252 575 Q271 600 309 600 Q328 600 337 582 Q346 564 348.5 536.5 Q351 509 349 477.5 Q347 446 344 419 Q339 382 324.5 345 Q310 308 299 285 Q298 247 298 200 Q298 153 300 111 Q302 69 308.5 38.5 Q315 8 317 2 Q322 -16 328 -18.5 Q334 -21 345 -15 Q357 -9 367.5 16 Q378 41 387.5 70.5 Q397 100 404 127.5 Q411 155 415 168 Z M139 -143 Q140 -131 141.5 -109 Q143 -87 144.5 -61.5 Q146 -36 145.5 -8.5 Q145 19 141.5 43.5 Q138 68 131 86 Q124 104 111 111 Q96 119 89 124 Q82 129 80 131 Q79 120 79 108 Q79 96 79 84 Q79 54 79.5 16.5 Q80 -21 81.5 -59.5 Q83 -98 85.5 -134.5 Q88 -171 91.5 -199.5 Q95 -228 99 -245.5 Q103 -263 108 -263 Q115 -263 120.5 -251.5 Q126 -240 129.5 -222 Q133 -204 135.5 -182.5 Q138 -161 139 -143 Z M306 570 Q298 569 296.5 553.5 Q295 538 294 528 Q294 523 295.5 502.5 Q297 482 298.5 455.5 Q300 429 301 401 Q302 373 301 353 Q301 350 300.5 346 Q300 342 300 337 Q305 351 309 373 Q313 395 315.5 417.5 Q318 440 319.5 458.5 Q321 477 321 484 Q321 491 320.5 502 Q320 513 319.5 523.5 Q319 534 318.5 543 Q318 552 317 556 Q314 571 306 570 Z " />
<glyph glyph-name="Lslash" unicode="&#x141;" horiz-adv-x="344" d="M24 280 Q16 280 11.5 287 Q7 294 4.5 303 Q2 312 1 320.5 Q0 329 0 332 Q-1 338 1 352 Q3 366 17 385 Q24 394 30.5 404.5 Q37 415 45.5 426.5 Q54 438 65.5 450.5 Q77 463 94 476 L97 479 Q99 496 99.5 510.5 Q100 525 102 535 Q107 577 120 612 Q133 647 144 664 Q150 673 156.5 676 Q163 679 169.5 679 Q176 679 181.5 678 Q187 677 190 677 Q198 676 206 675 Q214 674 225 671 Q235 668 241 662 Q247 656 245 630 Q246 594 226 567.5 Q206 541 180 519 Q179 496 179 470.5 Q179 445 179 422 Q179 399 179.5 381 Q180 363 182 354 Q184 341 184.5 307.5 Q185 274 186 236 Q220 237 246 237.5 Q272 238 279 237 Q287 236 294.5 229 Q302 222 307 214 Q312 206 313 198.5 Q314 191 310 190 Q308 189 296.5 188.5 Q285 188 268 187 Q251 186 229.5 185.5 Q208 185 186 185 Q186 162 185.5 142.5 Q185 123 185 113 Q185 99 183 92 Q181 85 178 79 Q175 73 171 65 Q167 57 163 42 Q207 31 247 10.5 Q287 -10 326 -30.5 Q365 -51 404.5 -66.5 Q444 -82 487 -83 Q526 -85 540 -74.5 Q554 -64 557 -52 Q559 -42 564.5 -49.5 Q570 -57 573 -72 Q576 -87 573.5 -105.5 Q571 -124 558 -137 Q545 -150 518 -152.5 Q491 -155 446 -138 Q416 -127 380.5 -108 Q345 -89 306.5 -68.5 Q268 -48 228.5 -29.5 Q189 -11 151 0 Q137 -33 116.5 -47 Q96 -61 84 -65 Q66 -70 53 -62.5 Q40 -55 34 -41 Q28 -27 29.5 -10 Q31 7 42 20 Q53 33 65.5 42.5 Q78 52 89 52 L95 52 Q95 75 94 96 Q93 117 94 122 Q94 129 94 145.5 Q94 162 93 185 Q79 186 71 186.5 Q63 187 62 188 Q60 189 53.5 195.5 Q47 202 41 209.5 Q35 217 31 223 Q27 229 30 230 Q31 230 48 231 Q65 232 91 233 L91 244 Q90 258 90 280.5 Q90 303 91 330 Q92 357 93 386.5 Q94 416 95 443 Q86 433 79 424 Q72 415 65 406 Q37 368 29 343 Q25 331 24 319 Q23 307 24 299 Q25 291 26 285.5 Q27 280 24 280 Z M183 587 Q181 577 181 560 Q203 587 213 611 Q223 635 214 653 Q211 658 206 652 Q201 646 196.5 634.5 Q192 623 188 609.5 Q184 596 183 587 Z M89 -17 Q93 -8 94 9 Q89 10 83.5 9.5 Q78 9 73 9 Q64 8 65.5 -2.5 Q67 -13 70 -23 Q74 -32 77.5 -31.5 Q81 -31 89 -17 Z " />
<glyph glyph-name="lslash" unicode="&#x142;" horiz-adv-x="287" d="M278 168 Q282 180 287.5 194.5 Q293 209 297 217.5 Q301 226 303 225.5 Q305 225 303 208 Q301 191 292 157 Q283 123 271 87 Q259 51 245.5 20 Q232 -11 221 -22 Q213 -30 202 -36 Q191 -42 178 -43.5 Q165 -45 150.5 -40.5 Q136 -36 122 -22 Q113 -13 106 7.5 Q99 28 93.5 56.5 Q88 85 84.5 118 Q81 151 79 185 Q62 180 52 177.5 Q42 175 40 176 Q37 177 29 181.5 Q21 186 13 191.5 Q5 197 -0.5 201.5 Q-6 206 -3 208 Q-1 209 21.5 216.5 Q44 224 76 235 Q74 282 73.5 318 Q73 354 74 365 Q75 396 76.5 437 Q78 478 87 514 Q96 550 115 575 Q134 600 172 600 Q191 600 200 582 Q209 564 211.5 536.5 Q214 509 212 477.5 Q210 446 207 419 Q202 382 187.5 345 Q173 308 162 285 L162 262 Q188 271 208.5 277 Q229 283 235 284 Q243 285 252.5 280.5 Q262 276 268.5 269.5 Q275 263 278 256.5 Q281 250 277 247 Q275 246 264.5 242 Q254 238 238 233 Q222 228 202 221.5 Q182 215 161 209 Q161 184 161 159 Q161 134 163 111 Q165 69 171.5 38.5 Q178 8 180 2 Q185 -16 191 -18.5 Q197 -21 208 -15 Q220 -9 230.5 16 Q241 41 250.5 70.5 Q260 100 267 127.5 Q274 155 278 168 Z M169 570 Q161 569 159.5 553.5 Q158 538 157 528 Q157 523 158.5 502.5 Q160 482 161.5 455.5 Q163 429 164 401 Q165 373 164 353 Q164 350 163.5 346 Q163 342 163 337 Q168 351 172 373 Q176 395 178.5 417.5 Q181 440 182.5 458.5 Q184 477 184 484 Q184 491 183.5 502 Q183 513 182.5 523.5 Q182 534 181.5 543 Q181 552 180 556 Q177 571 169 570 Z " />
<glyph glyph-name="sterling" unicode="&#xa3;" horiz-adv-x="344" d="M23 417 Q25 417 45 418 Q65 419 94 421 Q94 426 94 432 Q94 438 95 443 Q97 466 97.5 488.5 Q98 511 102 535 Q107 577 120 612 Q133 647 144 664 Q150 673 156.5 676 Q163 679 169.5 679 Q176 679 181.5 678 Q187 677 190 677 Q198 676 206 675 Q214 674 225 671 Q235 668 241 662 Q247 656 245 630 Q246 594 226 567.5 Q206 541 180 519 Q179 496 178.5 471 Q178 446 178 423 Q212 424 238.5 424.5 Q265 425 272 424 Q280 423 287.5 416 Q295 409 300 401 Q305 393 306 385.5 Q307 378 303 377 Q301 376 289.5 375.5 Q278 375 261 374 Q244 373 223 372.5 Q202 372 180 372 Q180 362 182 354 Q184 341 185 307.5 Q186 274 186 236 Q186 198 185.5 163 Q185 128 185 113 Q185 99 183 92 Q181 85 178 79 Q175 73 171 65 Q167 57 163 42 Q207 31 247 10.5 Q287 -10 326 -30.5 Q365 -51 404.5 -66.5 Q444 -82 487 -83 Q526 -85 540 -74.5 Q554 -64 557 -52 Q559 -42 564.5 -49.5 Q570 -57 573 -72 Q576 -87 573.5 -105.5 Q571 -124 558 -137 Q545 -150 518 -152.5 Q491 -155 446 -138 Q416 -127 380.5 -108 Q345 -89 306.5 -68.5 Q268 -48 228.5 -29.5 Q189 -11 151 0 Q137 -33 116.5 -47 Q96 -61 84 -65 Q66 -70 53 -62.5 Q40 -55 34 -41 Q28 -27 29.5 -10 Q31 7 42 20 Q53 33 65.5 42.5 Q78 52 89 52 L95 52 Q95 75 94 96 Q93 117 94 122 Q95 133 94 166 Q93 199 91 244 Q89 264 89.5 298.5 Q90 333 92 372 Q76 373 66 373.5 Q56 374 55 375 Q53 376 46.5 382.5 Q40 389 34 396.5 Q28 404 24 410 Q20 416 23 417 Z M183 587 Q181 577 181 560 Q203 587 213 611 Q223 635 214 653 Q211 658 206 652 Q201 646 196.5 634.5 Q192 623 188 609.5 Q184 596 183 587 Z M89 -17 Q93 -8 94 9 Q89 10 83.5 9.5 Q78 9 73 9 Q64 8 65.5 -2.5 Q67 -13 70 -23 Q74 -32 77.5 -31.5 Q81 -31 89 -17 Z " />
<glyph glyph-name="minus" unicode="&#x2212;" horiz-adv-x="497" d="M36 230 Q37 231 64 231.5 Q91 232 131 233 Q171 234 218 235 Q265 236 306.5 237 Q348 238 378 238 Q408 238 414 237 Q422 236 429.5 229 Q437 222 442 214 Q447 206 448 198.5 Q449 191 445 190 Q442 189 413.5 188 Q385 187 343.5 186.5 Q302 186 254.5 185.5 Q207 185 166 185.5 Q125 186 97 186.5 Q69 187 68 188 Q66 189 59.5 195.5 Q53 202 47 209.5 Q41 217 37 223 Q33 229 36 230 Z " />
<glyph glyph-name="Agrave" unicode="&#xc0;" horiz-adv-x="579" d="M443 629 Q447 629 453 628 Q459 627 465 623.5 Q471 620 476 613 Q481 606 484 594 Q490 569 491.5 530 Q493 491 494 459 Q494 448 494.5 420 Q495 392 495 354.5 Q495 317 495 274 Q495 231 495 191 Q495 151 494.5 118 Q494 85 494 68 Q494 61 493.5 53.5 Q493 46 493 37 Q522 25 547.5 10 Q573 -5 591.5 -24 Q610 -43 620 -66.5 Q630 -90 629 -120 Q628 -144 613.5 -159 Q599 -174 578.5 -181 Q558 -188 534.5 -186.5 Q511 -185 492 -176 Q481 -171 468 -160 Q455 -149 443 -133.5 Q431 -118 421 -98.5 Q411 -79 407 -58 Q405 -47 403.5 -24.5 Q402 -2 400 28 Q371 39 342.5 49.5 Q314 60 290 70 Q282 59 275 48.5 Q268 38 260 27 Q241 3 220 -21.5 Q199 -46 178 -65.5 Q157 -85 136.5 -98 Q116 -111 98 -113 Q75 -115 51 -101.5 Q27 -88 13 -65 Q9 -67 7 -69 Q-8 -79 -17.5 -85.5 Q-27 -92 -31 -94 Q-37 -99 -45 -97 Q-47 -96 -41 -89 Q-35 -82 -23 -73 Q-18 -69 -10.5 -62.5 Q-3 -56 5 -48 Q1 -39 0 -30 Q-1 -21 -1 -11 Q0 10 6.5 33 Q13 56 22 77 Q31 98 43 114 Q55 130 68 138 Q74 141 76 140 Q78 139 85 137 Q93 135 98 135 Q103 135 111 133 Q119 131 127 125.5 Q135 120 135 107 Q135 95 128.5 75 Q122 55 113 41 Q107 30 87 6 Q67 -18 42 -41 Q44 -58 53.5 -71.5 Q63 -85 81 -84 Q104 -83 132.5 -63 Q161 -43 182 -18 Q205 8 224 32.5 Q243 57 260 82 Q244 89 232 95.5 Q220 102 214 108 Q198 124 192.5 139 Q187 154 185 165 Q184 177 187.5 191.5 Q191 206 203 208 Q215 210 226.5 210 Q238 210 233 197 Q231 191 226 188 Q221 185 215.5 182.5 Q210 180 206.5 178.5 Q203 177 203 174 Q205 154 226 139 Q247 124 279 111 Q321 179 348.5 248.5 Q376 318 401 400 Q402 419 403.5 450.5 Q405 482 407.5 513 Q410 544 412 568.5 Q414 593 416 600 Q420 615 421.5 622.5 Q423 630 427 630 Q431 631 435 630 Q439 629 443 629 Z M575 -163 Q592 -163 598.5 -153 Q605 -143 606 -129.5 Q607 -116 603.5 -104 Q600 -92 598 -87 Q587 -67 559.5 -47.5 Q532 -28 495 -10 Q496 -37 500.5 -65 Q505 -93 514 -115 Q523 -137 537.5 -150.5 Q552 -164 575 -163 Z M308 100 Q329 93 352 86 Q375 79 399 71 Q399 102 398.5 136.5 Q398 171 398 204.5 Q398 238 398.5 268.5 Q399 299 399 323 Q382 267 360 210.5 Q338 154 308 100 Z M46 -8 Q53 -1 65.5 14.5 Q78 30 89 47.5 Q100 65 108.5 80 Q117 95 117 101 Q117 107 115 112 Q113 117 109.5 119 Q106 121 101 119 Q96 117 89 108 Q83 100 75.5 85 Q68 70 61.5 53 Q55 36 49.5 19 Q44 2 42 -11 Q43 -10 44 -9.5 Q45 -9 46 -8 Z M375 813 Q372 813 378.5 813.5 Q385 814 395 813.5 Q405 813 416 810 Q427 807 433 800 Q439 793 448 779.5 Q457 766 466.5 751 Q476 736 483.5 723.5 Q491 711 494 707 Q497 702 499.5 698 Q502 694 501.5 690.5 Q501 687 496 685.5 Q491 684 479 684 Q469 683 462 692.5 Q455 702 450 713 Q447 719 435.5 735 Q424 751 411.5 768.5 Q399 786 388 799.5 Q377 813 375 813 Z " />
<glyph glyph-name="Aacute" unicode="&#xc1;" horiz-adv-x="579" d="M443 629 Q447 629 453 628 Q459 627 465 623.5 Q471 620 476 613 Q481 606 484 594 Q490 569 491.5 530 Q493 491 494 459 Q494 448 494.5 420 Q495 392 495 354.5 Q495 317 495 274 Q495 231 495 191 Q495 151 494.5 118 Q494 85 494 68 Q494 61 493.5 53.5 Q493 46 493 37 Q522 25 547.5 10 Q573 -5 591.5 -24 Q610 -43 620 -66.5 Q630 -90 629 -120 Q628 -144 613.5 -159 Q599 -174 578.5 -181 Q558 -188 534.5 -186.5 Q511 -185 492 -176 Q481 -171 468 -160 Q455 -149 443 -133.5 Q431 -118 421 -98.5 Q411 -79 407 -58 Q405 -47 403.5 -24.5 Q402 -2 400 28 Q371 39 342.5 49.5 Q314 60 290 70 Q282 59 275 48.5 Q268 38 260 27 Q241 3 220 -21.5 Q199 -46 178 -65.5 Q157 -85 136.5 -98 Q116 -111 98 -113 Q75 -115 51 -101.5 Q27 -88 13 -65 Q9 -67 7 -69 Q-8 -79 -17.5 -85.5 Q-27 -92 -31 -94 Q-37 -99 -45 -97 Q-47 -96 -41 -89 Q-35 -82 -23 -73 Q-18 -69 -10.5 -62.5 Q-3 -56 5 -48 Q1 -39 0 -30 Q-1 -21 -1 -11 Q0 10 6.5 33 Q13 56 22 77 Q31 98 43 114 Q55 130 68 138 Q74 141 76 140 Q78 139 85 137 Q93 135 98 135 Q103 135 111 133 Q119 131 127 125.5 Q135 120 135 107 Q135 95 128.5 75 Q122 55 113 41 Q107 30 87 6 Q67 -18 42 -41 Q44 -58 53.5 -71.5 Q63 -85 81 -84 Q104 -83 132.5 -63 Q161 -43 182 -18 Q205 8 224 32.5 Q243 57 260 82 Q244 89 232 95.5 Q220 102 214 108 Q198 124 192.5 139 Q187 154 185 165 Q184 177 187.5 191.5 Q191 206 203 208 Q215 210 226.5 210 Q238 210 233 197 Q231 191 226 188 Q221 185 215.5 182.5 Q210 180 206.5 178.5 Q203 177 203 174 Q205 154 226 139 Q247 124 279 111 Q321 179 348.5 248.5 Q376 318 401 400 Q402 419 403.5 450.5 Q405 482 407.5 513 Q410 544 412 568.5 Q414 593 416 600 Q420 615 421.5 622.5 Q423 630 427 630 Q431 631 435 630 Q439 629 443 629 Z M575 -163 Q592 -163 598.5 -153 Q605 -143 606 -129.5 Q607 -116 603.5 -104 Q600 -92 598 -87 Q587 -67 559.5 -47.5 Q532 -28 495 -10 Q496 -37 500.5 -65 Q505 -93 514 -115 Q523 -137 537.5 -150.5 Q552 -164 575 -163 Z M308 100 Q329 93 352 86 Q375 79 399 71 Q399 102 398.5 136.5 Q398 171 398 204.5 Q398 238 398.5 268.5 Q399 299 399 323 Q382 267 360 210.5 Q338 154 308 100 Z M46 -8 Q53 -1 65.5 14.5 Q78 30 89 47.5 Q100 65 108.5 80 Q117 95 117 101 Q117 107 115 112 Q113 117 109.5 119 Q106 121 101 119 Q96 117 89 108 Q83 100 75.5 85 Q68 70 61.5 53 Q55 36 49.5 19 Q44 2 42 -11 Q43 -10 44 -9.5 Q45 -9 46 -8 Z M537 817 Q535 817 524 803.5 Q513 790 500 772.5 Q487 755 476 739 Q465 723 462 717 Q457 706 450 696.5 Q443 687 433 688 Q421 688 416 689.5 Q411 691 410.5 694.5 Q410 698 412.5 702 Q415 706 418 711 Q421 715 428.5 727.5 Q436 740 445.5 755 Q455 770 464 783.5 Q473 797 479 804 Q485 811 496 814 Q507 817 517 817.5 Q527 818 533.5 817.5 Q540 817 537 817 Z " />
<glyph glyph-name="Acircumflex" unicode="&#xc2;" horiz-adv-x="579" d="M443 629 Q447 629 453 628 Q459 627 465 623.5 Q471 620 476 613 Q481 606 484 594 Q490 569 491.5 530 Q493 491 494 459 Q494 448 494.5 420 Q495 392 495 354.5 Q495 317 495 274 Q495 231 495 191 Q495 151 494.5 118 Q494 85 494 68 Q494 61 493.5 53.5 Q493 46 493 37 Q522 25 547.5 10 Q573 -5 591.5 -24 Q610 -43 620 -66.5 Q630 -90 629 -120 Q628 -144 613.5 -159 Q599 -174 578.5 -181 Q558 -188 534.5 -186.5 Q511 -185 492 -176 Q481 -171 468 -160 Q455 -149 443 -133.5 Q431 -118 421 -98.5 Q411 -79 407 -58 Q405 -47 403.5 -24.5 Q402 -2 400 28 Q371 39 342.5 49.5 Q314 60 290 70 Q282 59 275 48.5 Q268 38 260 27 Q241 3 220 -21.5 Q199 -46 178 -65.5 Q157 -85 136.5 -98 Q116 -111 98 -113 Q75 -115 51 -101.5 Q27 -88 13 -65 Q9 -67 7 -69 Q-8 -79 -17.5 -85.5 Q-27 -92 -31 -94 Q-37 -99 -45 -97 Q-47 -96 -41 -89 Q-35 -82 -23 -73 Q-18 -69 -10.5 -62.5 Q-3 -56 5 -48 Q1 -39 0 -30 Q-1 -21 -1 -11 Q0 10 6.5 33 Q13 56 22 77 Q31 98 43 114 Q55 130 68 138 Q74 141 76 140 Q78 139 85 137 Q93 135 98 135 Q103 135 111 133 Q119 131 127 125.5 Q135 120 135 107 Q135 95 128.5 75 Q122 55 113 41 Q107 30 87 6 Q67 -18 42 -41 Q44 -58 53.5 -71.5 Q63 -85 81 -84 Q104 -83 132.5 -63 Q161 -43 182 -18 Q205 8 224 32.5 Q243 57 260 82 Q244 89 232 95.5 Q220 102 214 108 Q198 124 192.5 139 Q187 154 185 165 Q184 177 187.5 191.5 Q191 206 203 208 Q215 210 226.5 210 Q238 210 233 197 Q231 191 226 188 Q221 185 215.5 182.5 Q210 180 206.5 178.5 Q203 177 203 174 Q205 154 226 139 Q247 124 279 111 Q321 179 348.5 248.5 Q376 318 401 400 Q402 419 403.5 450.5 Q405 482 407.5 513 Q410 544 412 568.5 Q414 593 416 600 Q420 615 421.5 622.5 Q423 630 427 630 Q431 631 435 630 Q439 629 443 629 Z M575 -163 Q592 -163 598.5 -153 Q605 -143 606 -129.5 Q607 -116 603.5 -104 Q600 -92 598 -87 Q587 -67 559.5 -47.5 Q532 -28 495 -10 Q496 -37 500.5 -65 Q505 -93 514 -115 Q523 -137 537.5 -150.5 Q552 -164 575 -163 Z M308 100 Q329 93 352 86 Q375 79 399 71 Q399 102 398.5 136.5 Q398 171 398 204.5 Q398 238 398.5 268.5 Q399 299 399 323 Q382 267 360 210.5 Q338 154 308 100 Z M46 -8 Q53 -1 65.5 14.5 Q78 30 89 47.5 Q100 65 108.5 80 Q117 95 117 101 Q117 107 115 112 Q113 117 109.5 119 Q106 121 101 119 Q96 117 89 108 Q83 100 75.5 85 Q68 70 61.5 53 Q55 36 49.5 19 Q44 2 42 -11 Q43 -10 44 -9.5 Q45 -9 46 -8 Z M543 691 Q523 693 512 693 Q501 693 493 704 Q489 710 481.5 722 Q474 734 466 747 Q458 760 451.5 770 Q445 780 444 780 Q442 780 431 767.5 Q420 755 406.5 739.5 Q393 724 381.5 710 Q370 696 367 694 Q364 692 359 691 Q354 690 349.5 691 Q345 692 343.5 695.5 Q342 699 348 706 Q354 713 367 728.5 Q380 744 393.5 760.5 Q407 777 418.5 790 Q430 803 433 805 Q441 809 453 807 Q465 805 473 797 Q477 793 487.5 776 Q498 759 510 740.5 Q522 722 531.5 707.5 Q541 693 543 693 Q544 693 544 692 Q544 690 543 691 Z " />
<glyph glyph-name="Atilde" unicode="&#xc3;" horiz-adv-x="579" d="M443 629 Q447 629 453 628 Q459 627 465 623.5 Q471 620 476 613 Q481 606 484 594 Q490 569 491.5 530 Q493 491 494 459 Q494 448 494.5 420 Q495 392 495 354.5 Q495 317 495 274 Q495 231 495 191 Q495 151 494.5 118 Q494 85 494 68 Q494 61 493.5 53.5 Q493 46 493 37 Q522 25 547.5 10 Q573 -5 591.5 -24 Q610 -43 620 -66.5 Q630 -90 629 -120 Q628 -144 613.5 -159 Q599 -174 578.5 -181 Q558 -188 534.5 -186.5 Q511 -185 492 -176 Q481 -171 468 -160 Q455 -149 443 -133.5 Q431 -118 421 -98.5 Q411 -79 407 -58 Q405 -47 403.5 -24.5 Q402 -2 400 28 Q371 39 342.5 49.5 Q314 60 290 70 Q282 59 275 48.5 Q268 38 260 27 Q241 3 220 -21.5 Q199 -46 178 -65.5 Q157 -85 136.5 -98 Q116 -111 98 -113 Q75 -115 51 -101.5 Q27 -88 13 -65 Q9 -67 7 -69 Q-8 -79 -17.5 -85.5 Q-27 -92 -31 -94 Q-37 -99 -45 -97 Q-47 -96 -41 -89 Q-35 -82 -23 -73 Q-18 -69 -10.5 -62.5 Q-3 -56 5 -48 Q1 -39 0 -30 Q-1 -21 -1 -11 Q0 10 6.5 33 Q13 56 22 77 Q31 98 43 114 Q55 130 68 138 Q74 141 76 140 Q78 139 85 137 Q93 135 98 135 Q103 135 111 133 Q119 131 127 125.5 Q135 120 135 107 Q135 95 128.5 75 Q122 55 113 41 Q107 30 87 6 Q67 -18 42 -41 Q44 -58 53.5 -71.5 Q63 -85 81 -84 Q104 -83 132.5 -63 Q161 -43 182 -18 Q205 8 224 32.5 Q243 57 260 82 Q244 89 232 95.5 Q220 102 214 108 Q198 124 192.5 139 Q187 154 185 165 Q184 177 187.5 191.5 Q191 206 203 208 Q215 210 226.5 210 Q238 210 233 197 Q231 191 226 188 Q221 185 215.5 182.5 Q210 180 206.5 178.5 Q203 177 203 174 Q205 154 226 139 Q247 124 279 111 Q321 179 348.5 248.5 Q376 318 401 400 Q402 419 403.5 450.5 Q405 482 407.5 513 Q410 544 412 568.5 Q414 593 416 600 Q420 615 421.5 622.5 Q423 630 427 630 Q431 631 435 630 Q439 629 443 629 Z M575 -163 Q592 -163 598.5 -153 Q605 -143 606 -129.5 Q607 -116 603.5 -104 Q600 -92 598 -87 Q587 -67 559.5 -47.5 Q532 -28 495 -10 Q496 -37 500.5 -65 Q505 -93 514 -115 Q523 -137 537.5 -150.5 Q552 -164 575 -163 Z M308 100 Q329 93 352 86 Q375 79 399 71 Q399 102 398.5 136.5 Q398 171 398 204.5 Q398 238 398.5 268.5 Q399 299 399 323 Q382 267 360 210.5 Q338 154 308 100 Z M46 -8 Q53 -1 65.5 14.5 Q78 30 89 47.5 Q100 65 108.5 80 Q117 95 117 101 Q117 107 115 112 Q113 117 109.5 119 Q106 121 101 119 Q96 117 89 108 Q83 100 75.5 85 Q68 70 61.5 53 Q55 36 49.5 19 Q44 2 42 -11 Q43 -10 44 -9.5 Q45 -9 46 -8 Z M298 660 Q298 685 307 705 Q315 722 332.5 737 Q350 752 383 754 Q406 754 418.5 752.5 Q431 751 439.5 750.5 Q448 750 455 749.5 Q462 749 474 751 Q497 754 516.5 765.5 Q536 777 537 788 Q537 794 539.5 794 Q542 794 544 790 Q546 786 547 779.5 Q548 773 546 766 Q544 759 537.5 748 Q531 737 521 726.5 Q511 716 498 708.5 Q485 701 469 700 Q456 699 438 699.5 Q420 700 403 700 Q386 700 372.5 700.5 Q359 701 355 700 Q350 699 342.5 697.5 Q335 696 327 692 Q319 688 311 680.5 Q303 673 298 660 Z " />
<glyph glyph-name="Adieresis" unicode="&#xc4;" horiz-adv-x="579" d="M443 629 Q447 629 453 628 Q459 627 465 623.5 Q471 620 476 613 Q481 606 484 594 Q490 569 491.5 530 Q493 491 494 459 Q494 448 494.5 420 Q495 392 495 354.5 Q495 317 495 274 Q495 231 495 191 Q495 151 494.5 118 Q494 85 494 68 Q494 61 493.5 53.5 Q493 46 493 37 Q522 25 547.5 10 Q573 -5 591.5 -24 Q610 -43 620 -66.5 Q630 -90 629 -120 Q628 -144 613.5 -159 Q599 -174 578.5 -181 Q558 -188 534.5 -186.5 Q511 -185 492 -176 Q481 -171 468 -160 Q455 -149 443 -133.5 Q431 -118 421 -98.5 Q411 -79 407 -58 Q405 -47 403.5 -24.5 Q402 -2 400 28 Q371 39 342.5 49.5 Q314 60 290 70 Q282 59 275 48.5 Q268 38 260 27 Q241 3 220 -21.5 Q199 -46 178 -65.5 Q157 -85 136.5 -98 Q116 -111 98 -113 Q75 -115 51 -101.5 Q27 -88 13 -65 Q9 -67 7 -69 Q-8 -79 -17.5 -85.5 Q-27 -92 -31 -94 Q-37 -99 -45 -97 Q-47 -96 -41 -89 Q-35 -82 -23 -73 Q-18 -69 -10.5 -62.5 Q-3 -56 5 -48 Q1 -39 0 -30 Q-1 -21 -1 -11 Q0 10 6.5 33 Q13 56 22 77 Q31 98 43 114 Q55 130 68 138 Q74 141 76 140 Q78 139 85 137 Q93 135 98 135 Q103 135 111 133 Q119 131 127 125.5 Q135 120 135 107 Q135 95 128.5 75 Q122 55 113 41 Q107 30 87 6 Q67 -18 42 -41 Q44 -58 53.5 -71.5 Q63 -85 81 -84 Q104 -83 132.5 -63 Q161 -43 182 -18 Q205 8 224 32.5 Q243 57 260 82 Q244 89 232 95.5 Q220 102 214 108 Q198 124 192.5 139 Q187 154 185 165 Q184 177 187.5 191.5 Q191 206 203 208 Q215 210 226.5 210 Q238 210 233 197 Q231 191 226 188 Q221 185 215.5 182.5 Q210 180 206.5 178.5 Q203 177 203 174 Q205 154 226 139 Q247 124 279 111 Q321 179 348.5 248.5 Q376 318 401 400 Q402 419 403.5 450.5 Q405 482 407.5 513 Q410 544 412 568.5 Q414 593 416 600 Q420 615 421.5 622.5 Q423 630 427 630 Q431 631 435 630 Q439 629 443 629 Z M575 -163 Q592 -163 598.5 -153 Q605 -143 606 -129.5 Q607 -116 603.5 -104 Q600 -92 598 -87 Q587 -67 559.5 -47.5 Q532 -28 495 -10 Q496 -37 500.5 -65 Q505 -93 514 -115 Q523 -137 537.5 -150.5 Q552 -164 575 -163 Z M308 100 Q329 93 352 86 Q375 79 399 71 Q399 102 398.5 136.5 Q398 171 398 204.5 Q398 238 398.5 268.5 Q399 299 399 323 Q382 267 360 210.5 Q338 154 308 100 Z M46 -8 Q53 -1 65.5 14.5 Q78 30 89 47.5 Q100 65 108.5 80 Q117 95 117 101 Q117 107 115 112 Q113 117 109.5 119 Q106 121 101 119 Q96 117 89 108 Q83 100 75.5 85 Q68 70 61.5 53 Q55 36 49.5 19 Q44 2 42 -11 Q43 -10 44 -9.5 Q45 -9 46 -8 Z M477 755 Q493 757 504 754.5 Q515 752 522 747.5 Q529 743 533 737.5 Q537 732 539 729 Q541 726 541.5 718 Q542 710 540 701.5 Q538 693 532 686.5 Q526 680 516 680 Q495 681 479.5 694 Q464 707 462 713 Q461 716 462 723 Q463 730 465 737 Q467 744 470 749.5 Q473 755 477 755 Z M342 762 Q358 764 369 761.5 Q380 759 387 754.5 Q394 750 398 744.5 Q402 739 404 736 Q406 733 406.5 725 Q407 717 405 708.5 Q403 700 397 693.5 Q391 687 381 687 Q360 688 344.5 701 Q329 714 327 720 Q326 723 327 730 Q328 737 330 744 Q332 751 335 756.5 Q338 762 342 762 Z " />
<glyph glyph-name="Aring" unicode="&#xc5;" horiz-adv-x="579" d="M443 629 Q447 629 453 628 Q459 627 465 623.5 Q471 620 476 613 Q481 606 484 594 Q490 569 491.5 530 Q493 491 494 459 Q494 448 494.5 420 Q495 392 495 354.5 Q495 317 495 274 Q495 231 495 191 Q495 151 494.5 118 Q494 85 494 68 Q494 61 493.5 53.5 Q493 46 493 37 Q522 25 547.5 10 Q573 -5 591.5 -24 Q610 -43 620 -66.5 Q630 -90 629 -120 Q628 -144 613.5 -159 Q599 -174 578.5 -181 Q558 -188 534.5 -186.5 Q511 -185 492 -176 Q481 -171 468 -160 Q455 -149 443 -133.5 Q431 -118 421 -98.5 Q411 -79 407 -58 Q405 -47 403.5 -24.5 Q402 -2 400 28 Q371 39 342.5 49.5 Q314 60 290 70 Q282 59 275 48.5 Q268 38 260 27 Q241 3 220 -21.5 Q199 -46 178 -65.5 Q157 -85 136.5 -98 Q116 -111 98 -113 Q75 -115 51 -101.5 Q27 -88 13 -65 Q9 -67 7 -69 Q-8 -79 -17.5 -85.5 Q-27 -92 -31 -94 Q-37 -99 -45 -97 Q-47 -96 -41 -89 Q-35 -82 -23 -73 Q-18 -69 -10.5 -62.5 Q-3 -56 5 -48 Q1 -39 0 -30 Q-1 -21 -1 -11 Q0 10 6.5 33 Q13 56 22 77 Q31 98 43 114 Q55 130 68 138 Q74 141 76 140 Q78 139 85 137 Q93 135 98 135 Q103 135 111 133 Q119 131 127 125.5 Q135 120 135 107 Q135 95 128.5 75 Q122 55 113 41 Q107 30 87 6 Q67 -18 42 -41 Q44 -58 53.5 -71.5 Q63 -85 81 -84 Q104 -83 132.5 -63 Q161 -43 182 -18 Q205 8 224 32.5 Q243 57 260 82 Q244 89 232 95.5 Q220 102 214 108 Q198 124 192.5 139 Q187 154 185 165 Q184 177 187.5 191.5 Q191 206 203 208 Q215 210 226.5 210 Q238 210 233 197 Q231 191 226 188 Q221 185 215.5 182.5 Q210 180 206.5 178.5 Q203 177 203 174 Q205 154 226 139 Q247 124 279 111 Q321 179 348.5 248.5 Q376 318 401 400 Q402 419 403.5 450.5 Q405 482 407.5 513 Q410 544 412 568.5 Q414 593 416 600 Q420 615 421.5 622.5 Q423 630 427 630 Q431 631 435 630 Q439 629 443 629 Z M575 -163 Q592 -163 598.5 -153 Q605 -143 606 -129.5 Q607 -116 603.5 -104 Q600 -92 598 -87 Q587 -67 559.5 -47.5 Q532 -28 495 -10 Q496 -37 500.5 -65 Q505 -93 514 -115 Q523 -137 537.5 -150.5 Q552 -164 575 -163 Z M308 100 Q329 93 352 86 Q375 79 399 71 Q399 102 398.5 136.5 Q398 171 398 204.5 Q398 238 398.5 268.5 Q399 299 399 323 Q382 267 360 210.5 Q338 154 308 100 Z M46 -8 Q53 -1 65.5 14.5 Q78 30 89 47.5 Q100 65 108.5 80 Q117 95 117 101 Q117 107 115 112 Q113 117 109.5 119 Q106 121 101 119 Q96 117 89 108 Q83 100 75.5 85 Q68 70 61.5 53 Q55 36 49.5 19 Q44 2 42 -11 Q43 -10 44 -9.5 Q45 -9 46 -8 Z M461 780 Q481 778 489.5 770 Q498 762 500 751 Q501 746 501 735 Q501 724 497.5 713 Q494 702 485 692.5 Q476 683 458 681 Q435 677 422.5 684.5 Q410 692 403.5 703.5 Q397 715 396 727.5 Q395 740 396 747 Q397 758 404 764.5 Q411 771 420.5 774.5 Q430 778 441 779 Q452 780 461 780 Z M428 695 Q441 689 450 697 Q459 705 464.5 717.5 Q470 730 471.5 742 Q473 754 470 757 Q465 763 453 756 Q441 749 431.5 737 Q422 725 419 712.5 Q416 700 428 695 Z " />
<glyph glyph-name="Ccedilla" unicode="&#xc7;" horiz-adv-x="437" d="M439 215 Q445 228 447.5 222 Q450 216 449 199.5 Q448 183 443.5 161 Q439 139 431 120 Q420 93 398.5 57.5 Q377 22 346 -10 Q315 -42 277 -66 Q239 -90 197 -94 L196 -105 Q218 -110 236 -120 Q251 -128 263 -141.5 Q275 -155 275 -175 Q275 -195 268.5 -208.5 Q262 -222 253.5 -230.5 Q245 -239 235.5 -243.5 Q226 -248 219 -249 Q208 -251 196 -249 Q184 -247 174 -242 Q164 -237 157.5 -230.5 Q151 -224 153 -217 Q155 -201 165 -201 Q167 -201 171 -207 Q175 -213 180 -220 Q185 -227 192.5 -232.5 Q200 -238 209 -237 Q228 -235 234.5 -226 Q241 -217 240 -201 Q240 -185 229 -168 Q218 -151 201 -150 Q184 -149 176.5 -152.5 Q169 -156 165 -155 Q163 -155 162.5 -147 Q162 -139 163 -129 Q164 -119 165.5 -110 Q167 -101 169 -98 L173 -94 Q156 -93 126 -84 Q96 -75 67 -50.5 Q38 -26 16 18 Q-6 62 -7 134 Q-8 250 14 336 Q36 422 71 484 Q48 480 31 474.5 Q14 469 4 464 Q-25 448 -41 428.5 Q-57 409 -62 404 Q-64 401 -69.5 398 Q-75 395 -80.5 394 Q-86 393 -90 394 Q-94 395 -92 400 Q-78 430 -56 449 Q-34 468 -10 480 Q14 492 38 497 Q62 502 82 503 Q105 538 128 564 Q156 595 187 611 Q218 627 247 633 Q276 639 301 638 Q326 637 341 636 Q356 634 370.5 625 Q385 616 395.5 603 Q406 590 411 575 Q416 560 414 546 Q409 520 387.5 507 Q366 494 335 488.5 Q304 483 267.5 483 Q231 483 196 485 Q181 459 169.5 431.5 Q158 404 148.5 379.5 Q139 355 132 334.5 Q125 314 119 301 Q110 280 104.5 250.5 Q99 221 96 192 Q93 163 91.5 138 Q90 113 89 100 Q87 86 86.5 59 Q86 32 95 4 Q104 -24 125.5 -46.5 Q147 -69 191 -73 Q223 -71 253 -50.5 Q283 -30 309 -1 Q335 28 357 62.5 Q379 97 396 128 Q413 159 424 183 Q435 207 439 215 Z M298 596 Q269 580 246 554.5 Q223 529 204 499 Q232 498 262 499.5 Q292 501 317.5 506.5 Q343 512 361.5 522.5 Q380 533 386 551 Q392 568 382.5 585 Q373 602 362 604 Q357 605 351.5 606.5 Q346 608 338.5 608 Q331 608 321.5 605.5 Q312 603 298 596 Z " />
<glyph glyph-name="Egrave" unicode="&#xc8;" horiz-adv-x="394" d="M257 434 Q270 435 288.5 429.5 Q307 424 315 414 Q317 410 323.5 401 Q330 392 332 390 Q334 388 335.5 385.5 Q337 383 335 379 Q329 370 309 367 Q271 364 233.5 347 Q196 330 166 296.5 Q136 263 117 211.5 Q98 160 98 88 Q98 35 112 -1 Q126 -37 151 -53.5 Q176 -70 211 -64.5 Q246 -59 287 -30 Q313 -11 331 6.5 Q349 24 362 40 Q375 56 384.5 71 Q394 86 404 100 Q414 114 418 114 Q422 114 422 107 Q422 100 419 89 Q416 78 413 70 Q400 40 379 11.5 Q358 -17 331 -40 Q304 -63 273.5 -78 Q243 -93 210 -95 Q179 -97 148 -87.5 Q117 -78 88 -47 Q81 -40 67 -24 Q53 -8 39.5 16 Q26 40 16.5 72 Q7 104 9 144 Q11 183 22 217 Q33 251 47.5 279 Q62 307 78 328.5 Q94 350 107 364 Q136 396 181 418 Q170 427 168 433 Q163 441 158 453 Q153 465 149 479 Q102 462 70 441.5 Q38 421 38 389 Q38 379 43 363 Q48 347 64 338 Q73 332 74 330.5 Q75 329 76 328 Q76 324 69 327 Q62 330 48 335 Q34 340 22 347.5 Q10 355 9 373 Q9 382 11.5 394 Q14 406 23 419.5 Q32 433 47.5 447.5 Q63 462 89 476 Q105 484 118 488.5 Q131 493 145 497 Q143 513 145 529.5 Q147 546 158 562 Q182 600 217 625.5 Q252 651 284 656 Q311 657 328.5 651 Q346 645 356.5 637 Q367 629 372 619.5 Q377 610 379 603 Q381 597 376 587 Q371 577 365 570 Q340 545 294 528.5 Q248 512 198 496 Q195 479 198 467 Q200 458 202.5 448.5 Q205 439 212 429 Q236 435 257 434 Z M228 520 Q239 523 258.5 532 Q278 541 297 553 Q316 565 329 580 Q342 595 341 611 Q340 622 330 626.5 Q320 631 311 629 Q301 627 276 613 Q251 599 232 570 Q212 539 203 512 Q209 514 215 516 Q221 518 228 520 Z M198 826 Q195 826 201.5 826.5 Q208 827 218 826.5 Q228 826 239 823 Q250 820 256 813 Q262 806 271 792.5 Q280 779 289.5 764 Q299 749 306.5 736.5 Q314 724 317 720 Q320 715 322.5 711 Q325 707 324.5 703.5 Q324 700 319 698.5 Q314 697 302 697 Q292 696 285 705.5 Q278 715 273 726 Q270 732 258.5 748 Q247 764 234.5 781.5 Q222 799 211 812.5 Q200 826 198 826 Z " />
<glyph glyph-name="Eacute" unicode="&#xc9;" horiz-adv-x="394" d="M257 434 Q270 435 288.5 429.5 Q307 424 315 414 Q317 410 323.5 401 Q330 392 332 390 Q334 388 335.5 385.5 Q337 383 335 379 Q329 370 309 367 Q271 364 233.5 347 Q196 330 166 296.5 Q136 263 117 211.5 Q98 160 98 88 Q98 35 112 -1 Q126 -37 151 -53.5 Q176 -70 211 -64.5 Q246 -59 287 -30 Q313 -11 331 6.5 Q349 24 362 40 Q375 56 384.5 71 Q394 86 404 100 Q414 114 418 114 Q422 114 422 107 Q422 100 419 89 Q416 78 413 70 Q400 40 379 11.5 Q358 -17 331 -40 Q304 -63 273.5 -78 Q243 -93 210 -95 Q179 -97 148 -87.5 Q117 -78 88 -47 Q81 -40 67 -24 Q53 -8 39.5 16 Q26 40 16.5 72 Q7 104 9 144 Q11 183 22 217 Q33 251 47.5 279 Q62 307 78 328.5 Q94 350 107 364 Q136 396 181 418 Q170 427 168 433 Q163 441 158 453 Q153 465 149 479 Q102 462 70 441.5 Q38 421 38 389 Q38 379 43 363 Q48 347 64 338 Q73 332 74 330.5 Q75 329 76 328 Q76 324 69 327 Q62 330 48 335 Q34 340 22 347.5 Q10 355 9 373 Q9 382 11.5 394 Q14 406 23 419.5 Q32 433 47.5 447.5 Q63 462 89 476 Q105 484 118 488.5 Q131 493 145 497 Q143 513 145 529.5 Q147 546 158 562 Q182 600 217 625.5 Q252 651 284 656 Q311 657 328.5 651 Q346 645 356.5 637 Q367 629 372 619.5 Q377 610 379 603 Q381 597 376 587 Q371 577 365 570 Q340 545 294 528.5 Q248 512 198 496 Q195 479 198 467 Q200 458 202.5 448.5 Q205 439 212 429 Q236 435 257 434 Z M228 520 Q239 523 258.5 532 Q278 541 297 553 Q316 565 329 580 Q342 595 341 611 Q340 622 330 626.5 Q320 631 311 629 Q301 627 276 613 Q251 599 232 570 Q212 539 203 512 Q209 514 215 516 Q221 518 228 520 Z M380 822 Q378 822 367 808.5 Q356 795 343 777.5 Q330 760 319 744 Q308 728 305 722 Q300 711 293 701.5 Q286 692 276 693 Q264 693 259 694.5 Q254 696 253.5 699.5 Q253 703 255.5 707 Q258 711 261 716 Q264 720 271.5 732.5 Q279 745 288.5 760 Q298 775 307 788.5 Q316 802 322 809 Q328 816 339 819 Q350 822 360 822.5 Q370 823 376.5 822.5 Q383 822 380 822 Z " />
<glyph glyph-name="Ecircumflex" unicode="&#xca;" horiz-adv-x="394" d="M257 434 Q270 435 288.5 429.5 Q307 424 315 414 Q317 410 323.5 401 Q330 392 332 390 Q334 388 335.5 385.5 Q337 383 335 379 Q329 370 309 367 Q271 364 233.5 347 Q196 330 166 296.5 Q136 263 117 211.5 Q98 160 98 88 Q98 35 112 -1 Q126 -37 151 -53.5 Q176 -70 211 -64.5 Q246 -59 287 -30 Q313 -11 331 6.5 Q349 24 362 40 Q375 56 384.5 71 Q394 86 404 100 Q414 114 418 114 Q422 114 422 107 Q422 100 419 89 Q416 78 413 70 Q400 40 379 11.5 Q358 -17 331 -40 Q304 -63 273.5 -78 Q243 -93 210 -95 Q179 -97 148 -87.5 Q117 -78 88 -47 Q81 -40 67 -24 Q53 -8 39.5 16 Q26 40 16.5 72 Q7 104 9 144 Q11 183 22 217 Q33 251 47.5 279 Q62 307 78 328.5 Q94 350 107 364 Q136 396 181 418 Q170 427 168 433 Q163 441 158 453 Q153 465 149 479 Q102 462 70 441.5 Q38 421 38 389 Q38 379 43 363 Q48 347 64 338 Q73 332 74 330.5 Q75 329 76 328 Q76 324 69 327 Q62 330 48 335 Q34 340 22 347.5 Q10 355 9 373 Q9 382 11.5 394 Q14 406 23 419.5 Q32 433 47.5 447.5 Q63 462 89 476 Q105 484 118 488.5 Q131 493 145 497 Q143 513 145 529.5 Q147 546 158 562 Q182 600 217 625.5 Q252 651 284 656 Q311 657 328.5 651 Q346 645 356.5 637 Q367 629 372 619.5 Q377 610 379 603 Q381 597 376 587 Q371 577 365 570 Q340 545 294 528.5 Q248 512 198 496 Q195 479 198 467 Q200 458 202.5 448.5 Q205 439 212 429 Q236 435 257 434 Z M228 520 Q239 523 258.5 532 Q278 541 297 553 Q316 565 329 580 Q342 595 341 611 Q340 622 330 626.5 Q320 631 311 629 Q301 627 276 613 Q251 599 232 570 Q212 539 203 512 Q209 514 215 516 Q221 518 228 520 Z M382 692 Q362 694 351 694 Q340 694 332 705 Q328 711 320.5 723 Q313 735 305 748 Q297 761 290.5 771 Q284 781 283 781 Q281 781 270 768.5 Q259 756 245.5 740.5 Q232 725 220.5 711 Q209 697 206 695 Q203 693 198 692 Q193 691 188.5 692 Q184 693 182.5 696.5 Q181 700 187 707 Q193 714 206 729.5 Q219 745 232.5 761.5 Q246 778 257.5 791 Q269 804 272 806 Q280 810 292 808 Q304 806 312 798 Q316 794 326.5 777 Q337 760 349 741.5 Q361 723 370.5 708.5 Q380 694 382 694 Q383 694 383 693 Q383 691 382 692 Z " />
<glyph glyph-name="Edieresis" unicode="&#xcb;" horiz-adv-x="394" d="M257 434 Q270 435 288.5 429.5 Q307 424 315 414 Q317 410 323.5 401 Q330 392 332 390 Q334 388 335.5 385.5 Q337 383 335 379 Q329 370 309 367 Q271 364 233.5 347 Q196 330 166 296.5 Q136 263 117 211.5 Q98 160 98 88 Q98 35 112 -1 Q126 -37 151 -53.5 Q176 -70 211 -64.5 Q246 -59 287 -30 Q313 -11 331 6.5 Q349 24 362 40 Q375 56 384.5 71 Q394 86 404 100 Q414 114 418 114 Q422 114 422 107 Q422 100 419 89 Q416 78 413 70 Q400 40 379 11.5 Q358 -17 331 -40 Q304 -63 273.5 -78 Q243 -93 210 -95 Q179 -97 148 -87.5 Q117 -78 88 -47 Q81 -40 67 -24 Q53 -8 39.5 16 Q26 40 16.5 72 Q7 104 9 144 Q11 183 22 217 Q33 251 47.5 279 Q62 307 78 328.5 Q94 350 107 364 Q136 396 181 418 Q170 427 168 433 Q163 441 158 453 Q153 465 149 479 Q102 462 70 441.5 Q38 421 38 389 Q38 379 43 363 Q48 347 64 338 Q73 332 74 330.5 Q75 329 76 328 Q76 324 69 327 Q62 330 48 335 Q34 340 22 347.5 Q10 355 9 373 Q9 382 11.5 394 Q14 406 23 419.5 Q32 433 47.5 447.5 Q63 462 89 476 Q105 484 118 488.5 Q131 493 145 497 Q143 513 145 529.5 Q147 546 158 562 Q182 600 217 625.5 Q252 651 284 656 Q311 657 328.5 651 Q346 645 356.5 637 Q367 629 372 619.5 Q377 610 379 603 Q381 597 376 587 Q371 577 365 570 Q340 545 294 528.5 Q248 512 198 496 Q195 479 198 467 Q200 458 202.5 448.5 Q205 439 212 429 Q236 435 257 434 Z M228 520 Q239 523 258.5 532 Q278 541 297 553 Q316 565 329 580 Q342 595 341 611 Q340 622 330 626.5 Q320 631 311 629 Q301 627 276 613 Q251 599 232 570 Q212 539 203 512 Q209 514 215 516 Q221 518 228 520 Z M321 758 Q337 760 348 757.5 Q359 755 366 750.5 Q373 746 377 740.5 Q381 735 383 732 Q385 729 385.5 721 Q386 713 384 704.5 Q382 696 376 689.5 Q370 683 360 683 Q339 684 323.5 697 Q308 710 306 716 Q305 719 306 726 Q307 733 309 740 Q311 747 314 752.5 Q317 758 321 758 Z M186 765 Q202 767 213 764.5 Q224 762 231 757.5 Q238 753 242 747.5 Q246 742 248 739 Q250 736 250.5 728 Q251 720 249 711.5 Q247 703 241 696.5 Q235 690 225 690 Q204 691 188.5 704 Q173 717 171 723 Q170 726 171 733 Q172 740 174 747 Q176 754 179 759.5 Q182 765 186 765 Z " />
<glyph glyph-name="Igrave" unicode="&#xcc;" horiz-adv-x="266" d="M198 477 Q193 422 193.5 379 Q194 336 197.5 296.5 Q201 257 205 215 Q209 173 210 119 Q210 97 209.5 75 Q209 53 205.5 32 Q202 11 193.5 -9 Q185 -29 168 -47 Q145 -64 124.5 -68 Q104 -72 99 -72 Q95 -72 81 -70.5 Q67 -69 52 -62 Q49 -66 46 -69.5 Q43 -73 39 -77 Q16 -95 -3.5 -93.5 Q-23 -92 -41 -88 Q-50 -86 -47.5 -85 Q-45 -84 -37.5 -82.5 Q-30 -81 -21 -79 Q-12 -77 -6 -74 Q-1 -71 10 -65.5 Q21 -60 31 -49 Q25 -41 22 -33 Q17 -20 14 0 Q11 20 11 40 Q11 60 13 77.5 Q15 95 19 104 Q23 113 30 120.5 Q37 128 45 132 Q53 136 60 133.5 Q67 131 72 121 Q88 81 85 42 Q84 27 82.5 5.5 Q81 -16 65 -42 Q77 -56 89 -52 Q109 -45 120 -29 Q131 -13 129 19 Q127 35 126 53 Q125 71 123.5 86.5 Q122 102 121.5 113 Q121 124 121 126 Q121 129 119.5 152.5 Q118 176 116 206 Q114 236 112 263.5 Q110 291 109 301 Q108 310 107 341 Q106 372 107.5 410.5 Q109 449 113.5 487 Q118 525 128 549 Q120 543 110.5 534.5 Q101 526 92 516.5 Q83 507 77 496.5 Q71 486 71 476 Q72 453 74.5 438 Q77 423 85 416 Q87 415 87.5 412 Q88 409 85 410 Q75 414 67 423 Q60 431 54 442.5 Q48 454 49 472 Q51 503 66 521 Q81 539 99 554 Q114 565 129.5 575.5 Q145 586 155 594 Q166 616 167 627.5 Q168 639 173 638 Q192 636 198.5 630.5 Q205 625 206 619 Q207 612 201 604 L201 556 Q201 536 200 514 Q199 492 198 477 Z M49 17 Q48 52 46 70.5 Q44 89 41.5 95.5 Q39 102 37.5 98 Q36 94 36 85 Q36 66 36.5 48 Q37 30 40 16 Q42 7 48 -11 Q51 -1 49 17 Z M98 824 Q95 824 101.5 824.5 Q108 825 118 824.5 Q128 824 139 821 Q150 818 156 811 Q162 804 171 790.5 Q180 777 189.5 762 Q199 747 206.5 734.5 Q214 722 217 718 Q220 713 222.5 709 Q225 705 224.5 701.5 Q224 698 219 696.5 Q214 695 202 695 Q192 694 185 703.5 Q178 713 173 724 Q170 730 158.5 746 Q147 762 134.5 779.5 Q122 797 111 810.5 Q100 824 98 824 Z " />
<glyph glyph-name="Iacute" unicode="&#xcd;" horiz-adv-x="266" d="M198 477 Q193 422 193.5 379 Q194 336 197.5 296.5 Q201 257 205 215 Q209 173 210 119 Q210 97 209.5 75 Q209 53 205.5 32 Q202 11 193.5 -9 Q185 -29 168 -47 Q145 -64 124.5 -68 Q104 -72 99 -72 Q95 -72 81 -70.5 Q67 -69 52 -62 Q49 -66 46 -69.5 Q43 -73 39 -77 Q16 -95 -3.5 -93.5 Q-23 -92 -41 -88 Q-50 -86 -47.5 -85 Q-45 -84 -37.5 -82.5 Q-30 -81 -21 -79 Q-12 -77 -6 -74 Q-1 -71 10 -65.5 Q21 -60 31 -49 Q25 -41 22 -33 Q17 -20 14 0 Q11 20 11 40 Q11 60 13 77.5 Q15 95 19 104 Q23 113 30 120.5 Q37 128 45 132 Q53 136 60 133.5 Q67 131 72 121 Q88 81 85 42 Q84 27 82.5 5.5 Q81 -16 65 -42 Q77 -56 89 -52 Q109 -45 120 -29 Q131 -13 129 19 Q127 35 126 53 Q125 71 123.5 86.5 Q122 102 121.5 113 Q121 124 121 126 Q121 129 119.5 152.5 Q118 176 116 206 Q114 236 112 263.5 Q110 291 109 301 Q108 310 107 341 Q106 372 107.5 410.5 Q109 449 113.5 487 Q118 525 128 549 Q120 543 110.5 534.5 Q101 526 92 516.5 Q83 507 77 496.5 Q71 486 71 476 Q72 453 74.5 438 Q77 423 85 416 Q87 415 87.5 412 Q88 409 85 410 Q75 414 67 423 Q60 431 54 442.5 Q48 454 49 472 Q51 503 66 521 Q81 539 99 554 Q114 565 129.5 575.5 Q145 586 155 594 Q166 616 167 627.5 Q168 639 173 638 Q192 636 198.5 630.5 Q205 625 206 619 Q207 612 201 604 L201 556 Q201 536 200 514 Q199 492 198 477 Z M49 17 Q48 52 46 70.5 Q44 89 41.5 95.5 Q39 102 37.5 98 Q36 94 36 85 Q36 66 36.5 48 Q37 30 40 16 Q42 7 48 -11 Q51 -1 49 17 Z M263 817 Q261 817 250 803.5 Q239 790 226 772.5 Q213 755 202 739 Q191 723 188 717 Q183 706 176 696.5 Q169 687 159 688 Q147 688 142 689.5 Q137 691 136.5 694.5 Q136 698 138.5 702 Q141 706 144 711 Q147 715 154.5 727.5 Q162 740 171.5 755 Q181 770 190 783.5 Q199 797 205 804 Q211 811 222 814 Q233 817 243 817.5 Q253 818 259.5 817.5 Q266 817 263 817 Z " />
<glyph glyph-name="Icircumflex" unicode="&#xce;" horiz-adv-x="266" d="M198 477 Q193 422 193.5 379 Q194 336 197.5 296.5 Q201 257 205 215 Q209 173 210 119 Q210 97 209.5 75 Q209 53 205.5 32 Q202 11 193.5 -9 Q185 -29 168 -47 Q145 -64 124.5 -68 Q104 -72 99 -72 Q95 -72 81 -70.5 Q67 -69 52 -62 Q49 -66 46 -69.5 Q43 -73 39 -77 Q16 -95 -3.5 -93.5 Q-23 -92 -41 -88 Q-50 -86 -47.5 -85 Q-45 -84 -37.5 -82.5 Q-30 -81 -21 -79 Q-12 -77 -6 -74 Q-1 -71 10 -65.5 Q21 -60 31 -49 Q25 -41 22 -33 Q17 -20 14 0 Q11 20 11 40 Q11 60 13 77.5 Q15 95 19 104 Q23 113 30 120.5 Q37 128 45 132 Q53 136 60 133.5 Q67 131 72 121 Q88 81 85 42 Q84 27 82.5 5.5 Q81 -16 65 -42 Q77 -56 89 -52 Q109 -45 120 -29 Q131 -13 129 19 Q127 35 126 53 Q125 71 123.5 86.5 Q122 102 121.5 113 Q121 124 121 126 Q121 129 119.5 152.5 Q118 176 116 206 Q114 236 112 263.5 Q110 291 109 301 Q108 310 107 341 Q106 372 107.5 410.5 Q109 449 113.5 487 Q118 525 128 549 Q120 543 110.5 534.5 Q101 526 92 516.5 Q83 507 77 496.5 Q71 486 71 476 Q72 453 74.5 438 Q77 423 85 416 Q87 415 87.5 412 Q88 409 85 410 Q75 414 67 423 Q60 431 54 442.5 Q48 454 49 472 Q51 503 66 521 Q81 539 99 554 Q114 565 129.5 575.5 Q145 586 155 594 Q166 616 167 627.5 Q168 639 173 638 Q192 636 198.5 630.5 Q205 625 206 619 Q207 612 201 604 L201 556 Q201 536 200 514 Q199 492 198 477 Z M49 17 Q48 52 46 70.5 Q44 89 41.5 95.5 Q39 102 37.5 98 Q36 94 36 85 Q36 66 36.5 48 Q37 30 40 16 Q42 7 48 -11 Q51 -1 49 17 Z M263 691 Q243 693 232 693 Q221 693 213 704 Q209 710 201.5 722 Q194 734 186 747 Q178 760 171.5 770 Q165 780 164 780 Q162 780 151 767.5 Q140 755 126.5 739.5 Q113 724 101.5 710 Q90 696 87 694 Q84 692 79 691 Q74 690 69.5 691 Q65 692 63.5 695.5 Q62 699 68 706 Q74 713 87 728.5 Q100 744 113.5 760.5 Q127 777 138.5 790 Q150 803 153 805 Q161 809 173 807 Q185 805 193 797 Q197 793 207.5 776 Q218 759 230 740.5 Q242 722 251.5 707.5 Q261 693 263 693 Q264 693 264 692 Q264 690 263 691 Z " />
<glyph glyph-name="Idieresis" unicode="&#xcf;" horiz-adv-x="266" d="M198 477 Q193 422 193.5 379 Q194 336 197.5 296.5 Q201 257 205 215 Q209 173 210 119 Q210 97 209.5 75 Q209 53 205.5 32 Q202 11 193.5 -9 Q185 -29 168 -47 Q145 -64 124.5 -68 Q104 -72 99 -72 Q95 -72 81 -70.5 Q67 -69 52 -62 Q49 -66 46 -69.5 Q43 -73 39 -77 Q16 -95 -3.5 -93.5 Q-23 -92 -41 -88 Q-50 -86 -47.5 -85 Q-45 -84 -37.5 -82.5 Q-30 -81 -21 -79 Q-12 -77 -6 -74 Q-1 -71 10 -65.5 Q21 -60 31 -49 Q25 -41 22 -33 Q17 -20 14 0 Q11 20 11 40 Q11 60 13 77.5 Q15 95 19 104 Q23 113 30 120.5 Q37 128 45 132 Q53 136 60 133.5 Q67 131 72 121 Q88 81 85 42 Q84 27 82.5 5.5 Q81 -16 65 -42 Q77 -56 89 -52 Q109 -45 120 -29 Q131 -13 129 19 Q127 35 126 53 Q125 71 123.5 86.5 Q122 102 121.5 113 Q121 124 121 126 Q121 129 119.5 152.5 Q118 176 116 206 Q114 236 112 263.5 Q110 291 109 301 Q108 310 107 341 Q106 372 107.5 410.5 Q109 449 113.5 487 Q118 525 128 549 Q120 543 110.5 534.5 Q101 526 92 516.5 Q83 507 77 496.5 Q71 486 71 476 Q72 453 74.5 438 Q77 423 85 416 Q87 415 87.5 412 Q88 409 85 410 Q75 414 67 423 Q60 431 54 442.5 Q48 454 49 472 Q51 503 66 521 Q81 539 99 554 Q114 565 129.5 575.5 Q145 586 155 594 Q166 616 167 627.5 Q168 639 173 638 Q192 636 198.5 630.5 Q205 625 206 619 Q207 612 201 604 L201 556 Q201 536 200 514 Q199 492 198 477 Z M49 17 Q48 52 46 70.5 Q44 89 41.5 95.5 Q39 102 37.5 98 Q36 94 36 85 Q36 66 36.5 48 Q37 30 40 16 Q42 7 48 -11 Q51 -1 49 17 Z M192 764 Q208 766 219 763.5 Q230 761 237 756.5 Q244 752 248 746.5 Q252 741 254 738 Q256 735 256.5 727 Q257 719 255 710.5 Q253 702 247 695.5 Q241 689 231 689 Q210 690 194.5 703 Q179 716 177 722 Q176 725 177 732 Q178 739 180 746 Q182 753 185 758.5 Q188 764 192 764 Z M57 771 Q73 773 84 770.5 Q95 768 102 763.5 Q109 759 113 753.5 Q117 748 119 745 Q121 742 121.5 734 Q122 726 120 717.5 Q118 709 112 702.5 Q106 696 96 696 Q75 697 59.5 710 Q44 723 42 729 Q41 732 42 739 Q43 746 45 753 Q47 760 50 765.5 Q53 771 57 771 Z " />
<glyph glyph-name="Eth" unicode="&#xd0;" horiz-adv-x="547" d="M176 680 Q270 669 333.5 637 Q397 605 435.5 549.5 Q474 494 488.5 413.5 Q503 333 499 224 Q497 161 464.5 103 Q432 45 382.5 2 Q333 -41 272.5 -63 Q212 -85 154 -75 Q150 -74 144 -72 Q127 -80 114.5 -82 Q102 -84 98 -84 Q94 -84 80 -82.5 Q66 -81 51 -75 Q48 -78 45 -81.5 Q42 -85 38 -89 Q15 -107 -4.5 -105.5 Q-24 -104 -42 -100 Q-51 -98 -48.5 -97 Q-46 -96 -38.5 -94.5 Q-31 -93 -22 -91 Q-13 -89 -7 -86 Q-2 -83 9 -77.5 Q20 -72 31 -61 Q28 -57 25.5 -53.5 Q23 -50 21 -45 Q16 -32 13 -12 Q10 8 10 28 Q10 48 12 65.5 Q14 83 18 92 Q22 101 29 108.5 Q36 116 44 120 Q52 124 59 121.5 Q66 119 71 109 Q87 69 84 30 Q83 15 81.5 -7 Q80 -29 65 -55 Q76 -68 88 -64 Q111 -56 121 -38 Q121 -22 126 -24 Q129 -9 128 7 Q126 23 125 41 Q124 59 122.5 74.5 Q121 90 120.5 101 Q120 112 120 114 Q120 117 118.5 140.5 Q117 164 115 194 Q113 224 111 251.5 Q109 279 108 289 Q108 296 107 314.5 Q106 333 106 358 Q106 383 107 411.5 Q108 440 111.5 467 Q115 494 120.5 516 Q126 538 135 551 Q150 572 166 579.5 Q182 587 195.5 587 Q209 587 216 581.5 Q223 576 220 569 Q219 567 216 556 Q213 545 209 530 Q205 515 202 497.5 Q199 480 198 465 Q196 449 196.5 420 Q197 391 198 360 Q199 329 200.5 302 Q202 275 204 264 Q206 250 210.5 224 Q215 198 217 169 Q242 170 268.5 171 Q295 172 318 172.5 Q341 173 358 173 Q375 173 380 172 Q382 171 385 170.5 Q388 170 390 168 Q395 195 398 221.5 Q401 248 403 272 Q407 318 400.5 371 Q394 424 377 473.5 Q360 523 331.5 564.5 Q303 606 263 629.5 Q223 653 170 654 Q117 655 52 624 Q14 606 -6.5 582 Q-27 558 -36.5 533 Q-46 508 -47.5 485 Q-49 462 -48 447 Q-47 431 -43 423.5 Q-39 416 -33.5 413.5 Q-28 411 -23 412 Q-18 413 -15 413 Q-12 413 -9 410 Q-6 407 -6.5 403.5 Q-7 400 -13 396.5 Q-19 393 -35 393 Q-67 394 -80 432 Q-93 470 -75 530 Q-66 560 -43 587 Q-20 614 13.5 635 Q47 656 89 668 Q131 680 176 680 Z M183 -54 Q228 -58 260.5 -45 Q293 -32 316.5 -7.5 Q340 17 355.5 50.5 Q371 84 381 122 Q366 122 346 121.5 Q326 121 304 120.5 Q282 120 260.5 120 Q239 120 220 120 L220 107 Q219 65 211 23.5 Q203 -18 172 -53 Q175 -53 177.5 -53.5 Q180 -54 183 -54 Z M39 4 Q41 -5 47 -23 Q50 -12 48 5 Q47 40 45 58.5 Q43 77 40.5 83.5 Q38 90 36.5 86 Q35 82 35 73 Q35 54 35.5 36 Q36 18 39 4 Z " />
<glyph glyph-name="Ntilde" unicode="&#xd1;" horiz-adv-x="609" d="M-18 -70 Q-11 -65 -3.5 -58 Q4 -51 12 -40 Q9 -23 7 -6.5 Q5 10 5 20 Q4 36 6.5 59.5 Q9 83 21 97 Q27 104 36 108.5 Q45 113 53 113.5 Q61 114 67 109.5 Q73 105 73 93 Q73 49 55 9 Q53 4 49.5 -2 Q46 -8 42 -15 Q44 -20 45 -25.5 Q46 -31 48 -37 Q60 -79 68.5 -95.5 Q77 -112 96 -114 Q105 -115 118.5 -104.5 Q132 -94 146 -74.5 Q160 -55 173 -28 Q186 -1 194 31 Q199 52 200.5 93 Q202 134 200.5 185 Q199 236 195.5 291 Q192 346 189 396 Q182 407 175.5 418.5 Q169 430 162 442 Q141 478 124.5 510.5 Q108 543 107 577 Q106 596 118 617 Q130 638 159 640 Q168 640 176 635 Q184 630 189 623 Q194 616 197.5 608 Q201 600 201 594 Q203 571 205 550.5 Q207 530 208 506 Q226 482 260 438.5 Q294 395 334 343.5 Q374 292 415 239 Q456 186 488 144 Q491 212 499.5 284 Q508 356 520 420.5 Q532 485 547 535.5 Q562 586 577 612 Q583 606 587 600 Q590 595 592 589 Q594 583 592 579 Q579 559 567.5 507 Q556 455 547 386.5 Q538 318 531.5 242 Q525 166 523 97 Q533 84 540.5 74 Q548 64 552 59 Q576 24 588 -10 Q600 -44 599 -71 Q598 -98 583 -114.5 Q568 -131 538 -132 Q515 -132 503.5 -95 Q492 -58 488 2 Q457 45 422.5 89 Q388 133 352.5 177 Q317 221 282 266 Q247 311 215 358 Q220 322 227 281.5 Q234 241 239.5 205 Q245 169 248.5 143 Q252 117 250 109 Q244 87 245.5 76 Q247 65 242 54 Q240 49 229 22 Q218 -5 200 -37 Q182 -69 158 -96 Q134 -123 107 -128 Q81 -133 65 -126.5 Q49 -120 39.5 -110 Q30 -100 26 -89 Q22 -78 20 -72 Q18 -69 17.5 -64 Q17 -59 15 -53 Q2 -68 -7 -71 Q-15 -73 -17.5 -72 Q-20 -71 -18 -70 Z M182 542 Q183 567 180.5 580.5 Q178 594 175 600.5 Q172 607 169.5 608 Q167 609 166 609 Q165 609 163.5 604.5 Q162 600 162.5 591 Q163 582 167 569.5 Q171 557 182 541 L182 542 Z M50 58 Q51 67 51.5 77 Q52 87 50 87 Q47 87 45 81 Q43 75 42 69 Q41 64 39 49.5 Q37 35 39 12 Q44 26 46 38.5 Q48 51 50 58 Z M534 -97 Q542 -97 540.5 -86 Q539 -75 533 -65 Q531 -62 529.5 -59 Q528 -56 526 -54 Q528 -68 529.5 -79 Q531 -90 534 -97 Z M250 675 Q250 700 259 720 Q267 737 284.5 752 Q302 767 335 769 Q358 769 370.5 767.5 Q383 766 391.5 765.5 Q400 765 407 764.5 Q414 764 426 766 Q449 769 468.5 780.5 Q488 792 489 803 Q489 809 491.5 809 Q494 809 496 805 Q498 801 499 794.5 Q500 788 498 781 Q496 774 489.5 763 Q483 752 473 741.5 Q463 731 450 723.5 Q437 716 421 715 Q408 714 390 714.5 Q372 715 355 715 Q338 715 324.5 715.5 Q311 716 307 715 Q302 714 294.5 712.5 Q287 711 279 707 Q271 703 263 695.5 Q255 688 250 675 Z " />
</font>
</svg>
